<ttFont>
    <TTGlyph name="A" xMin="-36" yMin="0" xMax="691" yMax="700">
      <contour>
        <pt x="481" y="12" on="0"/>
        <pt x="512" y="24" on="0"/>
        <pt x="512" y="74" on="0"/>
        <pt x="459" y="219" on="1"/>
        <pt x="154" y="219" on="1"/>
        <pt x="111" y="92" on="0"/>
        <pt x="111" y="27" on="0"/>
        <pt x="144" y="12" on="0"/>
        <pt x="187" y="12" on="1"/>
        <pt x="189" y="0" on="1"/>
        <pt x="-36" y="0" on="1"/>
        <pt x="-34" y="12" on="1"/>
        <pt x="-5" y="12" on="0"/>
        <pt x="28" y="22" on="0"/>
        <pt x="67" y="65" on="0"/>
        <pt x="103" y="147" on="0"/>
        <pt x="128" y="221" on="1"/>
        <pt x="217" y="478" on="1"/>
        <pt x="264" y="614" on="0"/>
        <pt x="264" y="672" on="0"/>
        <pt x="236" y="689" on="0"/>
        <pt x="196" y="689" on="1"/>
        <pt x="194" y="700" on="1"/>
        <pt x="359" y="700" on="1"/>
        <pt x="536" y="221" on="1"/>
        <pt x="581" y="102" on="0"/>
        <pt x="612" y="38" on="0"/>
        <pt x="626" y="29" on="1"/>
        <pt x="651" y="12" on="0"/>
        <pt x="689" y="12" on="1"/>
        <pt x="691" y="0" on="1"/>
        <pt x="441" y="0" on="1"/>
        <pt x="443" y="12" on="1"/>
      </contour>
      <contour>
        <pt x="303" y="646" on="1"/>
        <pt x="162" y="243" on="1"/>
        <pt x="451" y="243" on="1"/>
      </contour>
    </TTGlyph>
    <TTGlyph name="AE" xMin="-50" yMin="0" xMax="861" yMax="700">
      <contour>
        <pt x="861" y="0" on="1"/>
        <pt x="357" y="0" on="1"/>
        <pt x="359" y="12" on="1"/>
        <pt x="409" y="12" on="0"/>
        <pt x="432" y="31" on="1"/>
        <pt x="457" y="52" on="0"/>
        <pt x="457" y="226" on="1"/>
        <pt x="457" y="340" on="1"/>
        <pt x="213" y="340" on="1"/>
        <pt x="161" y="219" on="1"/>
        <pt x="153" y="201" on="0"/>
        <pt x="130" y="148" on="0"/>
        <pt x="117" y="120" on="0"/>
        <pt x="110" y="103" on="1"/>
        <pt x="98" y="70" on="0"/>
        <pt x="98" y="27" on="0"/>
        <pt x="131" y="12" on="0"/>
        <pt x="174" y="12" on="1"/>
        <pt x="176" y="0" on="1"/>
        <pt x="-50" y="0" on="1"/>
        <pt x="-48" y="12" on="1"/>
        <pt x="-10" y="12" on="0"/>
        <pt x="14" y="24" on="1"/>
        <pt x="61" y="50" on="0"/>
        <pt x="134" y="221" on="1"/>
        <pt x="244" y="478" on="1"/>
        <pt x="291" y="589" on="0"/>
        <pt x="291" y="649" on="1"/>
        <pt x="291" y="672" on="0"/>
        <pt x="263" y="689" on="0"/>
        <pt x="223" y="689" on="1"/>
        <pt x="221" y="700" on="1"/>
        <pt x="824" y="700" on="1"/>
        <pt x="824" y="556" on="1"/>
        <pt x="812" y="558" on="1"/>
        <pt x="812" y="625" on="0"/>
        <pt x="671" y="677" on="0"/>
        <pt x="526" y="677" on="1"/>
        <pt x="526" y="362" on="1"/>
        <pt x="622" y="362" on="0"/>
        <pt x="706" y="382" on="0"/>
        <pt x="730" y="423" on="0"/>
        <pt x="730" y="471" on="1"/>
        <pt x="741" y="473" on="1"/>
        <pt x="741" y="230" on="1"/>
        <pt x="730" y="232" on="1"/>
        <pt x="730" y="281" on="0"/>
        <pt x="706" y="321" on="0"/>
        <pt x="622" y="340" on="0"/>
        <pt x="526" y="340" on="1"/>
        <pt x="526" y="211" on="1"/>
        <pt x="526" y="105" on="0"/>
        <pt x="541" y="35" on="0"/>
        <pt x="567" y="23" on="1"/>
        <pt x="849" y="23" on="0"/>
        <pt x="849" y="143" on="1"/>
        <pt x="861" y="145" on="1"/>
      </contour>
      <contour>
        <pt x="457" y="362" on="1"/>
        <pt x="457" y="464" on="1"/>
        <pt x="457" y="614" on="0"/>
        <pt x="442" y="646" on="1"/>
        <pt x="428" y="674" on="0"/>
        <pt x="398" y="680" on="1"/>
        <pt x="383" y="682" on="0"/>
        <pt x="359" y="682" on="1"/>
        <pt x="222" y="362" on="1"/>
      </contour>
    </TTGlyph>
    <TTGlyph name="Aacute" xMin="-36" yMin="0" xMax="691" yMax="869">
      <contour>
        <pt x="481" y="12" on="0"/>
        <pt x="512" y="24" on="0"/>
        <pt x="512" y="74" on="0"/>
        <pt x="459" y="219" on="1"/>
        <pt x="154" y="219" on="1"/>
        <pt x="111" y="92" on="0"/>
        <pt x="111" y="27" on="0"/>
        <pt x="144" y="12" on="0"/>
        <pt x="187" y="12" on="1"/>
        <pt x="189" y="0" on="1"/>
        <pt x="-36" y="0" on="1"/>
        <pt x="-34" y="12" on="1"/>
        <pt x="-5" y="12" on="0"/>
        <pt x="28" y="22" on="0"/>
        <pt x="67" y="65" on="0"/>
        <pt x="103" y="147" on="0"/>
        <pt x="128" y="221" on="1"/>
        <pt x="217" y="478" on="1"/>
        <pt x="264" y="614" on="0"/>
        <pt x="264" y="672" on="0"/>
        <pt x="236" y="689" on="0"/>
        <pt x="196" y="689" on="1"/>
        <pt x="194" y="700" on="1"/>
        <pt x="359" y="700" on="1"/>
        <pt x="536" y="221" on="1"/>
        <pt x="581" y="102" on="0"/>
        <pt x="612" y="38" on="0"/>
        <pt x="626" y="29" on="1"/>
        <pt x="651" y="12" on="0"/>
        <pt x="689" y="12" on="1"/>
        <pt x="691" y="0" on="1"/>
        <pt x="441" y="0" on="1"/>
        <pt x="443" y="12" on="1"/>
      </contour>
      <contour>
        <pt x="303" y="646" on="1"/>
        <pt x="162" y="243" on="1"/>
        <pt x="451" y="243" on="1"/>
      </contour>
      <contour>
        <pt x="348" y="856" on="1"/>
        <pt x="368" y="869" on="0"/>
        <pt x="399" y="869" on="0"/>
        <pt x="422" y="850" on="0"/>
        <pt x="422" y="834" on="1"/>
        <pt x="422" y="801" on="0"/>
        <pt x="379" y="788" on="1"/>
        <pt x="196" y="732" on="1"/>
        <pt x="185" y="757" on="1"/>
      </contour>
    </TTGlyph>
    <TTGlyph name="Acircumflex" xMin="-36" yMin="0" xMax="691" yMax="883">
      <contour>
        <pt x="481" y="12" on="0"/>
        <pt x="512" y="24" on="0"/>
        <pt x="512" y="74" on="0"/>
        <pt x="459" y="219" on="1"/>
        <pt x="154" y="219" on="1"/>
        <pt x="111" y="92" on="0"/>
        <pt x="111" y="27" on="0"/>
        <pt x="144" y="12" on="0"/>
        <pt x="187" y="12" on="1"/>
        <pt x="189" y="0" on="1"/>
        <pt x="-36" y="0" on="1"/>
        <pt x="-34" y="12" on="1"/>
        <pt x="-5" y="12" on="0"/>
        <pt x="28" y="22" on="0"/>
        <pt x="67" y="65" on="0"/>
        <pt x="103" y="147" on="0"/>
        <pt x="128" y="221" on="1"/>
        <pt x="217" y="478" on="1"/>
        <pt x="264" y="614" on="0"/>
        <pt x="264" y="672" on="0"/>
        <pt x="236" y="689" on="0"/>
        <pt x="196" y="689" on="1"/>
        <pt x="194" y="700" on="1"/>
        <pt x="359" y="700" on="1"/>
        <pt x="536" y="221" on="1"/>
        <pt x="581" y="102" on="0"/>
        <pt x="612" y="38" on="0"/>
        <pt x="626" y="29" on="1"/>
        <pt x="651" y="12" on="0"/>
        <pt x="689" y="12" on="1"/>
        <pt x="691" y="0" on="1"/>
        <pt x="441" y="0" on="1"/>
        <pt x="443" y="12" on="1"/>
      </contour>
      <contour>
        <pt x="303" y="646" on="1"/>
        <pt x="162" y="243" on="1"/>
        <pt x="451" y="243" on="1"/>
      </contour>
      <contour>
        <pt x="312" y="883" on="0"/>
        <pt x="342" y="883" on="0"/>
        <pt x="364" y="868" on="0"/>
        <pt x="385" y="845" on="1"/>
        <pt x="465" y="754" on="1"/>
        <pt x="445" y="732" on="1"/>
        <pt x="327" y="809" on="1"/>
        <pt x="209" y="732" on="1"/>
        <pt x="189" y="754" on="1"/>
        <pt x="269" y="845" on="1"/>
        <pt x="290" y="868" on="0"/>
      </contour>
    </TTGlyph>
    <TTGlyph name="Adieresis" xMin="-36" yMin="0" xMax="691" yMax="847">
      <contour>
        <pt x="481" y="12" on="0"/>
        <pt x="512" y="24" on="0"/>
        <pt x="512" y="74" on="0"/>
        <pt x="459" y="219" on="1"/>
        <pt x="154" y="219" on="1"/>
        <pt x="111" y="92" on="0"/>
        <pt x="111" y="27" on="0"/>
        <pt x="144" y="12" on="0"/>
        <pt x="187" y="12" on="1"/>
        <pt x="189" y="0" on="1"/>
        <pt x="-36" y="0" on="1"/>
        <pt x="-34" y="12" on="1"/>
        <pt x="-5" y="12" on="0"/>
        <pt x="28" y="22" on="0"/>
        <pt x="67" y="65" on="0"/>
        <pt x="103" y="147" on="0"/>
        <pt x="128" y="221" on="1"/>
        <pt x="217" y="478" on="1"/>
        <pt x="264" y="614" on="0"/>
        <pt x="264" y="672" on="0"/>
        <pt x="236" y="689" on="0"/>
        <pt x="196" y="689" on="1"/>
        <pt x="194" y="700" on="1"/>
        <pt x="359" y="700" on="1"/>
        <pt x="536" y="221" on="1"/>
        <pt x="581" y="102" on="0"/>
        <pt x="612" y="38" on="0"/>
        <pt x="626" y="29" on="1"/>
        <pt x="651" y="12" on="0"/>
        <pt x="689" y="12" on="1"/>
        <pt x="691" y="0" on="1"/>
        <pt x="441" y="0" on="1"/>
        <pt x="443" y="12" on="1"/>
      </contour>
      <contour>
        <pt x="303" y="646" on="1"/>
        <pt x="162" y="243" on="1"/>
        <pt x="451" y="243" on="1"/>
      </contour>
      <contour>
        <pt x="146" y="771" on="0"/>
        <pt x="146" y="815" on="0"/>
        <pt x="178" y="847" on="0"/>
        <pt x="222" y="847" on="0"/>
        <pt x="254" y="815" on="0"/>
        <pt x="254" y="771" on="0"/>
        <pt x="222" y="739" on="0"/>
        <pt x="178" y="739" on="0"/>
      </contour>
      <contour>
        <pt x="353" y="771" on="0"/>
        <pt x="353" y="815" on="0"/>
        <pt x="385" y="847" on="0"/>
        <pt x="429" y="847" on="0"/>
        <pt x="461" y="815" on="0"/>
        <pt x="461" y="771" on="0"/>
        <pt x="429" y="739" on="0"/>
        <pt x="385" y="739" on="0"/>
      </contour>
    </TTGlyph>
    <TTGlyph name="Agrave" xMin="-36" yMin="0" xMax="691" yMax="869">
      <contour>
        <pt x="481" y="12" on="0"/>
        <pt x="512" y="24" on="0"/>
        <pt x="512" y="74" on="0"/>
        <pt x="459" y="219" on="1"/>
        <pt x="154" y="219" on="1"/>
        <pt x="111" y="92" on="0"/>
        <pt x="111" y="27" on="0"/>
        <pt x="144" y="12" on="0"/>
        <pt x="187" y="12" on="1"/>
        <pt x="189" y="0" on="1"/>
        <pt x="-36" y="0" on="1"/>
        <pt x="-34" y="12" on="1"/>
        <pt x="-5" y="12" on="0"/>
        <pt x="28" y="22" on="0"/>
        <pt x="67" y="65" on="0"/>
        <pt x="103" y="147" on="0"/>
        <pt x="128" y="221" on="1"/>
        <pt x="217" y="478" on="1"/>
        <pt x="264" y="614" on="0"/>
        <pt x="264" y="672" on="0"/>
        <pt x="236" y="689" on="0"/>
        <pt x="196" y="689" on="1"/>
        <pt x="194" y="700" on="1"/>
        <pt x="359" y="700" on="1"/>
        <pt x="536" y="221" on="1"/>
        <pt x="581" y="102" on="0"/>
        <pt x="612" y="38" on="0"/>
        <pt x="626" y="29" on="1"/>
        <pt x="651" y="12" on="0"/>
        <pt x="689" y="12" on="1"/>
        <pt x="691" y="0" on="1"/>
        <pt x="441" y="0" on="1"/>
        <pt x="443" y="12" on="1"/>
      </contour>
      <contour>
        <pt x="303" y="646" on="1"/>
        <pt x="162" y="243" on="1"/>
        <pt x="451" y="243" on="1"/>
      </contour>
      <contour>
        <pt x="186" y="850" on="0"/>
        <pt x="209" y="869" on="0"/>
        <pt x="240" y="869" on="0"/>
        <pt x="260" y="856" on="1"/>
        <pt x="423" y="757" on="1"/>
        <pt x="412" y="732" on="1"/>
        <pt x="229" y="788" on="1"/>
        <pt x="186" y="801" on="0"/>
        <pt x="186" y="834" on="1"/>
      </contour>
    </TTGlyph>
    <TTGlyph name="Aring" xMin="-36" yMin="0" xMax="691" yMax="892">
      <contour>
        <pt x="204" y="835" on="0"/>
        <pt x="259" y="892" on="0"/>
        <pt x="348" y="892" on="0"/>
        <pt x="402" y="835" on="0"/>
        <pt x="402" y="761" on="0"/>
        <pt x="368" y="710" on="0"/>
        <pt x="339" y="700" on="1"/>
        <pt x="359" y="700" on="1"/>
        <pt x="536" y="221" on="1"/>
        <pt x="581" y="102" on="0"/>
        <pt x="612" y="38" on="0"/>
        <pt x="626" y="29" on="1"/>
        <pt x="651" y="12" on="0"/>
        <pt x="689" y="12" on="1"/>
        <pt x="691" y="0" on="1"/>
        <pt x="441" y="0" on="1"/>
        <pt x="443" y="12" on="1"/>
        <pt x="481" y="12" on="0"/>
        <pt x="512" y="24" on="0"/>
        <pt x="512" y="74" on="0"/>
        <pt x="459" y="219" on="1"/>
        <pt x="154" y="219" on="1"/>
        <pt x="111" y="92" on="0"/>
        <pt x="111" y="27" on="0"/>
        <pt x="144" y="12" on="0"/>
        <pt x="187" y="12" on="1"/>
        <pt x="189" y="0" on="1"/>
        <pt x="-36" y="0" on="1"/>
        <pt x="-34" y="12" on="1"/>
        <pt x="-5" y="12" on="0"/>
        <pt x="28" y="22" on="0"/>
        <pt x="67" y="65" on="0"/>
        <pt x="103" y="147" on="0"/>
        <pt x="128" y="221" on="1"/>
        <pt x="217" y="478" on="1"/>
        <pt x="264" y="614" on="0"/>
        <pt x="264" y="672" on="0"/>
        <pt x="236" y="689" on="0"/>
        <pt x="196" y="689" on="1"/>
        <pt x="194" y="700" on="1"/>
        <pt x="267" y="700" on="1"/>
        <pt x="238" y="710" on="0"/>
        <pt x="204" y="761" on="0"/>
      </contour>
      <contour>
        <pt x="303" y="646" on="1"/>
        <pt x="162" y="243" on="1"/>
        <pt x="451" y="243" on="1"/>
      </contour>
      <contour>
        <pt x="282" y="732" on="0"/>
        <pt x="324" y="732" on="0"/>
        <pt x="347" y="766" on="0"/>
        <pt x="347" y="818" on="0"/>
        <pt x="323" y="853" on="0"/>
        <pt x="282" y="853" on="0"/>
        <pt x="258" y="818" on="0"/>
        <pt x="258" y="766" on="0"/>
      </contour>
    </TTGlyph>
    <TTGlyph name="Atilde" xMin="-36" yMin="0" xMax="691" yMax="858">
      <contour>
        <pt x="481" y="12" on="0"/>
        <pt x="512" y="24" on="0"/>
        <pt x="512" y="74" on="0"/>
        <pt x="459" y="219" on="1"/>
        <pt x="154" y="219" on="1"/>
        <pt x="111" y="92" on="0"/>
        <pt x="111" y="27" on="0"/>
        <pt x="144" y="12" on="0"/>
        <pt x="187" y="12" on="1"/>
        <pt x="189" y="0" on="1"/>
        <pt x="-36" y="0" on="1"/>
        <pt x="-34" y="12" on="1"/>
        <pt x="-5" y="12" on="0"/>
        <pt x="28" y="22" on="0"/>
        <pt x="67" y="65" on="0"/>
        <pt x="103" y="147" on="0"/>
        <pt x="128" y="221" on="1"/>
        <pt x="217" y="478" on="1"/>
        <pt x="264" y="614" on="0"/>
        <pt x="264" y="672" on="0"/>
        <pt x="236" y="689" on="0"/>
        <pt x="196" y="689" on="1"/>
        <pt x="194" y="700" on="1"/>
        <pt x="359" y="700" on="1"/>
        <pt x="536" y="221" on="1"/>
        <pt x="581" y="102" on="0"/>
        <pt x="612" y="38" on="0"/>
        <pt x="626" y="29" on="1"/>
        <pt x="651" y="12" on="0"/>
        <pt x="689" y="12" on="1"/>
        <pt x="691" y="0" on="1"/>
        <pt x="441" y="0" on="1"/>
        <pt x="443" y="12" on="1"/>
      </contour>
      <contour>
        <pt x="303" y="646" on="1"/>
        <pt x="162" y="243" on="1"/>
        <pt x="451" y="243" on="1"/>
      </contour>
      <contour>
        <pt x="396" y="746" on="1"/>
        <pt x="368" y="746" on="0"/>
        <pt x="281" y="788" on="0"/>
        <pt x="258" y="788" on="1"/>
        <pt x="219" y="788" on="0"/>
        <pt x="201" y="743" on="1"/>
        <pt x="177" y="752" on="1"/>
        <pt x="199" y="855" on="0"/>
        <pt x="259" y="855" on="1"/>
        <pt x="287" y="855" on="0"/>
        <pt x="374" y="813" on="0"/>
        <pt x="397" y="813" on="1"/>
        <pt x="436" y="813" on="0"/>
        <pt x="454" y="858" on="1"/>
        <pt x="478" y="849" on="1"/>
        <pt x="456" y="746" on="0"/>
      </contour>
    </TTGlyph>
    <TTGlyph name="B" xMin="50" yMin="0" xMax="571" yMax="700">
      <contour>
        <pt x="571" y="196" on="1"/>
        <pt x="571" y="96" on="0"/>
        <pt x="418" y="0" on="0"/>
        <pt x="285" y="0" on="1"/>
        <pt x="50" y="0" on="1"/>
        <pt x="52" y="12" on="1"/>
        <pt x="77" y="12" on="0"/>
        <pt x="105" y="16" on="0"/>
        <pt x="130" y="34" on="0"/>
        <pt x="141" y="57" on="0"/>
        <pt x="145" y="84" on="1"/>
        <pt x="150" y="119" on="0"/>
        <pt x="150" y="226" on="1"/>
        <pt x="150" y="474" on="1"/>
        <pt x="150" y="624" on="0"/>
        <pt x="136" y="654" on="1"/>
        <pt x="130" y="666" on="0"/>
        <pt x="105" y="684" on="0"/>
        <pt x="77" y="688" on="0"/>
        <pt x="52" y="688" on="1"/>
        <pt x="50" y="700" on="1"/>
        <pt x="274" y="700" on="1"/>
        <pt x="348" y="700" on="0"/>
        <pt x="424" y="674" on="1"/>
        <pt x="467" y="660" on="0"/>
        <pt x="521" y="591" on="0"/>
        <pt x="521" y="542" on="1"/>
        <pt x="521" y="475" on="0"/>
        <pt x="425" y="399" on="0"/>
        <pt x="358" y="384" on="1"/>
        <pt x="436" y="376" on="0"/>
        <pt x="498" y="336" on="1"/>
        <pt x="531" y="314" on="0"/>
        <pt x="571" y="242" on="0"/>
      </contour>
      <contour>
        <pt x="434" y="542" on="1"/>
        <pt x="434" y="677" on="0"/>
        <pt x="220" y="677" on="1"/>
        <pt x="220" y="391" on="1"/>
        <pt x="229" y="391" on="1"/>
        <pt x="434" y="391" on="0"/>
      </contour>
      <contour>
        <pt x="484" y="196" on="1"/>
        <pt x="484" y="371" on="0"/>
        <pt x="235" y="371" on="1"/>
        <pt x="220" y="371" on="1"/>
        <pt x="220" y="211" on="1"/>
        <pt x="220" y="102" on="0"/>
        <pt x="233" y="35" on="0"/>
        <pt x="259" y="23" on="1"/>
        <pt x="309" y="23" on="0"/>
        <pt x="394" y="47" on="0"/>
        <pt x="445" y="81" on="0"/>
        <pt x="484" y="149" on="0"/>
      </contour>
    </TTGlyph>
    <TTGlyph name="C" xMin="50" yMin="-10" xMax="682" yMax="709">
      <contour>
        <pt x="682" y="77" on="1"/>
        <pt x="567" y="-10" on="0"/>
        <pt x="246" y="-10" on="0"/>
        <pt x="50" y="196" on="0"/>
        <pt x="50" y="504" on="0"/>
        <pt x="239" y="709" on="0"/>
        <pt x="399" y="709" on="1"/>
        <pt x="473" y="709" on="0"/>
        <pt x="621" y="669" on="0"/>
        <pt x="659" y="648" on="1"/>
        <pt x="659" y="520" on="1"/>
        <pt x="648" y="522" on="1"/>
        <pt x="623" y="612" on="0"/>
        <pt x="500" y="686" on="0"/>
        <pt x="399" y="686" on="1"/>
        <pt x="271" y="686" on="0"/>
        <pt x="137" y="501" on="0"/>
        <pt x="137" y="203" on="0"/>
        <pt x="279" y="19" on="0"/>
        <pt x="407" y="19" on="1"/>
        <pt x="499" y="19" on="0"/>
        <pt x="622" y="64" on="0"/>
        <pt x="682" y="107" on="1"/>
      </contour>
    </TTGlyph>
    <TTGlyph name="Ccedilla" xMin="50" yMin="-258" xMax="682" yMax="709">
      <contour>
        <pt x="407" y="-10" on="1"/>
        <pt x="382" y="-9" on="1"/>
        <pt x="363" y="-65" on="1"/>
        <pt x="414" y="-65" on="0"/>
        <pt x="479" y="-112" on="0"/>
        <pt x="479" y="-205" on="0"/>
        <pt x="409" y="-258" on="0"/>
        <pt x="306" y="-258" on="0"/>
        <pt x="273" y="-219" on="1"/>
        <pt x="291" y="-199" on="1"/>
        <pt x="316" y="-224" on="0"/>
        <pt x="383" y="-224" on="0"/>
        <pt x="419" y="-187" on="0"/>
        <pt x="419" y="-161" on="1"/>
        <pt x="419" y="-94" on="0"/>
        <pt x="324" y="-83" on="1"/>
        <pt x="351" y="-6" on="1"/>
        <pt x="214" y="12" on="0"/>
        <pt x="50" y="210" on="0"/>
        <pt x="50" y="504" on="0"/>
        <pt x="239" y="709" on="0"/>
        <pt x="399" y="709" on="1"/>
        <pt x="473" y="709" on="0"/>
        <pt x="621" y="669" on="0"/>
        <pt x="659" y="648" on="1"/>
        <pt x="659" y="520" on="1"/>
        <pt x="648" y="522" on="1"/>
        <pt x="623" y="612" on="0"/>
        <pt x="500" y="686" on="0"/>
        <pt x="399" y="686" on="1"/>
        <pt x="271" y="686" on="0"/>
        <pt x="137" y="501" on="0"/>
        <pt x="137" y="203" on="0"/>
        <pt x="279" y="19" on="0"/>
        <pt x="407" y="19" on="1"/>
        <pt x="499" y="19" on="0"/>
        <pt x="622" y="64" on="0"/>
        <pt x="682" y="107" on="1"/>
        <pt x="682" y="77" on="1"/>
        <pt x="567" y="-10" on="0"/>
      </contour>
    </TTGlyph>
    <TTGlyph name="D" xMin="50" yMin="0" xMax="729" yMax="700">
      <contour>
        <pt x="252" y="700" on="1"/>
        <pt x="424" y="700" on="0"/>
        <pt x="510" y="670" on="1"/>
        <pt x="549" y="656" on="0"/>
        <pt x="637" y="604" on="0"/>
        <pt x="692" y="532" on="0"/>
        <pt x="729" y="420" on="0"/>
        <pt x="729" y="281" on="0"/>
        <pt x="692" y="170" on="0"/>
        <pt x="637" y="98" on="0"/>
        <pt x="556" y="45" on="0"/>
        <pt x="484" y="19" on="0"/>
        <pt x="440" y="11" on="1"/>
        <pt x="381" y="0" on="0"/>
        <pt x="319" y="0" on="1"/>
        <pt x="50" y="0" on="1"/>
        <pt x="52" y="12" on="1"/>
        <pt x="102" y="12" on="0"/>
        <pt x="125" y="31" on="1"/>
        <pt x="150" y="52" on="0"/>
        <pt x="150" y="226" on="1"/>
        <pt x="150" y="474" on="1"/>
        <pt x="150" y="581" on="0"/>
        <pt x="137" y="660" on="0"/>
        <pt x="125" y="670" on="1"/>
        <pt x="102" y="689" on="0"/>
        <pt x="52" y="689" on="1"/>
        <pt x="50" y="700" on="1"/>
      </contour>
      <contour>
        <pt x="257" y="24" on="1"/>
        <pt x="269" y="23" on="0"/>
        <pt x="344" y="23" on="0"/>
        <pt x="433" y="39" on="0"/>
        <pt x="528" y="84" on="0"/>
        <pt x="597" y="154" on="0"/>
        <pt x="642" y="273" on="0"/>
        <pt x="642" y="426" on="0"/>
        <pt x="598" y="544" on="0"/>
        <pt x="528" y="615" on="0"/>
        <pt x="481" y="638" on="1"/>
        <pt x="398" y="677" on="0"/>
        <pt x="298" y="677" on="1"/>
        <pt x="253" y="677" on="0"/>
        <pt x="220" y="671" on="1"/>
        <pt x="220" y="214" on="1"/>
        <pt x="220" y="106" on="0"/>
        <pt x="232" y="36" on="0"/>
      </contour>
    </TTGlyph>
    <TTGlyph name="Delta" xMin="50" yMin="0" xMax="530" yMax="643">
      <contour>
        <pt x="530" y="0" on="1"/>
        <pt x="50" y="0" on="1"/>
        <pt x="257" y="643" on="1"/>
        <pt x="323" y="643" on="1"/>
      </contour>
      <contour>
        <pt x="270" y="582" on="1"/>
        <pt x="99" y="50" on="1"/>
        <pt x="441" y="50" on="1"/>
      </contour>
    </TTGlyph>
    <TTGlyph name="E" xMin="50" yMin="0" xMax="554" yMax="700">
      <contour>
        <pt x="554" y="0" on="1"/>
        <pt x="50" y="0" on="1"/>
        <pt x="52" y="12" on="1"/>
        <pt x="102" y="12" on="0"/>
        <pt x="125" y="31" on="1"/>
        <pt x="150" y="52" on="0"/>
        <pt x="150" y="226" on="1"/>
        <pt x="150" y="474" on="1"/>
        <pt x="150" y="581" on="0"/>
        <pt x="137" y="660" on="0"/>
        <pt x="125" y="670" on="1"/>
        <pt x="102" y="689" on="0"/>
        <pt x="52" y="689" on="1"/>
        <pt x="50" y="700" on="1"/>
        <pt x="517" y="700" on="1"/>
        <pt x="517" y="556" on="1"/>
        <pt x="505" y="558" on="1"/>
        <pt x="505" y="625" on="0"/>
        <pt x="364" y="677" on="0"/>
        <pt x="219" y="677" on="1"/>
        <pt x="219" y="362" on="1"/>
        <pt x="315" y="362" on="0"/>
        <pt x="399" y="382" on="0"/>
        <pt x="423" y="423" on="0"/>
        <pt x="423" y="471" on="1"/>
        <pt x="434" y="473" on="1"/>
        <pt x="434" y="230" on="1"/>
        <pt x="423" y="232" on="1"/>
        <pt x="423" y="281" on="0"/>
        <pt x="399" y="321" on="0"/>
        <pt x="315" y="340" on="0"/>
        <pt x="219" y="340" on="1"/>
        <pt x="219" y="211" on="1"/>
        <pt x="219" y="105" on="0"/>
        <pt x="234" y="35" on="0"/>
        <pt x="260" y="23" on="1"/>
        <pt x="542" y="23" on="0"/>
        <pt x="542" y="143" on="1"/>
        <pt x="554" y="145" on="1"/>
      </contour>
    </TTGlyph>
    <TTGlyph name="Eacute" xMin="50" yMin="0" xMax="554" yMax="869">
      <contour>
        <pt x="554" y="0" on="1"/>
        <pt x="50" y="0" on="1"/>
        <pt x="52" y="12" on="1"/>
        <pt x="102" y="12" on="0"/>
        <pt x="125" y="31" on="1"/>
        <pt x="150" y="52" on="0"/>
        <pt x="150" y="226" on="1"/>
        <pt x="150" y="474" on="1"/>
        <pt x="150" y="581" on="0"/>
        <pt x="137" y="660" on="0"/>
        <pt x="125" y="670" on="1"/>
        <pt x="102" y="689" on="0"/>
        <pt x="52" y="689" on="1"/>
        <pt x="50" y="700" on="1"/>
        <pt x="517" y="700" on="1"/>
        <pt x="517" y="556" on="1"/>
        <pt x="505" y="558" on="1"/>
        <pt x="505" y="625" on="0"/>
        <pt x="364" y="677" on="0"/>
        <pt x="219" y="677" on="1"/>
        <pt x="219" y="362" on="1"/>
        <pt x="315" y="362" on="0"/>
        <pt x="399" y="382" on="0"/>
        <pt x="423" y="423" on="0"/>
        <pt x="423" y="471" on="1"/>
        <pt x="434" y="473" on="1"/>
        <pt x="434" y="230" on="1"/>
        <pt x="423" y="232" on="1"/>
        <pt x="423" y="281" on="0"/>
        <pt x="399" y="321" on="0"/>
        <pt x="315" y="340" on="0"/>
        <pt x="219" y="340" on="1"/>
        <pt x="219" y="211" on="1"/>
        <pt x="219" y="105" on="0"/>
        <pt x="234" y="35" on="0"/>
        <pt x="260" y="23" on="1"/>
        <pt x="542" y="23" on="0"/>
        <pt x="542" y="143" on="1"/>
        <pt x="554" y="145" on="1"/>
      </contour>
      <contour>
        <pt x="372" y="856" on="1"/>
        <pt x="392" y="869" on="0"/>
        <pt x="423" y="869" on="0"/>
        <pt x="446" y="850" on="0"/>
        <pt x="446" y="834" on="1"/>
        <pt x="446" y="801" on="0"/>
        <pt x="403" y="788" on="1"/>
        <pt x="220" y="732" on="1"/>
        <pt x="209" y="757" on="1"/>
      </contour>
    </TTGlyph>
    <TTGlyph name="Ecircumflex" xMin="50" yMin="0" xMax="554" yMax="883">
      <contour>
        <pt x="554" y="0" on="1"/>
        <pt x="50" y="0" on="1"/>
        <pt x="52" y="12" on="1"/>
        <pt x="102" y="12" on="0"/>
        <pt x="125" y="31" on="1"/>
        <pt x="150" y="52" on="0"/>
        <pt x="150" y="226" on="1"/>
        <pt x="150" y="474" on="1"/>
        <pt x="150" y="581" on="0"/>
        <pt x="137" y="660" on="0"/>
        <pt x="125" y="670" on="1"/>
        <pt x="102" y="689" on="0"/>
        <pt x="52" y="689" on="1"/>
        <pt x="50" y="700" on="1"/>
        <pt x="517" y="700" on="1"/>
        <pt x="517" y="556" on="1"/>
        <pt x="505" y="558" on="1"/>
        <pt x="505" y="625" on="0"/>
        <pt x="364" y="677" on="0"/>
        <pt x="219" y="677" on="1"/>
        <pt x="219" y="362" on="1"/>
        <pt x="315" y="362" on="0"/>
        <pt x="399" y="382" on="0"/>
        <pt x="423" y="423" on="0"/>
        <pt x="423" y="471" on="1"/>
        <pt x="434" y="473" on="1"/>
        <pt x="434" y="230" on="1"/>
        <pt x="423" y="232" on="1"/>
        <pt x="423" y="281" on="0"/>
        <pt x="399" y="321" on="0"/>
        <pt x="315" y="340" on="0"/>
        <pt x="219" y="340" on="1"/>
        <pt x="219" y="211" on="1"/>
        <pt x="219" y="105" on="0"/>
        <pt x="234" y="35" on="0"/>
        <pt x="260" y="23" on="1"/>
        <pt x="542" y="23" on="0"/>
        <pt x="542" y="143" on="1"/>
        <pt x="554" y="145" on="1"/>
      </contour>
      <contour>
        <pt x="293" y="883" on="0"/>
        <pt x="323" y="883" on="0"/>
        <pt x="345" y="868" on="0"/>
        <pt x="366" y="845" on="1"/>
        <pt x="446" y="754" on="1"/>
        <pt x="426" y="732" on="1"/>
        <pt x="308" y="809" on="1"/>
        <pt x="190" y="732" on="1"/>
        <pt x="170" y="754" on="1"/>
        <pt x="250" y="845" on="1"/>
        <pt x="271" y="868" on="0"/>
      </contour>
    </TTGlyph>
    <TTGlyph name="Edieresis" xMin="50" yMin="0" xMax="554" yMax="847">
      <contour>
        <pt x="554" y="0" on="1"/>
        <pt x="50" y="0" on="1"/>
        <pt x="52" y="12" on="1"/>
        <pt x="102" y="12" on="0"/>
        <pt x="125" y="31" on="1"/>
        <pt x="150" y="52" on="0"/>
        <pt x="150" y="226" on="1"/>
        <pt x="150" y="474" on="1"/>
        <pt x="150" y="581" on="0"/>
        <pt x="137" y="660" on="0"/>
        <pt x="125" y="670" on="1"/>
        <pt x="102" y="689" on="0"/>
        <pt x="52" y="689" on="1"/>
        <pt x="50" y="700" on="1"/>
        <pt x="517" y="700" on="1"/>
        <pt x="517" y="556" on="1"/>
        <pt x="505" y="558" on="1"/>
        <pt x="505" y="625" on="0"/>
        <pt x="364" y="677" on="0"/>
        <pt x="219" y="677" on="1"/>
        <pt x="219" y="362" on="1"/>
        <pt x="315" y="362" on="0"/>
        <pt x="399" y="382" on="0"/>
        <pt x="423" y="423" on="0"/>
        <pt x="423" y="471" on="1"/>
        <pt x="434" y="473" on="1"/>
        <pt x="434" y="230" on="1"/>
        <pt x="423" y="232" on="1"/>
        <pt x="423" y="281" on="0"/>
        <pt x="399" y="321" on="0"/>
        <pt x="315" y="340" on="0"/>
        <pt x="219" y="340" on="1"/>
        <pt x="219" y="211" on="1"/>
        <pt x="219" y="105" on="0"/>
        <pt x="234" y="35" on="0"/>
        <pt x="260" y="23" on="1"/>
        <pt x="542" y="23" on="0"/>
        <pt x="542" y="143" on="1"/>
        <pt x="554" y="145" on="1"/>
      </contour>
      <contour>
        <pt x="150" y="771" on="0"/>
        <pt x="150" y="815" on="0"/>
        <pt x="182" y="847" on="0"/>
        <pt x="226" y="847" on="0"/>
        <pt x="258" y="815" on="0"/>
        <pt x="258" y="771" on="0"/>
        <pt x="226" y="739" on="0"/>
        <pt x="182" y="739" on="0"/>
      </contour>
      <contour>
        <pt x="357" y="771" on="0"/>
        <pt x="357" y="815" on="0"/>
        <pt x="389" y="847" on="0"/>
        <pt x="433" y="847" on="0"/>
        <pt x="465" y="815" on="0"/>
        <pt x="465" y="771" on="0"/>
        <pt x="433" y="739" on="0"/>
        <pt x="389" y="739" on="0"/>
      </contour>
    </TTGlyph>
    <TTGlyph name="Egrave" xMin="50" yMin="0" xMax="554" yMax="869">
      <contour>
        <pt x="554" y="0" on="1"/>
        <pt x="50" y="0" on="1"/>
        <pt x="52" y="12" on="1"/>
        <pt x="102" y="12" on="0"/>
        <pt x="125" y="31" on="1"/>
        <pt x="150" y="52" on="0"/>
        <pt x="150" y="226" on="1"/>
        <pt x="150" y="474" on="1"/>
        <pt x="150" y="581" on="0"/>
        <pt x="137" y="660" on="0"/>
        <pt x="125" y="670" on="1"/>
        <pt x="102" y="689" on="0"/>
        <pt x="52" y="689" on="1"/>
        <pt x="50" y="700" on="1"/>
        <pt x="517" y="700" on="1"/>
        <pt x="517" y="556" on="1"/>
        <pt x="505" y="558" on="1"/>
        <pt x="505" y="625" on="0"/>
        <pt x="364" y="677" on="0"/>
        <pt x="219" y="677" on="1"/>
        <pt x="219" y="362" on="1"/>
        <pt x="315" y="362" on="0"/>
        <pt x="399" y="382" on="0"/>
        <pt x="423" y="423" on="0"/>
        <pt x="423" y="471" on="1"/>
        <pt x="434" y="473" on="1"/>
        <pt x="434" y="230" on="1"/>
        <pt x="423" y="232" on="1"/>
        <pt x="423" y="281" on="0"/>
        <pt x="399" y="321" on="0"/>
        <pt x="315" y="340" on="0"/>
        <pt x="219" y="340" on="1"/>
        <pt x="219" y="211" on="1"/>
        <pt x="219" y="105" on="0"/>
        <pt x="234" y="35" on="0"/>
        <pt x="260" y="23" on="1"/>
        <pt x="542" y="23" on="0"/>
        <pt x="542" y="143" on="1"/>
        <pt x="554" y="145" on="1"/>
      </contour>
      <contour>
        <pt x="189" y="850" on="0"/>
        <pt x="212" y="869" on="0"/>
        <pt x="243" y="869" on="0"/>
        <pt x="263" y="856" on="1"/>
        <pt x="426" y="757" on="1"/>
        <pt x="415" y="732" on="1"/>
        <pt x="232" y="788" on="1"/>
        <pt x="189" y="801" on="0"/>
        <pt x="189" y="834" on="1"/>
      </contour>
    </TTGlyph>
    <TTGlyph name="Eth" xMin="50" yMin="0" xMax="729" yMax="700">
      <contour>
        <pt x="50" y="326" on="1"/>
        <pt x="50" y="376" on="1"/>
        <pt x="150" y="376" on="1"/>
        <pt x="150" y="474" on="1"/>
        <pt x="150" y="581" on="0"/>
        <pt x="137" y="660" on="0"/>
        <pt x="125" y="670" on="1"/>
        <pt x="102" y="689" on="0"/>
        <pt x="52" y="689" on="1"/>
        <pt x="50" y="700" on="1"/>
        <pt x="252" y="700" on="1"/>
        <pt x="424" y="700" on="0"/>
        <pt x="510" y="670" on="1"/>
        <pt x="549" y="656" on="0"/>
        <pt x="637" y="604" on="0"/>
        <pt x="692" y="532" on="0"/>
        <pt x="729" y="420" on="0"/>
        <pt x="729" y="281" on="0"/>
        <pt x="692" y="170" on="0"/>
        <pt x="637" y="98" on="0"/>
        <pt x="556" y="45" on="0"/>
        <pt x="484" y="19" on="0"/>
        <pt x="440" y="11" on="1"/>
        <pt x="381" y="0" on="0"/>
        <pt x="319" y="0" on="1"/>
        <pt x="50" y="0" on="1"/>
        <pt x="52" y="12" on="1"/>
        <pt x="102" y="12" on="0"/>
        <pt x="125" y="31" on="1"/>
        <pt x="150" y="52" on="0"/>
        <pt x="150" y="226" on="1"/>
        <pt x="150" y="326" on="1"/>
      </contour>
      <contour>
        <pt x="257" y="24" on="1"/>
        <pt x="269" y="23" on="0"/>
        <pt x="344" y="23" on="0"/>
        <pt x="433" y="39" on="0"/>
        <pt x="528" y="84" on="0"/>
        <pt x="597" y="154" on="0"/>
        <pt x="642" y="273" on="0"/>
        <pt x="642" y="426" on="0"/>
        <pt x="598" y="544" on="0"/>
        <pt x="528" y="615" on="0"/>
        <pt x="481" y="638" on="1"/>
        <pt x="398" y="677" on="0"/>
        <pt x="298" y="677" on="1"/>
        <pt x="253" y="677" on="0"/>
        <pt x="220" y="671" on="1"/>
        <pt x="220" y="376" on="1"/>
        <pt x="390" y="376" on="1"/>
        <pt x="390" y="326" on="1"/>
        <pt x="220" y="326" on="1"/>
        <pt x="220" y="214" on="1"/>
        <pt x="220" y="106" on="0"/>
        <pt x="232" y="36" on="0"/>
      </contour>
    </TTGlyph>
    <TTGlyph name="Euro" xMin="19" yMin="-10" xMax="512" yMax="653">
      <contour>
        <pt x="19" y="369" on="1"/>
        <pt x="19" y="407" on="1"/>
        <pt x="101" y="407" on="1"/>
        <pt x="119" y="517" on="0"/>
        <pt x="238" y="653" on="0"/>
        <pt x="423" y="653" on="0"/>
        <pt x="497" y="615" on="1"/>
        <pt x="497" y="547" on="0"/>
        <pt x="483" y="457" on="1"/>
        <pt x="470" y="460" on="1"/>
        <pt x="470" y="545" on="0"/>
        <pt x="385" y="627" on="0"/>
        <pt x="263" y="627" on="0"/>
        <pt x="183" y="510" on="0"/>
        <pt x="171" y="407" on="1"/>
        <pt x="389" y="407" on="1"/>
        <pt x="389" y="369" on="1"/>
        <pt x="168" y="369" on="1"/>
        <pt x="167" y="354" on="0"/>
        <pt x="167" y="301" on="0"/>
        <pt x="169" y="267" on="1"/>
        <pt x="389" y="267" on="1"/>
        <pt x="389" y="229" on="1"/>
        <pt x="173" y="229" on="1"/>
        <pt x="187" y="132" on="0"/>
        <pt x="272" y="19" on="0"/>
        <pt x="338" y="19" on="1"/>
        <pt x="378" y="19" on="0"/>
        <pt x="444" y="43" on="0"/>
        <pt x="477" y="68" on="0"/>
        <pt x="499" y="90" on="1"/>
        <pt x="512" y="77" on="1"/>
        <pt x="434" y="-10" on="0"/>
        <pt x="324" y="-10" on="1"/>
        <pt x="234" y="-10" on="0"/>
        <pt x="119" y="121" on="0"/>
        <pt x="102" y="229" on="1"/>
        <pt x="19" y="229" on="1"/>
        <pt x="19" y="267" on="1"/>
        <pt x="97" y="267" on="1"/>
        <pt x="95" y="303" on="0"/>
        <pt x="95" y="353" on="0"/>
        <pt x="97" y="369" on="1"/>
      </contour>
    </TTGlyph>
    <TTGlyph name="F" xMin="50" yMin="0" xMax="517" yMax="700">
      <contour>
        <pt x="517" y="700" on="1"/>
        <pt x="517" y="556" on="1"/>
        <pt x="506" y="558" on="1"/>
        <pt x="506" y="624" on="0"/>
        <pt x="365" y="677" on="0"/>
        <pt x="221" y="677" on="1"/>
        <pt x="221" y="362" on="1"/>
        <pt x="279" y="364" on="0"/>
        <pt x="344" y="373" on="0"/>
        <pt x="378" y="402" on="0"/>
        <pt x="386" y="436" on="0"/>
        <pt x="386" y="471" on="1"/>
        <pt x="398" y="473" on="1"/>
        <pt x="398" y="230" on="1"/>
        <pt x="386" y="232" on="1"/>
        <pt x="386" y="278" on="0"/>
        <pt x="367" y="318" on="0"/>
        <pt x="298" y="338" on="0"/>
        <pt x="221" y="340" on="1"/>
        <pt x="221" y="226" on="1"/>
        <pt x="221" y="84" on="0"/>
        <pt x="234" y="60" on="1"/>
        <pt x="240" y="47" on="0"/>
        <pt x="255" y="24" on="0"/>
        <pt x="270" y="20" on="1"/>
        <pt x="302" y="12" on="0"/>
        <pt x="348" y="12" on="1"/>
        <pt x="350" y="0" on="1"/>
        <pt x="50" y="0" on="1"/>
        <pt x="52" y="12" on="1"/>
        <pt x="102" y="12" on="0"/>
        <pt x="125" y="31" on="1"/>
        <pt x="150" y="52" on="0"/>
        <pt x="150" y="226" on="1"/>
        <pt x="150" y="474" on="1"/>
        <pt x="150" y="581" on="0"/>
        <pt x="137" y="660" on="0"/>
        <pt x="125" y="670" on="1"/>
        <pt x="102" y="689" on="0"/>
        <pt x="52" y="689" on="1"/>
        <pt x="50" y="700" on="1"/>
      </contour>
    </TTGlyph>
    <TTGlyph name="G" xMin="50" yMin="-10" xMax="757" yMax="709">
      <contour>
        <pt x="669" y="187" on="1"/>
        <pt x="669" y="63" on="1"/>
        <pt x="619" y="32" on="0"/>
        <pt x="478" y="-10" on="0"/>
        <pt x="405" y="-10" on="1"/>
        <pt x="246" y="-10" on="0"/>
        <pt x="50" y="196" on="0"/>
        <pt x="50" y="504" on="0"/>
        <pt x="239" y="709" on="0"/>
        <pt x="399" y="709" on="1"/>
        <pt x="469" y="709" on="0"/>
        <pt x="611" y="670" on="0"/>
        <pt x="645" y="648" on="1"/>
        <pt x="645" y="520" on="1"/>
        <pt x="634" y="522" on="1"/>
        <pt x="623" y="602" on="0"/>
        <pt x="489" y="686" on="0"/>
        <pt x="399" y="686" on="1"/>
        <pt x="271" y="686" on="0"/>
        <pt x="137" y="502" on="0"/>
        <pt x="137" y="199" on="0"/>
        <pt x="277" y="13" on="0"/>
        <pt x="544" y="13" on="0"/>
        <pt x="599" y="97" on="1"/>
        <pt x="599" y="175" on="1"/>
        <pt x="599" y="286" on="0"/>
        <pt x="574" y="337" on="0"/>
        <pt x="514" y="337" on="1"/>
        <pt x="512" y="347" on="1"/>
        <pt x="757" y="347" on="1"/>
        <pt x="755" y="337" on="1"/>
        <pt x="698" y="337" on="0"/>
        <pt x="669" y="283" on="0"/>
      </contour>
    </TTGlyph>
    <TTGlyph name="H" xMin="50" yMin="0" xMax="794" yMax="700">
      <contour>
        <pt x="695" y="474" on="1"/>
        <pt x="695" y="226" on="1"/>
        <pt x="695" y="76" on="0"/>
        <pt x="710" y="46" on="1"/>
        <pt x="715" y="34" on="0"/>
        <pt x="739" y="16" on="0"/>
        <pt x="768" y="12" on="0"/>
        <pt x="792" y="12" on="1"/>
        <pt x="794" y="0" on="1"/>
        <pt x="524" y="0" on="1"/>
        <pt x="526" y="12" on="1"/>
        <pt x="551" y="12" on="0"/>
        <pt x="580" y="16" on="0"/>
        <pt x="605" y="34" on="0"/>
        <pt x="616" y="57" on="0"/>
        <pt x="620" y="84" on="1"/>
        <pt x="625" y="119" on="0"/>
        <pt x="625" y="226" on="1"/>
        <pt x="625" y="336" on="1"/>
        <pt x="220" y="336" on="1"/>
        <pt x="220" y="226" on="1"/>
        <pt x="220" y="119" on="0"/>
        <pt x="233" y="41" on="0"/>
        <pt x="245" y="31" on="1"/>
        <pt x="268" y="12" on="0"/>
        <pt x="318" y="12" on="1"/>
        <pt x="320" y="0" on="1"/>
        <pt x="50" y="0" on="1"/>
        <pt x="52" y="12" on="1"/>
        <pt x="77" y="12" on="0"/>
        <pt x="105" y="16" on="0"/>
        <pt x="130" y="34" on="0"/>
        <pt x="141" y="57" on="0"/>
        <pt x="145" y="84" on="1"/>
        <pt x="150" y="119" on="0"/>
        <pt x="150" y="226" on="1"/>
        <pt x="150" y="474" on="1"/>
        <pt x="150" y="578" on="0"/>
        <pt x="138" y="660" on="0"/>
        <pt x="126" y="670" on="1"/>
        <pt x="102" y="689" on="0"/>
        <pt x="52" y="689" on="1"/>
        <pt x="50" y="700" on="1"/>
        <pt x="320" y="700" on="1"/>
        <pt x="318" y="689" on="1"/>
        <pt x="268" y="689" on="0"/>
        <pt x="245" y="670" on="1"/>
        <pt x="220" y="649" on="0"/>
        <pt x="220" y="474" on="1"/>
        <pt x="220" y="362" on="1"/>
        <pt x="625" y="362" on="1"/>
        <pt x="625" y="474" on="1"/>
        <pt x="625" y="623" on="0"/>
        <pt x="610" y="655" on="1"/>
        <pt x="605" y="667" on="0"/>
        <pt x="580" y="685" on="0"/>
        <pt x="551" y="689" on="0"/>
        <pt x="526" y="689" on="1"/>
        <pt x="524" y="700" on="1"/>
        <pt x="794" y="700" on="1"/>
        <pt x="792" y="689" on="1"/>
        <pt x="768" y="689" on="0"/>
        <pt x="739" y="685" on="0"/>
        <pt x="715" y="667" on="0"/>
        <pt x="704" y="643" on="0"/>
        <pt x="700" y="616" on="1"/>
        <pt x="695" y="572" on="0"/>
      </contour>
    </TTGlyph>
    <TTGlyph name="I" xMin="50" yMin="0" xMax="320" yMax="700">
      <contour>
        <pt x="220" y="474" on="1"/>
        <pt x="220" y="226" on="1"/>
        <pt x="220" y="119" on="0"/>
        <pt x="233" y="41" on="0"/>
        <pt x="245" y="31" on="1"/>
        <pt x="268" y="12" on="0"/>
        <pt x="318" y="12" on="1"/>
        <pt x="320" y="0" on="1"/>
        <pt x="50" y="0" on="1"/>
        <pt x="52" y="12" on="1"/>
        <pt x="77" y="12" on="0"/>
        <pt x="105" y="16" on="0"/>
        <pt x="130" y="34" on="0"/>
        <pt x="141" y="57" on="0"/>
        <pt x="145" y="84" on="1"/>
        <pt x="150" y="119" on="0"/>
        <pt x="150" y="226" on="1"/>
        <pt x="150" y="474" on="1"/>
        <pt x="150" y="578" on="0"/>
        <pt x="138" y="660" on="0"/>
        <pt x="126" y="670" on="1"/>
        <pt x="102" y="689" on="0"/>
        <pt x="52" y="689" on="1"/>
        <pt x="50" y="700" on="1"/>
        <pt x="320" y="700" on="1"/>
        <pt x="318" y="689" on="1"/>
        <pt x="268" y="689" on="0"/>
        <pt x="245" y="670" on="1"/>
        <pt x="220" y="649" on="0"/>
      </contour>
    </TTGlyph>
    <TTGlyph name="Iacute" xMin="50" yMin="0" xMax="320" yMax="869">
      <contour>
        <pt x="220" y="474" on="1"/>
        <pt x="220" y="226" on="1"/>
        <pt x="220" y="119" on="0"/>
        <pt x="233" y="41" on="0"/>
        <pt x="245" y="31" on="1"/>
        <pt x="268" y="12" on="0"/>
        <pt x="318" y="12" on="1"/>
        <pt x="320" y="0" on="1"/>
        <pt x="50" y="0" on="1"/>
        <pt x="52" y="12" on="1"/>
        <pt x="77" y="12" on="0"/>
        <pt x="105" y="16" on="0"/>
        <pt x="130" y="34" on="0"/>
        <pt x="141" y="57" on="0"/>
        <pt x="145" y="84" on="1"/>
        <pt x="150" y="119" on="0"/>
        <pt x="150" y="226" on="1"/>
        <pt x="150" y="474" on="1"/>
        <pt x="150" y="578" on="0"/>
        <pt x="138" y="660" on="0"/>
        <pt x="126" y="670" on="1"/>
        <pt x="102" y="689" on="0"/>
        <pt x="52" y="689" on="1"/>
        <pt x="50" y="700" on="1"/>
        <pt x="320" y="700" on="1"/>
        <pt x="318" y="689" on="1"/>
        <pt x="268" y="689" on="0"/>
        <pt x="245" y="670" on="1"/>
        <pt x="220" y="649" on="0"/>
      </contour>
      <contour>
        <pt x="229" y="856" on="1"/>
        <pt x="249" y="869" on="0"/>
        <pt x="280" y="869" on="0"/>
        <pt x="303" y="850" on="0"/>
        <pt x="303" y="834" on="1"/>
        <pt x="303" y="801" on="0"/>
        <pt x="260" y="788" on="1"/>
        <pt x="77" y="732" on="1"/>
        <pt x="66" y="757" on="1"/>
      </contour>
    </TTGlyph>
    <TTGlyph name="Icircumflex" xMin="47" yMin="0" xMax="323" yMax="883">
      <contour>
        <pt x="220" y="474" on="1"/>
        <pt x="220" y="226" on="1"/>
        <pt x="220" y="119" on="0"/>
        <pt x="233" y="41" on="0"/>
        <pt x="245" y="31" on="1"/>
        <pt x="268" y="12" on="0"/>
        <pt x="318" y="12" on="1"/>
        <pt x="320" y="0" on="1"/>
        <pt x="50" y="0" on="1"/>
        <pt x="52" y="12" on="1"/>
        <pt x="77" y="12" on="0"/>
        <pt x="105" y="16" on="0"/>
        <pt x="130" y="34" on="0"/>
        <pt x="141" y="57" on="0"/>
        <pt x="145" y="84" on="1"/>
        <pt x="150" y="119" on="0"/>
        <pt x="150" y="226" on="1"/>
        <pt x="150" y="474" on="1"/>
        <pt x="150" y="578" on="0"/>
        <pt x="138" y="660" on="0"/>
        <pt x="126" y="670" on="1"/>
        <pt x="102" y="689" on="0"/>
        <pt x="52" y="689" on="1"/>
        <pt x="50" y="700" on="1"/>
        <pt x="320" y="700" on="1"/>
        <pt x="318" y="689" on="1"/>
        <pt x="268" y="689" on="0"/>
        <pt x="245" y="670" on="1"/>
        <pt x="220" y="649" on="0"/>
      </contour>
      <contour>
        <pt x="170" y="883" on="0"/>
        <pt x="200" y="883" on="0"/>
        <pt x="222" y="868" on="0"/>
        <pt x="243" y="845" on="1"/>
        <pt x="323" y="754" on="1"/>
        <pt x="303" y="732" on="1"/>
        <pt x="185" y="809" on="1"/>
        <pt x="67" y="732" on="1"/>
        <pt x="47" y="754" on="1"/>
        <pt x="127" y="845" on="1"/>
        <pt x="148" y="868" on="0"/>
      </contour>
    </TTGlyph>
    <TTGlyph name="Idieresis" xMin="28" yMin="0" xMax="343" yMax="847">
      <contour>
        <pt x="220" y="474" on="1"/>
        <pt x="220" y="226" on="1"/>
        <pt x="220" y="119" on="0"/>
        <pt x="233" y="41" on="0"/>
        <pt x="245" y="31" on="1"/>
        <pt x="268" y="12" on="0"/>
        <pt x="318" y="12" on="1"/>
        <pt x="320" y="0" on="1"/>
        <pt x="50" y="0" on="1"/>
        <pt x="52" y="12" on="1"/>
        <pt x="77" y="12" on="0"/>
        <pt x="105" y="16" on="0"/>
        <pt x="130" y="34" on="0"/>
        <pt x="141" y="57" on="0"/>
        <pt x="145" y="84" on="1"/>
        <pt x="150" y="119" on="0"/>
        <pt x="150" y="226" on="1"/>
        <pt x="150" y="474" on="1"/>
        <pt x="150" y="578" on="0"/>
        <pt x="138" y="660" on="0"/>
        <pt x="126" y="670" on="1"/>
        <pt x="102" y="689" on="0"/>
        <pt x="52" y="689" on="1"/>
        <pt x="50" y="700" on="1"/>
        <pt x="320" y="700" on="1"/>
        <pt x="318" y="689" on="1"/>
        <pt x="268" y="689" on="0"/>
        <pt x="245" y="670" on="1"/>
        <pt x="220" y="649" on="0"/>
      </contour>
      <contour>
        <pt x="28" y="771" on="0"/>
        <pt x="28" y="815" on="0"/>
        <pt x="60" y="847" on="0"/>
        <pt x="104" y="847" on="0"/>
        <pt x="136" y="815" on="0"/>
        <pt x="136" y="771" on="0"/>
        <pt x="104" y="739" on="0"/>
        <pt x="60" y="739" on="0"/>
      </contour>
      <contour>
        <pt x="235" y="771" on="0"/>
        <pt x="235" y="815" on="0"/>
        <pt x="267" y="847" on="0"/>
        <pt x="311" y="847" on="0"/>
        <pt x="343" y="815" on="0"/>
        <pt x="343" y="771" on="0"/>
        <pt x="311" y="739" on="0"/>
        <pt x="267" y="739" on="0"/>
      </contour>
    </TTGlyph>
    <TTGlyph name="Igrave" xMin="50" yMin="0" xMax="320" yMax="869">
      <contour>
        <pt x="220" y="474" on="1"/>
        <pt x="220" y="226" on="1"/>
        <pt x="220" y="119" on="0"/>
        <pt x="233" y="41" on="0"/>
        <pt x="245" y="31" on="1"/>
        <pt x="268" y="12" on="0"/>
        <pt x="318" y="12" on="1"/>
        <pt x="320" y="0" on="1"/>
        <pt x="50" y="0" on="1"/>
        <pt x="52" y="12" on="1"/>
        <pt x="77" y="12" on="0"/>
        <pt x="105" y="16" on="0"/>
        <pt x="130" y="34" on="0"/>
        <pt x="141" y="57" on="0"/>
        <pt x="145" y="84" on="1"/>
        <pt x="150" y="119" on="0"/>
        <pt x="150" y="226" on="1"/>
        <pt x="150" y="474" on="1"/>
        <pt x="150" y="578" on="0"/>
        <pt x="138" y="660" on="0"/>
        <pt x="126" y="670" on="1"/>
        <pt x="102" y="689" on="0"/>
        <pt x="52" y="689" on="1"/>
        <pt x="50" y="700" on="1"/>
        <pt x="320" y="700" on="1"/>
        <pt x="318" y="689" on="1"/>
        <pt x="268" y="689" on="0"/>
        <pt x="245" y="670" on="1"/>
        <pt x="220" y="649" on="0"/>
      </contour>
      <contour>
        <pt x="66" y="850" on="0"/>
        <pt x="89" y="869" on="0"/>
        <pt x="120" y="869" on="0"/>
        <pt x="140" y="856" on="1"/>
        <pt x="303" y="757" on="1"/>
        <pt x="292" y="732" on="1"/>
        <pt x="109" y="788" on="1"/>
        <pt x="66" y="801" on="0"/>
        <pt x="66" y="834" on="1"/>
      </contour>
    </TTGlyph>
    <TTGlyph name="J" xMin="0" yMin="-10" xMax="429" yMax="700">
      <contour>
        <pt x="152" y="-10" on="1"/>
        <pt x="89" y="-10" on="0"/>
        <pt x="0" y="65" on="0"/>
        <pt x="0" y="104" on="1"/>
        <pt x="0" y="123" on="0"/>
        <pt x="22" y="147" on="0"/>
        <pt x="64" y="147" on="0"/>
        <pt x="84" y="105" on="0"/>
        <pt x="86" y="55" on="0"/>
        <pt x="119" y="13" on="0"/>
        <pt x="156" y="13" on="1"/>
        <pt x="259" y="13" on="0"/>
        <pt x="259" y="172" on="1"/>
        <pt x="259" y="474" on="1"/>
        <pt x="259" y="623" on="0"/>
        <pt x="244" y="655" on="1"/>
        <pt x="232" y="683" on="0"/>
        <pt x="200" y="687" on="1"/>
        <pt x="186" y="689" on="0"/>
        <pt x="162" y="689" on="1"/>
        <pt x="160" y="700" on="1"/>
        <pt x="429" y="700" on="1"/>
        <pt x="427" y="689" on="1"/>
        <pt x="377" y="689" on="0"/>
        <pt x="354" y="670" on="1"/>
        <pt x="329" y="649" on="0"/>
        <pt x="329" y="474" on="1"/>
        <pt x="329" y="219" on="1"/>
        <pt x="329" y="159" on="0"/>
        <pt x="305" y="71" on="0"/>
        <pt x="272" y="24" on="0"/>
        <pt x="220" y="-3" on="0"/>
        <pt x="179" y="-10" on="0"/>
      </contour>
    </TTGlyph>
    <TTGlyph name="J.alt" xMin="-139" yMin="-274" xMax="320" yMax="700">
      <contour>
        <pt x="220" y="474" on="1"/>
        <pt x="220" y="-20" on="1"/>
        <pt x="220" y="-274" on="0"/>
        <pt x="-3" y="-274" on="1"/>
        <pt x="-139" y="-274" on="0"/>
        <pt x="-139" y="-208" on="1"/>
        <pt x="-139" y="-193" on="0"/>
        <pt x="-116" y="-171" on="0"/>
        <pt x="-82" y="-171" on="0"/>
        <pt x="-60" y="-187" on="0"/>
        <pt x="-48" y="-210" on="0"/>
        <pt x="-42" y="-222" on="1"/>
        <pt x="-26" y="-249" on="0"/>
        <pt x="11" y="-249" on="1"/>
        <pt x="83" y="-249" on="0"/>
        <pt x="150" y="-147" on="0"/>
        <pt x="150" y="-10" on="1"/>
        <pt x="150" y="474" on="1"/>
        <pt x="150" y="623" on="0"/>
        <pt x="136" y="655" on="1"/>
        <pt x="123" y="683" on="0"/>
        <pt x="92" y="687" on="1"/>
        <pt x="77" y="689" on="0"/>
        <pt x="53" y="689" on="1"/>
        <pt x="51" y="700" on="1"/>
        <pt x="320" y="700" on="1"/>
        <pt x="318" y="689" on="1"/>
        <pt x="268" y="689" on="0"/>
        <pt x="245" y="670" on="1"/>
        <pt x="220" y="649" on="0"/>
      </contour>
    </TTGlyph>
    <TTGlyph name="K" xMin="50" yMin="0" xMax="723" yMax="700">
      <contour>
        <pt x="584" y="0" on="1"/>
        <pt x="533" y="0" on="0"/>
        <pt x="456" y="119" on="1"/>
        <pt x="423" y="169" on="0"/>
        <pt x="352" y="269" on="0"/>
        <pt x="264" y="341" on="0"/>
        <pt x="220" y="342" on="1"/>
        <pt x="220" y="226" on="1"/>
        <pt x="220" y="76" on="0"/>
        <pt x="234" y="46" on="1"/>
        <pt x="240" y="34" on="0"/>
        <pt x="264" y="16" on="0"/>
        <pt x="293" y="12" on="0"/>
        <pt x="317" y="12" on="1"/>
        <pt x="319" y="0" on="1"/>
        <pt x="50" y="0" on="1"/>
        <pt x="52" y="12" on="1"/>
        <pt x="102" y="12" on="0"/>
        <pt x="125" y="31" on="1"/>
        <pt x="150" y="52" on="0"/>
        <pt x="150" y="226" on="1"/>
        <pt x="150" y="474" on="1"/>
        <pt x="150" y="581" on="0"/>
        <pt x="137" y="660" on="0"/>
        <pt x="125" y="670" on="1"/>
        <pt x="102" y="689" on="0"/>
        <pt x="52" y="689" on="1"/>
        <pt x="50" y="700" on="1"/>
        <pt x="319" y="700" on="1"/>
        <pt x="317" y="689" on="1"/>
        <pt x="293" y="689" on="0"/>
        <pt x="264" y="685" on="0"/>
        <pt x="240" y="667" on="0"/>
        <pt x="229" y="643" on="0"/>
        <pt x="226" y="616" on="1"/>
        <pt x="220" y="572" on="0"/>
        <pt x="220" y="474" on="1"/>
        <pt x="220" y="360" on="1"/>
        <pt x="263" y="367" on="0"/>
        <pt x="382" y="466" on="0"/>
        <pt x="472" y="603" on="0"/>
        <pt x="472" y="656" on="1"/>
        <pt x="472" y="673" on="0"/>
        <pt x="451" y="689" on="0"/>
        <pt x="423" y="689" on="1"/>
        <pt x="421" y="700" on="1"/>
        <pt x="669" y="700" on="1"/>
        <pt x="667" y="689" on="1"/>
        <pt x="562" y="689" on="0"/>
        <pt x="510" y="616" on="1"/>
        <pt x="485" y="580" on="0"/>
        <pt x="439" y="501" on="0"/>
        <pt x="346" y="398" on="0"/>
        <pt x="282" y="357" on="1"/>
        <pt x="379" y="351" on="0"/>
        <pt x="440" y="282" on="1"/>
        <pt x="477" y="242" on="0"/>
        <pt x="562" y="108" on="0"/>
        <pt x="586" y="78" on="1"/>
        <pt x="642" y="12" on="0"/>
        <pt x="721" y="12" on="1"/>
        <pt x="723" y="0" on="1"/>
      </contour>
    </TTGlyph>
    <TTGlyph name="L" xMin="51" yMin="0" xMax="529" yMax="700">
      <contour>
        <pt x="529" y="0" on="1"/>
        <pt x="51" y="0" on="1"/>
        <pt x="53" y="12" on="1"/>
        <pt x="77" y="12" on="0"/>
        <pt x="106" y="16" on="0"/>
        <pt x="130" y="34" on="0"/>
        <pt x="141" y="57" on="0"/>
        <pt x="145" y="84" on="1"/>
        <pt x="150" y="119" on="0"/>
        <pt x="150" y="226" on="1"/>
        <pt x="150" y="474" on="1"/>
        <pt x="150" y="623" on="0"/>
        <pt x="136" y="655" on="1"/>
        <pt x="123" y="683" on="0"/>
        <pt x="92" y="687" on="1"/>
        <pt x="77" y="689" on="0"/>
        <pt x="53" y="689" on="1"/>
        <pt x="51" y="700" on="1"/>
        <pt x="320" y="700" on="1"/>
        <pt x="318" y="689" on="1"/>
        <pt x="268" y="689" on="0"/>
        <pt x="245" y="670" on="1"/>
        <pt x="220" y="649" on="0"/>
        <pt x="220" y="474" on="1"/>
        <pt x="220" y="211" on="1"/>
        <pt x="220" y="103" on="0"/>
        <pt x="234" y="32" on="0"/>
        <pt x="260" y="20" on="1"/>
        <pt x="518" y="20" on="0"/>
        <pt x="518" y="143" on="1"/>
        <pt x="529" y="145" on="1"/>
      </contour>
    </TTGlyph>
    <TTGlyph name="Lslash" xMin="37" yMin="0" xMax="529" yMax="700">
      <contour>
        <pt x="150" y="474" on="1"/>
        <pt x="150" y="623" on="0"/>
        <pt x="136" y="655" on="1"/>
        <pt x="123" y="683" on="0"/>
        <pt x="92" y="687" on="1"/>
        <pt x="77" y="689" on="0"/>
        <pt x="53" y="689" on="1"/>
        <pt x="51" y="700" on="1"/>
        <pt x="320" y="700" on="1"/>
        <pt x="318" y="689" on="1"/>
        <pt x="268" y="689" on="0"/>
        <pt x="245" y="670" on="1"/>
        <pt x="220" y="649" on="0"/>
        <pt x="220" y="474" on="1"/>
        <pt x="220" y="432" on="1"/>
        <pt x="319" y="483" on="1"/>
        <pt x="336" y="450" on="1"/>
        <pt x="220" y="391" on="1"/>
        <pt x="220" y="211" on="1"/>
        <pt x="220" y="103" on="0"/>
        <pt x="234" y="32" on="0"/>
        <pt x="260" y="20" on="1"/>
        <pt x="518" y="20" on="0"/>
        <pt x="518" y="143" on="1"/>
        <pt x="529" y="145" on="1"/>
        <pt x="529" y="0" on="1"/>
        <pt x="51" y="0" on="1"/>
        <pt x="53" y="12" on="1"/>
        <pt x="77" y="12" on="0"/>
        <pt x="106" y="16" on="0"/>
        <pt x="130" y="34" on="0"/>
        <pt x="141" y="57" on="0"/>
        <pt x="145" y="84" on="1"/>
        <pt x="150" y="119" on="0"/>
        <pt x="150" y="226" on="1"/>
        <pt x="150" y="355" on="1"/>
        <pt x="54" y="306" on="1"/>
        <pt x="37" y="339" on="1"/>
        <pt x="150" y="396" on="1"/>
      </contour>
    </TTGlyph>
    <TTGlyph name="M" xMin="51" yMin="0" xMax="924" yMax="700">
      <contour>
        <pt x="824" y="474" on="1"/>
        <pt x="824" y="226" on="1"/>
        <pt x="824" y="119" on="0"/>
        <pt x="837" y="41" on="0"/>
        <pt x="849" y="31" on="1"/>
        <pt x="872" y="12" on="0"/>
        <pt x="922" y="12" on="1"/>
        <pt x="924" y="0" on="1"/>
        <pt x="656" y="0" on="1"/>
        <pt x="658" y="12" on="1"/>
        <pt x="707" y="12" on="0"/>
        <pt x="730" y="30" on="1"/>
        <pt x="749" y="45" on="0"/>
        <pt x="752" y="128" on="1"/>
        <pt x="754" y="161" on="0"/>
        <pt x="754" y="226" on="1"/>
        <pt x="754" y="649" on="1"/>
        <pt x="474" y="10" on="1"/>
        <pt x="185" y="551" on="1"/>
        <pt x="185" y="228" on="1"/>
        <pt x="185" y="128" on="0"/>
        <pt x="204" y="39" on="0"/>
        <pt x="246" y="12" on="0"/>
        <pt x="295" y="12" on="1"/>
        <pt x="297" y="0" on="1"/>
        <pt x="51" y="0" on="1"/>
        <pt x="53" y="12" on="1"/>
        <pt x="90" y="12" on="0"/>
        <pt x="127" y="23" on="0"/>
        <pt x="153" y="71" on="0"/>
        <pt x="160" y="151" on="0"/>
        <pt x="160" y="228" on="1"/>
        <pt x="160" y="473" on="1"/>
        <pt x="160" y="550" on="0"/>
        <pt x="153" y="630" on="0"/>
        <pt x="127" y="678" on="0"/>
        <pt x="90" y="689" on="0"/>
        <pt x="53" y="689" on="1"/>
        <pt x="51" y="700" on="1"/>
        <pt x="185" y="700" on="1"/>
        <pt x="494" y="117" on="1"/>
        <pt x="749" y="700" on="1"/>
        <pt x="924" y="700" on="1"/>
        <pt x="922" y="689" on="1"/>
        <pt x="872" y="689" on="0"/>
        <pt x="849" y="670" on="1"/>
        <pt x="824" y="649" on="0"/>
      </contour>
    </TTGlyph>
    <TTGlyph name="N" xMin="39" yMin="-5" xMax="788" yMax="700">
      <contour>
        <pt x="677" y="475" on="1"/>
        <pt x="677" y="-5" on="1"/>
        <pt x="646" y="-5" on="1"/>
        <pt x="175" y="590" on="1"/>
        <pt x="175" y="228" on="1"/>
        <pt x="175" y="128" on="0"/>
        <pt x="193" y="40" on="0"/>
        <pt x="235" y="12" on="0"/>
        <pt x="283" y="12" on="1"/>
        <pt x="285" y="0" on="1"/>
        <pt x="39" y="0" on="1"/>
        <pt x="41" y="12" on="1"/>
        <pt x="89" y="12" on="0"/>
        <pt x="131" y="40" on="0"/>
        <pt x="150" y="128" on="0"/>
        <pt x="150" y="228" on="1"/>
        <pt x="150" y="475" on="1"/>
        <pt x="150" y="575" on="0"/>
        <pt x="131" y="662" on="0"/>
        <pt x="90" y="689" on="0"/>
        <pt x="41" y="689" on="1"/>
        <pt x="39" y="700" on="1"/>
        <pt x="175" y="700" on="1"/>
        <pt x="652" y="105" on="1"/>
        <pt x="652" y="475" on="1"/>
        <pt x="652" y="574" on="0"/>
        <pt x="633" y="662" on="0"/>
        <pt x="591" y="689" on="0"/>
        <pt x="542" y="689" on="1"/>
        <pt x="540" y="700" on="1"/>
        <pt x="788" y="700" on="1"/>
        <pt x="786" y="689" on="1"/>
        <pt x="737" y="689" on="0"/>
        <pt x="695" y="662" on="0"/>
        <pt x="677" y="574" on="0"/>
      </contour>
    </TTGlyph>
    <TTGlyph name="Ntilde" xMin="39" yMin="-5" xMax="788" yMax="858">
      <contour>
        <pt x="677" y="475" on="1"/>
        <pt x="677" y="-5" on="1"/>
        <pt x="646" y="-5" on="1"/>
        <pt x="175" y="590" on="1"/>
        <pt x="175" y="228" on="1"/>
        <pt x="175" y="128" on="0"/>
        <pt x="193" y="40" on="0"/>
        <pt x="235" y="12" on="0"/>
        <pt x="283" y="12" on="1"/>
        <pt x="285" y="0" on="1"/>
        <pt x="39" y="0" on="1"/>
        <pt x="41" y="12" on="1"/>
        <pt x="89" y="12" on="0"/>
        <pt x="131" y="40" on="0"/>
        <pt x="150" y="128" on="0"/>
        <pt x="150" y="228" on="1"/>
        <pt x="150" y="475" on="1"/>
        <pt x="150" y="575" on="0"/>
        <pt x="131" y="662" on="0"/>
        <pt x="90" y="689" on="0"/>
        <pt x="41" y="689" on="1"/>
        <pt x="39" y="700" on="1"/>
        <pt x="175" y="700" on="1"/>
        <pt x="652" y="105" on="1"/>
        <pt x="652" y="475" on="1"/>
        <pt x="652" y="574" on="0"/>
        <pt x="633" y="662" on="0"/>
        <pt x="591" y="689" on="0"/>
        <pt x="542" y="689" on="1"/>
        <pt x="540" y="700" on="1"/>
        <pt x="788" y="700" on="1"/>
        <pt x="786" y="689" on="1"/>
        <pt x="737" y="689" on="0"/>
        <pt x="695" y="662" on="0"/>
        <pt x="677" y="574" on="0"/>
      </contour>
      <contour>
        <pt x="482" y="746" on="1"/>
        <pt x="454" y="746" on="0"/>
        <pt x="367" y="788" on="0"/>
        <pt x="344" y="788" on="1"/>
        <pt x="305" y="788" on="0"/>
        <pt x="287" y="743" on="1"/>
        <pt x="263" y="752" on="1"/>
        <pt x="285" y="855" on="0"/>
        <pt x="345" y="855" on="1"/>
        <pt x="373" y="855" on="0"/>
        <pt x="460" y="813" on="0"/>
        <pt x="483" y="813" on="1"/>
        <pt x="522" y="813" on="0"/>
        <pt x="540" y="858" on="1"/>
        <pt x="564" y="849" on="1"/>
        <pt x="542" y="746" on="0"/>
      </contour>
    </TTGlyph>
    <TTGlyph name="O" xMin="35" yMin="-10" xMax="737" yMax="709">
      <contour>
        <pt x="544" y="709" on="0"/>
        <pt x="737" y="512" on="0"/>
        <pt x="737" y="199" on="0"/>
        <pt x="550" y="-10" on="0"/>
        <pt x="230" y="-10" on="0"/>
        <pt x="35" y="200" on="0"/>
        <pt x="35" y="513" on="0"/>
        <pt x="222" y="709" on="0"/>
      </contour>
      <contour>
        <pt x="517" y="13" on="0"/>
        <pt x="650" y="198" on="0"/>
        <pt x="650" y="500" on="0"/>
        <pt x="510" y="686" on="0"/>
        <pt x="255" y="686" on="0"/>
        <pt x="122" y="502" on="0"/>
        <pt x="122" y="199" on="0"/>
        <pt x="262" y="13" on="0"/>
      </contour>
    </TTGlyph>
    <TTGlyph name="OE" xMin="35" yMin="0" xMax="895" yMax="700">
      <contour>
        <pt x="390" y="23" on="1"/>
        <pt x="441" y="23" on="0"/>
        <pt x="464" y="42" on="1"/>
        <pt x="491" y="65" on="0"/>
        <pt x="491" y="237" on="1"/>
        <pt x="491" y="461" on="1"/>
        <pt x="491" y="570" on="0"/>
        <pt x="473" y="645" on="0"/>
        <pt x="459" y="656" on="1"/>
        <pt x="435" y="676" on="0"/>
        <pt x="382" y="676" on="1"/>
        <pt x="254" y="676" on="0"/>
        <pt x="122" y="500" on="0"/>
        <pt x="122" y="200" on="0"/>
        <pt x="261" y="23" on="0"/>
      </contour>
      <contour>
        <pt x="895" y="0" on="1"/>
        <pt x="391" y="0" on="1"/>
        <pt x="229" y="0" on="0"/>
        <pt x="35" y="201" on="0"/>
        <pt x="35" y="512" on="0"/>
        <pt x="221" y="700" on="0"/>
        <pt x="382" y="700" on="1"/>
        <pt x="858" y="700" on="1"/>
        <pt x="858" y="556" on="1"/>
        <pt x="846" y="558" on="1"/>
        <pt x="846" y="625" on="0"/>
        <pt x="705" y="677" on="0"/>
        <pt x="560" y="677" on="1"/>
        <pt x="560" y="362" on="1"/>
        <pt x="656" y="362" on="0"/>
        <pt x="740" y="382" on="0"/>
        <pt x="764" y="423" on="0"/>
        <pt x="764" y="471" on="1"/>
        <pt x="775" y="473" on="1"/>
        <pt x="775" y="230" on="1"/>
        <pt x="764" y="232" on="1"/>
        <pt x="764" y="281" on="0"/>
        <pt x="740" y="321" on="0"/>
        <pt x="656" y="340" on="0"/>
        <pt x="560" y="340" on="1"/>
        <pt x="560" y="211" on="1"/>
        <pt x="560" y="105" on="0"/>
        <pt x="575" y="35" on="0"/>
        <pt x="601" y="23" on="1"/>
        <pt x="883" y="23" on="0"/>
        <pt x="883" y="143" on="1"/>
        <pt x="895" y="145" on="1"/>
      </contour>
    </TTGlyph>
    <TTGlyph name="Oacute" xMin="35" yMin="-10" xMax="737" yMax="869">
      <contour>
        <pt x="544" y="709" on="0"/>
        <pt x="737" y="512" on="0"/>
        <pt x="737" y="199" on="0"/>
        <pt x="550" y="-10" on="0"/>
        <pt x="230" y="-10" on="0"/>
        <pt x="35" y="200" on="0"/>
        <pt x="35" y="513" on="0"/>
        <pt x="222" y="709" on="0"/>
      </contour>
      <contour>
        <pt x="517" y="13" on="0"/>
        <pt x="650" y="198" on="0"/>
        <pt x="650" y="500" on="0"/>
        <pt x="510" y="686" on="0"/>
        <pt x="255" y="686" on="0"/>
        <pt x="122" y="502" on="0"/>
        <pt x="122" y="199" on="0"/>
        <pt x="262" y="13" on="0"/>
      </contour>
      <contour>
        <pt x="430" y="856" on="1"/>
        <pt x="450" y="869" on="0"/>
        <pt x="481" y="869" on="0"/>
        <pt x="504" y="850" on="0"/>
        <pt x="504" y="834" on="1"/>
        <pt x="504" y="801" on="0"/>
        <pt x="461" y="788" on="1"/>
        <pt x="278" y="732" on="1"/>
        <pt x="267" y="757" on="1"/>
      </contour>
    </TTGlyph>
    <TTGlyph name="Ocircumflex" xMin="35" yMin="-10" xMax="737" yMax="883">
      <contour>
        <pt x="544" y="709" on="0"/>
        <pt x="737" y="512" on="0"/>
        <pt x="737" y="199" on="0"/>
        <pt x="550" y="-10" on="0"/>
        <pt x="230" y="-10" on="0"/>
        <pt x="35" y="200" on="0"/>
        <pt x="35" y="513" on="0"/>
        <pt x="222" y="709" on="0"/>
      </contour>
      <contour>
        <pt x="517" y="13" on="0"/>
        <pt x="650" y="198" on="0"/>
        <pt x="650" y="500" on="0"/>
        <pt x="510" y="686" on="0"/>
        <pt x="255" y="686" on="0"/>
        <pt x="122" y="502" on="0"/>
        <pt x="122" y="199" on="0"/>
        <pt x="262" y="13" on="0"/>
      </contour>
      <contour>
        <pt x="371" y="883" on="0"/>
        <pt x="401" y="883" on="0"/>
        <pt x="423" y="868" on="0"/>
        <pt x="444" y="845" on="1"/>
        <pt x="524" y="754" on="1"/>
        <pt x="504" y="732" on="1"/>
        <pt x="386" y="809" on="1"/>
        <pt x="268" y="732" on="1"/>
        <pt x="248" y="754" on="1"/>
        <pt x="328" y="845" on="1"/>
        <pt x="349" y="868" on="0"/>
      </contour>
    </TTGlyph>
    <TTGlyph name="Odieresis" xMin="35" yMin="-10" xMax="737" yMax="847">
      <contour>
        <pt x="544" y="709" on="0"/>
        <pt x="737" y="512" on="0"/>
        <pt x="737" y="199" on="0"/>
        <pt x="550" y="-10" on="0"/>
        <pt x="230" y="-10" on="0"/>
        <pt x="35" y="200" on="0"/>
        <pt x="35" y="513" on="0"/>
        <pt x="222" y="709" on="0"/>
      </contour>
      <contour>
        <pt x="517" y="13" on="0"/>
        <pt x="650" y="198" on="0"/>
        <pt x="650" y="500" on="0"/>
        <pt x="510" y="686" on="0"/>
        <pt x="255" y="686" on="0"/>
        <pt x="122" y="502" on="0"/>
        <pt x="122" y="199" on="0"/>
        <pt x="262" y="13" on="0"/>
      </contour>
      <contour>
        <pt x="228" y="771" on="0"/>
        <pt x="228" y="815" on="0"/>
        <pt x="260" y="847" on="0"/>
        <pt x="304" y="847" on="0"/>
        <pt x="336" y="815" on="0"/>
        <pt x="336" y="771" on="0"/>
        <pt x="304" y="739" on="0"/>
        <pt x="260" y="739" on="0"/>
      </contour>
      <contour>
        <pt x="435" y="771" on="0"/>
        <pt x="435" y="815" on="0"/>
        <pt x="467" y="847" on="0"/>
        <pt x="511" y="847" on="0"/>
        <pt x="543" y="815" on="0"/>
        <pt x="543" y="771" on="0"/>
        <pt x="511" y="739" on="0"/>
        <pt x="467" y="739" on="0"/>
      </contour>
    </TTGlyph>
    <TTGlyph name="Ograve" xMin="35" yMin="-10" xMax="737" yMax="869">
      <contour>
        <pt x="544" y="709" on="0"/>
        <pt x="737" y="512" on="0"/>
        <pt x="737" y="199" on="0"/>
        <pt x="550" y="-10" on="0"/>
        <pt x="230" y="-10" on="0"/>
        <pt x="35" y="200" on="0"/>
        <pt x="35" y="513" on="0"/>
        <pt x="222" y="709" on="0"/>
      </contour>
      <contour>
        <pt x="517" y="13" on="0"/>
        <pt x="650" y="198" on="0"/>
        <pt x="650" y="500" on="0"/>
        <pt x="510" y="686" on="0"/>
        <pt x="255" y="686" on="0"/>
        <pt x="122" y="502" on="0"/>
        <pt x="122" y="199" on="0"/>
        <pt x="262" y="13" on="0"/>
      </contour>
      <contour>
        <pt x="267" y="850" on="0"/>
        <pt x="290" y="869" on="0"/>
        <pt x="321" y="869" on="0"/>
        <pt x="341" y="856" on="1"/>
        <pt x="504" y="757" on="1"/>
        <pt x="493" y="732" on="1"/>
        <pt x="310" y="788" on="1"/>
        <pt x="267" y="801" on="0"/>
        <pt x="267" y="834" on="1"/>
      </contour>
    </TTGlyph>
    <TTGlyph name="Omega" xMin="80" yMin="10" xMax="661" yMax="653">
      <contour>
        <pt x="587" y="487" on="0"/>
        <pt x="473" y="629" on="0"/>
        <pt x="269" y="629" on="0"/>
        <pt x="155" y="487" on="0"/>
        <pt x="155" y="371" on="1"/>
        <pt x="155" y="181" on="0"/>
        <pt x="297" y="130" on="1"/>
        <pt x="288" y="10" on="1"/>
        <pt x="105" y="10" on="1"/>
        <pt x="80" y="155" on="1"/>
        <pt x="92" y="153" on="1"/>
        <pt x="103" y="89" on="0"/>
        <pt x="185" y="33" on="0"/>
        <pt x="263" y="33" on="1"/>
        <pt x="269" y="110" on="1"/>
        <pt x="178" y="139" on="0"/>
        <pt x="83" y="281" on="0"/>
        <pt x="83" y="377" on="1"/>
        <pt x="83" y="499" on="0"/>
        <pt x="236" y="653" on="0"/>
        <pt x="506" y="653" on="0"/>
        <pt x="659" y="499" on="0"/>
        <pt x="659" y="377" on="1"/>
        <pt x="659" y="281" on="0"/>
        <pt x="564" y="139" on="0"/>
        <pt x="473" y="110" on="1"/>
        <pt x="479" y="33" on="1"/>
        <pt x="557" y="33" on="0"/>
        <pt x="638" y="89" on="0"/>
        <pt x="649" y="153" on="1"/>
        <pt x="661" y="155" on="1"/>
        <pt x="636" y="10" on="1"/>
        <pt x="454" y="10" on="1"/>
        <pt x="445" y="130" on="1"/>
        <pt x="587" y="181" on="0"/>
        <pt x="587" y="371" on="1"/>
      </contour>
    </TTGlyph>
    <TTGlyph name="Oslash" xMin="35" yMin="-110" xMax="737" yMax="809">
      <contour>
        <pt x="737" y="357" on="1"/>
        <pt x="737" y="199" on="0"/>
        <pt x="550" y="-10" on="0"/>
        <pt x="390" y="-10" on="1"/>
        <pt x="346" y="-10" on="0"/>
        <pt x="306" y="-1" on="1"/>
        <pt x="274" y="-110" on="1"/>
        <pt x="225" y="-110" on="1"/>
        <pt x="261" y="11" on="1"/>
        <pt x="155" y="49" on="0"/>
        <pt x="35" y="236" on="0"/>
        <pt x="35" y="357" on="1"/>
        <pt x="35" y="513" on="0"/>
        <pt x="222" y="709" on="0"/>
        <pt x="382" y="709" on="1"/>
        <pt x="423" y="709" on="0"/>
        <pt x="465" y="701" on="1"/>
        <pt x="497" y="809" on="1"/>
        <pt x="547" y="809" on="1"/>
        <pt x="511" y="689" on="1"/>
        <pt x="617" y="654" on="0"/>
        <pt x="737" y="477" on="0"/>
      </contour>
      <contour>
        <pt x="650" y="350" on="1"/>
        <pt x="650" y="459" on="0"/>
        <pt x="574" y="621" on="0"/>
        <pt x="502" y="658" on="1"/>
        <pt x="314" y="23" on="1"/>
        <pt x="352" y="13" on="0"/>
        <pt x="390" y="13" on="1"/>
        <pt x="517" y="13" on="0"/>
        <pt x="650" y="198" on="0"/>
      </contour>
      <contour>
        <pt x="122" y="350" on="1"/>
        <pt x="122" y="240" on="0"/>
        <pt x="197" y="78" on="0"/>
        <pt x="269" y="40" on="1"/>
        <pt x="457" y="676" on="1"/>
        <pt x="419" y="686" on="0"/>
        <pt x="382" y="686" on="1"/>
        <pt x="255" y="686" on="0"/>
        <pt x="122" y="502" on="0"/>
      </contour>
    </TTGlyph>
    <TTGlyph name="Otilde" xMin="35" yMin="-10" xMax="737" yMax="858">
      <contour>
        <pt x="544" y="709" on="0"/>
        <pt x="737" y="512" on="0"/>
        <pt x="737" y="199" on="0"/>
        <pt x="550" y="-10" on="0"/>
        <pt x="230" y="-10" on="0"/>
        <pt x="35" y="200" on="0"/>
        <pt x="35" y="513" on="0"/>
        <pt x="222" y="709" on="0"/>
      </contour>
      <contour>
        <pt x="517" y="13" on="0"/>
        <pt x="650" y="198" on="0"/>
        <pt x="650" y="500" on="0"/>
        <pt x="510" y="686" on="0"/>
        <pt x="255" y="686" on="0"/>
        <pt x="122" y="502" on="0"/>
        <pt x="122" y="199" on="0"/>
        <pt x="262" y="13" on="0"/>
      </contour>
      <contour>
        <pt x="454" y="746" on="1"/>
        <pt x="426" y="746" on="0"/>
        <pt x="339" y="788" on="0"/>
        <pt x="316" y="788" on="1"/>
        <pt x="277" y="788" on="0"/>
        <pt x="259" y="743" on="1"/>
        <pt x="235" y="752" on="1"/>
        <pt x="257" y="855" on="0"/>
        <pt x="317" y="855" on="1"/>
        <pt x="345" y="855" on="0"/>
        <pt x="432" y="813" on="0"/>
        <pt x="455" y="813" on="1"/>
        <pt x="494" y="813" on="0"/>
        <pt x="512" y="858" on="1"/>
        <pt x="536" y="849" on="1"/>
        <pt x="514" y="746" on="0"/>
      </contour>
    </TTGlyph>
    <TTGlyph name="P" xMin="50" yMin="0" xMax="577" yMax="700">
      <contour>
        <pt x="312" y="700" on="1"/>
        <pt x="577" y="700" on="0"/>
        <pt x="577" y="498" on="1"/>
        <pt x="577" y="409" on="0"/>
        <pt x="452" y="295" on="0"/>
        <pt x="280" y="295" on="0"/>
        <pt x="220" y="323" on="1"/>
        <pt x="220" y="226" on="1"/>
        <pt x="220" y="119" on="0"/>
        <pt x="233" y="41" on="0"/>
        <pt x="245" y="31" on="1"/>
        <pt x="268" y="12" on="0"/>
        <pt x="318" y="12" on="1"/>
        <pt x="320" y="0" on="1"/>
        <pt x="50" y="0" on="1"/>
        <pt x="52" y="12" on="1"/>
        <pt x="102" y="12" on="0"/>
        <pt x="125" y="31" on="1"/>
        <pt x="150" y="52" on="0"/>
        <pt x="150" y="226" on="1"/>
        <pt x="150" y="474" on="1"/>
        <pt x="150" y="581" on="0"/>
        <pt x="137" y="659" on="0"/>
        <pt x="125" y="669" on="1"/>
        <pt x="102" y="688" on="0"/>
        <pt x="52" y="688" on="1"/>
        <pt x="50" y="700" on="1"/>
      </contour>
      <contour>
        <pt x="220" y="677" on="1"/>
        <pt x="220" y="348" on="1"/>
        <pt x="272" y="320" on="0"/>
        <pt x="413" y="320" on="0"/>
        <pt x="499" y="409" on="0"/>
        <pt x="499" y="498" on="1"/>
        <pt x="499" y="609" on="0"/>
        <pt x="427" y="646" on="1"/>
        <pt x="368" y="677" on="0"/>
        <pt x="285" y="677" on="1"/>
      </contour>
    </TTGlyph>
    <TTGlyph name="Q" xMin="35" yMin="-135" xMax="834" yMax="709">
      <contour>
        <pt x="544" y="709" on="0"/>
        <pt x="737" y="512" on="0"/>
        <pt x="737" y="215" on="0"/>
        <pt x="584" y="14" on="0"/>
        <pt x="450" y="-5" on="1"/>
        <pt x="480" y="-12" on="0"/>
        <pt x="635" y="-82" on="0"/>
        <pt x="763" y="-82" on="0"/>
        <pt x="822" y="-42" on="1"/>
        <pt x="834" y="-55" on="1"/>
        <pt x="800" y="-92" on="0"/>
        <pt x="721" y="-135" on="0"/>
        <pt x="614" y="-135" on="0"/>
        <pt x="497" y="-81" on="0"/>
        <pt x="375" y="-27" on="0"/>
        <pt x="295" y="-27" on="0"/>
        <pt x="262" y="-38" on="1"/>
        <pt x="257" y="-18" on="1"/>
        <pt x="276" y="-9" on="0"/>
        <pt x="320" y="-4" on="1"/>
        <pt x="189" y="19" on="0"/>
        <pt x="35" y="218" on="0"/>
        <pt x="35" y="513" on="0"/>
        <pt x="222" y="709" on="0"/>
      </contour>
      <contour>
        <pt x="517" y="13" on="0"/>
        <pt x="650" y="198" on="0"/>
        <pt x="650" y="500" on="0"/>
        <pt x="510" y="686" on="0"/>
        <pt x="255" y="686" on="0"/>
        <pt x="122" y="502" on="0"/>
        <pt x="122" y="199" on="0"/>
        <pt x="262" y="13" on="0"/>
      </contour>
    </TTGlyph>
    <TTGlyph name="R" xMin="52" yMin="0" xMax="700" yMax="700">
      <contour>
        <pt x="561" y="0" on="1"/>
        <pt x="536" y="0" on="0"/>
        <pt x="487" y="51" on="0"/>
        <pt x="448" y="127" on="0"/>
        <pt x="396" y="216" on="0"/>
        <pt x="344" y="294" on="0"/>
        <pt x="264" y="348" on="0"/>
        <pt x="219" y="350" on="1"/>
        <pt x="219" y="226" on="1"/>
        <pt x="219" y="118" on="0"/>
        <pt x="232" y="41" on="0"/>
        <pt x="244" y="31" on="1"/>
        <pt x="268" y="12" on="0"/>
        <pt x="318" y="12" on="1"/>
        <pt x="320" y="0" on="1"/>
        <pt x="52" y="0" on="1"/>
        <pt x="54" y="12" on="1"/>
        <pt x="103" y="12" on="0"/>
        <pt x="126" y="30" on="1"/>
        <pt x="145" y="45" on="0"/>
        <pt x="148" y="128" on="1"/>
        <pt x="150" y="161" on="0"/>
        <pt x="150" y="226" on="1"/>
        <pt x="150" y="479" on="1"/>
        <pt x="150" y="590" on="0"/>
        <pt x="138" y="662" on="0"/>
        <pt x="126" y="671" on="1"/>
        <pt x="103" y="688" on="0"/>
        <pt x="54" y="688" on="1"/>
        <pt x="52" y="700" on="1"/>
        <pt x="284" y="700" on="1"/>
        <pt x="536" y="700" on="0"/>
        <pt x="536" y="530" on="1"/>
        <pt x="536" y="457" on="0"/>
        <pt x="433" y="358" on="0"/>
        <pt x="360" y="350" on="1"/>
        <pt x="433" y="307" on="0"/>
        <pt x="495" y="192" on="1"/>
        <pt x="519" y="147" on="0"/>
        <pt x="546" y="106" on="1"/>
        <pt x="605" y="12" on="0"/>
        <pt x="698" y="12" on="1"/>
        <pt x="700" y="0" on="1"/>
      </contour>
      <contour>
        <pt x="219" y="677" on="1"/>
        <pt x="219" y="370" on="1"/>
        <pt x="282" y="370" on="1"/>
        <pt x="358" y="370" on="0"/>
        <pt x="458" y="448" on="0"/>
        <pt x="458" y="525" on="1"/>
        <pt x="458" y="677" on="0"/>
        <pt x="284" y="677" on="1"/>
      </contour>
    </TTGlyph>
    <TTGlyph name="S" xMin="55" yMin="-10" xMax="470" yMax="709">
      <contour>
        <pt x="82" y="115" on="0"/>
        <pt x="177" y="13" on="0"/>
        <pt x="315" y="13" on="0"/>
        <pt x="403" y="80" on="0"/>
        <pt x="403" y="152" on="1"/>
        <pt x="403" y="217" on="0"/>
        <pt x="334" y="268" on="1"/>
        <pt x="304" y="290" on="0"/>
        <pt x="230" y="333" on="0"/>
        <pt x="156" y="379" on="0"/>
        <pt x="126" y="404" on="1"/>
        <pt x="57" y="462" on="0"/>
        <pt x="57" y="617" on="0"/>
        <pt x="170" y="709" on="0"/>
        <pt x="357" y="709" on="0"/>
        <pt x="437" y="668" on="1"/>
        <pt x="437" y="618" on="0"/>
        <pt x="422" y="496" on="1"/>
        <pt x="407" y="500" on="1"/>
        <pt x="407" y="594" on="0"/>
        <pt x="315" y="687" on="0"/>
        <pt x="196" y="687" on="0"/>
        <pt x="124" y="618" on="0"/>
        <pt x="124" y="524" on="0"/>
        <pt x="175" y="457" on="0"/>
        <pt x="252" y="413" on="0"/>
        <pt x="342" y="360" on="0"/>
        <pt x="419" y="309" on="0"/>
        <pt x="470" y="227" on="0"/>
        <pt x="470" y="176" on="1"/>
        <pt x="470" y="84" on="0"/>
        <pt x="339" y="-10" on="0"/>
        <pt x="247" y="-10" on="1"/>
        <pt x="196" y="-10" on="0"/>
        <pt x="89" y="22" on="0"/>
        <pt x="55" y="53" on="1"/>
        <pt x="55" y="117" on="0"/>
        <pt x="67" y="215" on="1"/>
        <pt x="82" y="212" on="1"/>
      </contour>
    </TTGlyph>
    <TTGlyph name="Scaron" xMin="55" yMin="-10" xMax="470" yMax="883">
      <contour>
        <pt x="82" y="115" on="0"/>
        <pt x="177" y="13" on="0"/>
        <pt x="315" y="13" on="0"/>
        <pt x="403" y="80" on="0"/>
        <pt x="403" y="152" on="1"/>
        <pt x="403" y="217" on="0"/>
        <pt x="334" y="268" on="1"/>
        <pt x="304" y="290" on="0"/>
        <pt x="230" y="333" on="0"/>
        <pt x="156" y="379" on="0"/>
        <pt x="126" y="404" on="1"/>
        <pt x="57" y="462" on="0"/>
        <pt x="57" y="617" on="0"/>
        <pt x="170" y="709" on="0"/>
        <pt x="357" y="709" on="0"/>
        <pt x="437" y="668" on="1"/>
        <pt x="437" y="618" on="0"/>
        <pt x="422" y="496" on="1"/>
        <pt x="407" y="500" on="1"/>
        <pt x="407" y="594" on="0"/>
        <pt x="315" y="687" on="0"/>
        <pt x="196" y="687" on="0"/>
        <pt x="124" y="618" on="0"/>
        <pt x="124" y="524" on="0"/>
        <pt x="175" y="457" on="0"/>
        <pt x="252" y="413" on="0"/>
        <pt x="342" y="360" on="0"/>
        <pt x="419" y="309" on="0"/>
        <pt x="470" y="227" on="0"/>
        <pt x="470" y="176" on="1"/>
        <pt x="470" y="84" on="0"/>
        <pt x="339" y="-10" on="0"/>
        <pt x="247" y="-10" on="1"/>
        <pt x="196" y="-10" on="0"/>
        <pt x="89" y="22" on="0"/>
        <pt x="55" y="53" on="1"/>
        <pt x="55" y="117" on="0"/>
        <pt x="67" y="215" on="1"/>
        <pt x="82" y="212" on="1"/>
      </contour>
      <contour>
        <pt x="277" y="732" on="0"/>
        <pt x="247" y="732" on="0"/>
        <pt x="225" y="747" on="0"/>
        <pt x="204" y="770" on="1"/>
        <pt x="124" y="861" on="1"/>
        <pt x="144" y="883" on="1"/>
        <pt x="262" y="806" on="1"/>
        <pt x="380" y="883" on="1"/>
        <pt x="400" y="861" on="1"/>
        <pt x="320" y="770" on="1"/>
        <pt x="299" y="747" on="0"/>
      </contour>
    </TTGlyph>
    <TTGlyph name="T" xMin="15" yMin="0" xMax="591" yMax="700">
      <contour>
        <pt x="15" y="700" on="1"/>
        <pt x="591" y="700" on="1"/>
        <pt x="591" y="556" on="1"/>
        <pt x="581" y="558" on="1"/>
        <pt x="581" y="680" on="0"/>
        <pt x="339" y="680" on="1"/>
        <pt x="339" y="226" on="1"/>
        <pt x="339" y="78" on="0"/>
        <pt x="356" y="46" on="1"/>
        <pt x="362" y="34" on="0"/>
        <pt x="392" y="16" on="0"/>
        <pt x="426" y="12" on="0"/>
        <pt x="456" y="12" on="1"/>
        <pt x="458" y="0" on="1"/>
        <pt x="150" y="0" on="1"/>
        <pt x="152" y="12" on="1"/>
        <pt x="182" y="12" on="0"/>
        <pt x="217" y="15" on="0"/>
        <pt x="246" y="35" on="0"/>
        <pt x="259" y="57" on="0"/>
        <pt x="264" y="85" on="1"/>
        <pt x="269" y="119" on="0"/>
        <pt x="269" y="226" on="1"/>
        <pt x="269" y="680" on="1"/>
        <pt x="27" y="680" on="0"/>
        <pt x="27" y="558" on="1"/>
        <pt x="15" y="556" on="1"/>
      </contour>
    </TTGlyph>
    <TTGlyph name="Thorn" xMin="50" yMin="0" xMax="577" yMax="700">
      <contour>
        <pt x="577" y="268" on="0"/>
        <pt x="452" y="152" on="0"/>
        <pt x="280" y="152" on="0"/>
        <pt x="220" y="180" on="1"/>
        <pt x="221" y="101" on="0"/>
        <pt x="236" y="34" on="0"/>
        <pt x="274" y="12" on="0"/>
        <pt x="318" y="12" on="1"/>
        <pt x="320" y="0" on="1"/>
        <pt x="50" y="0" on="1"/>
        <pt x="52" y="12" on="1"/>
        <pt x="77" y="12" on="0"/>
        <pt x="105" y="16" on="0"/>
        <pt x="130" y="34" on="0"/>
        <pt x="141" y="57" on="0"/>
        <pt x="145" y="84" on="1"/>
        <pt x="150" y="119" on="0"/>
        <pt x="150" y="226" on="1"/>
        <pt x="150" y="474" on="1"/>
        <pt x="150" y="578" on="0"/>
        <pt x="138" y="660" on="0"/>
        <pt x="126" y="670" on="1"/>
        <pt x="102" y="689" on="0"/>
        <pt x="52" y="689" on="1"/>
        <pt x="50" y="700" on="1"/>
        <pt x="320" y="700" on="1"/>
        <pt x="318" y="689" on="1"/>
        <pt x="261" y="689" on="0"/>
        <pt x="224" y="645" on="0"/>
        <pt x="221" y="564" on="1"/>
        <pt x="312" y="564" on="1"/>
        <pt x="420" y="564" on="0"/>
        <pt x="494" y="522" on="1"/>
        <pt x="533" y="500" on="0"/>
        <pt x="577" y="416" on="0"/>
        <pt x="577" y="357" on="1"/>
      </contour>
      <contour>
        <pt x="220" y="204" on="1"/>
        <pt x="272" y="176" on="0"/>
        <pt x="413" y="176" on="0"/>
        <pt x="499" y="267" on="0"/>
        <pt x="499" y="357" on="1"/>
        <pt x="499" y="541" on="0"/>
        <pt x="285" y="541" on="1"/>
        <pt x="220" y="541" on="1"/>
      </contour>
    </TTGlyph>
    <TTGlyph name="U" xMin="30" yMin="-10" xMax="773" yMax="700">
      <contour>
        <pt x="662" y="473" on="1"/>
        <pt x="662" y="277" on="1"/>
        <pt x="662" y="210" on="0"/>
        <pt x="629" y="106" on="0"/>
        <pt x="577" y="44" on="0"/>
        <pt x="541" y="24" on="1"/>
        <pt x="480" y="-10" on="0"/>
        <pt x="401" y="-10" on="1"/>
        <pt x="130" y="-10" on="0"/>
        <pt x="130" y="267" on="1"/>
        <pt x="130" y="474" on="1"/>
        <pt x="130" y="581" on="0"/>
        <pt x="117" y="659" on="0"/>
        <pt x="105" y="669" on="1"/>
        <pt x="82" y="688" on="0"/>
        <pt x="32" y="688" on="1"/>
        <pt x="30" y="700" on="1"/>
        <pt x="299" y="700" on="1"/>
        <pt x="297" y="688" on="1"/>
        <pt x="273" y="688" on="0"/>
        <pt x="244" y="684" on="0"/>
        <pt x="220" y="666" on="0"/>
        <pt x="209" y="643" on="0"/>
        <pt x="205" y="616" on="1"/>
        <pt x="200" y="581" on="0"/>
        <pt x="200" y="474" on="1"/>
        <pt x="200" y="262" on="1"/>
        <pt x="200" y="134" on="0"/>
        <pt x="315" y="19" on="0"/>
        <pt x="509" y="19" on="0"/>
        <pt x="637" y="144" on="0"/>
        <pt x="637" y="275" on="1"/>
        <pt x="637" y="473" on="1"/>
        <pt x="637" y="573" on="0"/>
        <pt x="619" y="661" on="0"/>
        <pt x="578" y="688" on="0"/>
        <pt x="529" y="688" on="1"/>
        <pt x="527" y="700" on="1"/>
        <pt x="773" y="700" on="1"/>
        <pt x="771" y="688" on="1"/>
        <pt x="722" y="688" on="0"/>
        <pt x="681" y="661" on="0"/>
        <pt x="662" y="573" on="0"/>
      </contour>
    </TTGlyph>
    <TTGlyph name="Uacute" xMin="30" yMin="-10" xMax="773" yMax="869">
      <contour>
        <pt x="662" y="473" on="1"/>
        <pt x="662" y="277" on="1"/>
        <pt x="662" y="210" on="0"/>
        <pt x="629" y="106" on="0"/>
        <pt x="577" y="44" on="0"/>
        <pt x="541" y="24" on="1"/>
        <pt x="480" y="-10" on="0"/>
        <pt x="401" y="-10" on="1"/>
        <pt x="130" y="-10" on="0"/>
        <pt x="130" y="267" on="1"/>
        <pt x="130" y="474" on="1"/>
        <pt x="130" y="581" on="0"/>
        <pt x="117" y="659" on="0"/>
        <pt x="105" y="669" on="1"/>
        <pt x="82" y="688" on="0"/>
        <pt x="32" y="688" on="1"/>
        <pt x="30" y="700" on="1"/>
        <pt x="299" y="700" on="1"/>
        <pt x="297" y="688" on="1"/>
        <pt x="273" y="688" on="0"/>
        <pt x="244" y="684" on="0"/>
        <pt x="220" y="666" on="0"/>
        <pt x="209" y="643" on="0"/>
        <pt x="205" y="616" on="1"/>
        <pt x="200" y="581" on="0"/>
        <pt x="200" y="474" on="1"/>
        <pt x="200" y="262" on="1"/>
        <pt x="200" y="134" on="0"/>
        <pt x="315" y="19" on="0"/>
        <pt x="509" y="19" on="0"/>
        <pt x="637" y="144" on="0"/>
        <pt x="637" y="275" on="1"/>
        <pt x="637" y="473" on="1"/>
        <pt x="637" y="573" on="0"/>
        <pt x="619" y="661" on="0"/>
        <pt x="578" y="688" on="0"/>
        <pt x="529" y="688" on="1"/>
        <pt x="527" y="700" on="1"/>
        <pt x="773" y="700" on="1"/>
        <pt x="771" y="688" on="1"/>
        <pt x="722" y="688" on="0"/>
        <pt x="681" y="661" on="0"/>
        <pt x="662" y="573" on="0"/>
      </contour>
      <contour>
        <pt x="460" y="856" on="1"/>
        <pt x="480" y="869" on="0"/>
        <pt x="511" y="869" on="0"/>
        <pt x="534" y="850" on="0"/>
        <pt x="534" y="834" on="1"/>
        <pt x="534" y="801" on="0"/>
        <pt x="491" y="788" on="1"/>
        <pt x="308" y="732" on="1"/>
        <pt x="297" y="757" on="1"/>
      </contour>
    </TTGlyph>
    <TTGlyph name="Ucircumflex" xMin="30" yMin="-10" xMax="773" yMax="883">
      <contour>
        <pt x="662" y="473" on="1"/>
        <pt x="662" y="277" on="1"/>
        <pt x="662" y="210" on="0"/>
        <pt x="629" y="106" on="0"/>
        <pt x="577" y="44" on="0"/>
        <pt x="541" y="24" on="1"/>
        <pt x="480" y="-10" on="0"/>
        <pt x="401" y="-10" on="1"/>
        <pt x="130" y="-10" on="0"/>
        <pt x="130" y="267" on="1"/>
        <pt x="130" y="474" on="1"/>
        <pt x="130" y="581" on="0"/>
        <pt x="117" y="659" on="0"/>
        <pt x="105" y="669" on="1"/>
        <pt x="82" y="688" on="0"/>
        <pt x="32" y="688" on="1"/>
        <pt x="30" y="700" on="1"/>
        <pt x="299" y="700" on="1"/>
        <pt x="297" y="688" on="1"/>
        <pt x="273" y="688" on="0"/>
        <pt x="244" y="684" on="0"/>
        <pt x="220" y="666" on="0"/>
        <pt x="209" y="643" on="0"/>
        <pt x="205" y="616" on="1"/>
        <pt x="200" y="581" on="0"/>
        <pt x="200" y="474" on="1"/>
        <pt x="200" y="262" on="1"/>
        <pt x="200" y="134" on="0"/>
        <pt x="315" y="19" on="0"/>
        <pt x="509" y="19" on="0"/>
        <pt x="637" y="144" on="0"/>
        <pt x="637" y="275" on="1"/>
        <pt x="637" y="473" on="1"/>
        <pt x="637" y="573" on="0"/>
        <pt x="619" y="661" on="0"/>
        <pt x="578" y="688" on="0"/>
        <pt x="529" y="688" on="1"/>
        <pt x="527" y="700" on="1"/>
        <pt x="773" y="700" on="1"/>
        <pt x="771" y="688" on="1"/>
        <pt x="722" y="688" on="0"/>
        <pt x="681" y="661" on="0"/>
        <pt x="662" y="573" on="0"/>
      </contour>
      <contour>
        <pt x="401" y="883" on="0"/>
        <pt x="431" y="883" on="0"/>
        <pt x="453" y="868" on="0"/>
        <pt x="474" y="845" on="1"/>
        <pt x="554" y="754" on="1"/>
        <pt x="534" y="732" on="1"/>
        <pt x="416" y="809" on="1"/>
        <pt x="298" y="732" on="1"/>
        <pt x="278" y="754" on="1"/>
        <pt x="358" y="845" on="1"/>
        <pt x="379" y="868" on="0"/>
      </contour>
    </TTGlyph>
    <TTGlyph name="Udieresis" xMin="30" yMin="-10" xMax="773" yMax="847">
      <contour>
        <pt x="662" y="473" on="1"/>
        <pt x="662" y="277" on="1"/>
        <pt x="662" y="210" on="0"/>
        <pt x="629" y="106" on="0"/>
        <pt x="577" y="44" on="0"/>
        <pt x="541" y="24" on="1"/>
        <pt x="480" y="-10" on="0"/>
        <pt x="401" y="-10" on="1"/>
        <pt x="130" y="-10" on="0"/>
        <pt x="130" y="267" on="1"/>
        <pt x="130" y="474" on="1"/>
        <pt x="130" y="581" on="0"/>
        <pt x="117" y="659" on="0"/>
        <pt x="105" y="669" on="1"/>
        <pt x="82" y="688" on="0"/>
        <pt x="32" y="688" on="1"/>
        <pt x="30" y="700" on="1"/>
        <pt x="299" y="700" on="1"/>
        <pt x="297" y="688" on="1"/>
        <pt x="273" y="688" on="0"/>
        <pt x="244" y="684" on="0"/>
        <pt x="220" y="666" on="0"/>
        <pt x="209" y="643" on="0"/>
        <pt x="205" y="616" on="1"/>
        <pt x="200" y="581" on="0"/>
        <pt x="200" y="474" on="1"/>
        <pt x="200" y="262" on="1"/>
        <pt x="200" y="134" on="0"/>
        <pt x="315" y="19" on="0"/>
        <pt x="509" y="19" on="0"/>
        <pt x="637" y="144" on="0"/>
        <pt x="637" y="275" on="1"/>
        <pt x="637" y="473" on="1"/>
        <pt x="637" y="573" on="0"/>
        <pt x="619" y="661" on="0"/>
        <pt x="578" y="688" on="0"/>
        <pt x="529" y="688" on="1"/>
        <pt x="527" y="700" on="1"/>
        <pt x="773" y="700" on="1"/>
        <pt x="771" y="688" on="1"/>
        <pt x="722" y="688" on="0"/>
        <pt x="681" y="661" on="0"/>
        <pt x="662" y="573" on="0"/>
      </contour>
      <contour>
        <pt x="258" y="771" on="0"/>
        <pt x="258" y="815" on="0"/>
        <pt x="290" y="847" on="0"/>
        <pt x="334" y="847" on="0"/>
        <pt x="366" y="815" on="0"/>
        <pt x="366" y="771" on="0"/>
        <pt x="334" y="739" on="0"/>
        <pt x="290" y="739" on="0"/>
      </contour>
      <contour>
        <pt x="465" y="771" on="0"/>
        <pt x="465" y="815" on="0"/>
        <pt x="497" y="847" on="0"/>
        <pt x="541" y="847" on="0"/>
        <pt x="573" y="815" on="0"/>
        <pt x="573" y="771" on="0"/>
        <pt x="541" y="739" on="0"/>
        <pt x="497" y="739" on="0"/>
      </contour>
    </TTGlyph>
    <TTGlyph name="Ugrave" xMin="30" yMin="-10" xMax="773" yMax="869">
      <contour>
        <pt x="662" y="473" on="1"/>
        <pt x="662" y="277" on="1"/>
        <pt x="662" y="210" on="0"/>
        <pt x="629" y="106" on="0"/>
        <pt x="577" y="44" on="0"/>
        <pt x="541" y="24" on="1"/>
        <pt x="480" y="-10" on="0"/>
        <pt x="401" y="-10" on="1"/>
        <pt x="130" y="-10" on="0"/>
        <pt x="130" y="267" on="1"/>
        <pt x="130" y="474" on="1"/>
        <pt x="130" y="581" on="0"/>
        <pt x="117" y="659" on="0"/>
        <pt x="105" y="669" on="1"/>
        <pt x="82" y="688" on="0"/>
        <pt x="32" y="688" on="1"/>
        <pt x="30" y="700" on="1"/>
        <pt x="299" y="700" on="1"/>
        <pt x="297" y="688" on="1"/>
        <pt x="273" y="688" on="0"/>
        <pt x="244" y="684" on="0"/>
        <pt x="220" y="666" on="0"/>
        <pt x="209" y="643" on="0"/>
        <pt x="205" y="616" on="1"/>
        <pt x="200" y="581" on="0"/>
        <pt x="200" y="474" on="1"/>
        <pt x="200" y="262" on="1"/>
        <pt x="200" y="134" on="0"/>
        <pt x="315" y="19" on="0"/>
        <pt x="509" y="19" on="0"/>
        <pt x="637" y="144" on="0"/>
        <pt x="637" y="275" on="1"/>
        <pt x="637" y="473" on="1"/>
        <pt x="637" y="573" on="0"/>
        <pt x="619" y="661" on="0"/>
        <pt x="578" y="688" on="0"/>
        <pt x="529" y="688" on="1"/>
        <pt x="527" y="700" on="1"/>
        <pt x="773" y="700" on="1"/>
        <pt x="771" y="688" on="1"/>
        <pt x="722" y="688" on="0"/>
        <pt x="681" y="661" on="0"/>
        <pt x="662" y="573" on="0"/>
      </contour>
      <contour>
        <pt x="277" y="850" on="0"/>
        <pt x="300" y="869" on="0"/>
        <pt x="331" y="869" on="0"/>
        <pt x="351" y="856" on="1"/>
        <pt x="514" y="757" on="1"/>
        <pt x="503" y="732" on="1"/>
        <pt x="320" y="788" on="1"/>
        <pt x="277" y="801" on="0"/>
        <pt x="277" y="834" on="1"/>
      </contour>
    </TTGlyph>
    <TTGlyph name="V" xMin="5" yMin="-5" xMax="772" yMax="700">
      <contour>
        <pt x="204" y="639" on="0"/>
        <pt x="209" y="620" on="0"/>
        <pt x="212" y="608" on="0"/>
        <pt x="218" y="587" on="0"/>
        <pt x="223" y="572" on="0"/>
        <pt x="233" y="544" on="0"/>
        <pt x="240" y="526" on="0"/>
        <pt x="253" y="490" on="0"/>
        <pt x="257" y="479" on="1"/>
        <pt x="413" y="54" on="1"/>
        <pt x="561" y="479" on="1"/>
        <pt x="605" y="606" on="0"/>
        <pt x="605" y="670" on="0"/>
        <pt x="571" y="688" on="0"/>
        <pt x="529" y="688" on="1"/>
        <pt x="527" y="700" on="1"/>
        <pt x="772" y="700" on="1"/>
        <pt x="770" y="688" on="1"/>
        <pt x="732" y="688" on="0"/>
        <pt x="693" y="678" on="0"/>
        <pt x="650" y="634" on="0"/>
        <pt x="614" y="554" on="0"/>
        <pt x="588" y="479" on="1"/>
        <pt x="420" y="-5" on="1"/>
        <pt x="357" y="-5" on="1"/>
        <pt x="180" y="479" on="1"/>
        <pt x="124" y="629" on="0"/>
        <pt x="101" y="656" on="1"/>
        <pt x="92" y="667" on="0"/>
        <pt x="61" y="685" on="0"/>
        <pt x="32" y="688" on="0"/>
        <pt x="7" y="688" on="1"/>
        <pt x="5" y="700" on="1"/>
        <pt x="275" y="700" on="1"/>
        <pt x="273" y="688" on="1"/>
        <pt x="235" y="688" on="0"/>
        <pt x="204" y="674" on="0"/>
      </contour>
    </TTGlyph>
    <TTGlyph name="W" xMin="14" yMin="-5" xMax="1078" yMax="700">
      <contour>
        <pt x="211" y="627" on="0"/>
        <pt x="233" y="559" on="0"/>
        <pt x="236" y="548" on="1"/>
        <pt x="247" y="515" on="0"/>
        <pt x="259" y="479" on="1"/>
        <pt x="398" y="58" on="1"/>
        <pt x="529" y="468" on="1"/>
        <pt x="474" y="628" on="0"/>
        <pt x="452" y="656" on="1"/>
        <pt x="443" y="666" on="0"/>
        <pt x="412" y="685" on="0"/>
        <pt x="384" y="688" on="0"/>
        <pt x="359" y="688" on="1"/>
        <pt x="357" y="700" on="1"/>
        <pt x="626" y="700" on="1"/>
        <pt x="624" y="688" on="1"/>
        <pt x="585" y="688" on="0"/>
        <pt x="555" y="673" on="0"/>
        <pt x="555" y="614" on="0"/>
        <pt x="601" y="479" on="1"/>
        <pt x="742" y="58" on="1"/>
        <pt x="874" y="479" on="1"/>
        <pt x="913" y="605" on="0"/>
        <pt x="913" y="650" on="1"/>
        <pt x="913" y="673" on="0"/>
        <pt x="876" y="688" on="0"/>
        <pt x="837" y="688" on="1"/>
        <pt x="835" y="700" on="1"/>
        <pt x="1078" y="700" on="1"/>
        <pt x="1077" y="688" on="1"/>
        <pt x="1027" y="688" on="0"/>
        <pt x="979" y="663" on="0"/>
        <pt x="935" y="579" on="0"/>
        <pt x="903" y="479" on="1"/>
        <pt x="750" y="-5" on="1"/>
        <pt x="686" y="-5" on="1"/>
        <pt x="541" y="427" on="1"/>
        <pt x="407" y="-5" on="1"/>
        <pt x="344" y="-5" on="1"/>
        <pt x="182" y="479" on="1"/>
        <pt x="155" y="560" on="0"/>
        <pt x="128" y="631" on="0"/>
        <pt x="89" y="680" on="0"/>
        <pt x="53" y="688" on="0"/>
        <pt x="16" y="688" on="1"/>
        <pt x="14" y="700" on="1"/>
        <pt x="283" y="700" on="1"/>
        <pt x="281" y="688" on="1"/>
        <pt x="242" y="688" on="0"/>
        <pt x="211" y="674" on="0"/>
      </contour>
    </TTGlyph>
    <TTGlyph name="X" xMin="39" yMin="0" xMax="802" yMax="700">
      <contour>
        <pt x="553" y="572" on="0"/>
        <pt x="599" y="645" on="0"/>
        <pt x="599" y="679" on="0"/>
        <pt x="571" y="688" on="0"/>
        <pt x="536" y="688" on="1"/>
        <pt x="534" y="700" on="1"/>
        <pt x="787" y="700" on="1"/>
        <pt x="785" y="688" on="1"/>
        <pt x="748" y="688" on="0"/>
        <pt x="702" y="678" on="0"/>
        <pt x="640" y="636" on="0"/>
        <pt x="571" y="552" on="0"/>
        <pt x="520" y="479" on="1"/>
        <pt x="448" y="376" on="1"/>
        <pt x="554" y="221" on="1"/>
        <pt x="622" y="121" on="0"/>
        <pt x="695" y="37" on="0"/>
        <pt x="751" y="12" on="0"/>
        <pt x="800" y="12" on="1"/>
        <pt x="802" y="0" on="1"/>
        <pt x="534" y="0" on="1"/>
        <pt x="536" y="12" on="1"/>
        <pt x="567" y="12" on="0"/>
        <pt x="588" y="19" on="0"/>
        <pt x="588" y="38" on="0"/>
        <pt x="579" y="58" on="0"/>
        <pt x="556" y="91" on="0"/>
        <pt x="544" y="108" on="1"/>
        <pt x="506" y="161" on="0"/>
        <pt x="466" y="221" on="1"/>
        <pt x="403" y="314" on="1"/>
        <pt x="340" y="221" on="1"/>
        <pt x="247" y="85" on="0"/>
        <pt x="229" y="47" on="0"/>
        <pt x="229" y="22" on="0"/>
        <pt x="258" y="12" on="0"/>
        <pt x="292" y="12" on="1"/>
        <pt x="294" y="0" on="1"/>
        <pt x="39" y="0" on="1"/>
        <pt x="41" y="12" on="1"/>
        <pt x="80" y="12" on="0"/>
        <pt x="126" y="22" on="0"/>
        <pt x="188" y="65" on="0"/>
        <pt x="257" y="147" on="0"/>
        <pt x="308" y="221" on="1"/>
        <pt x="388" y="336" on="1"/>
        <pt x="292" y="479" on="1"/>
        <pt x="241" y="554" on="0"/>
        <pt x="181" y="634" on="0"/>
        <pt x="123" y="678" on="0"/>
        <pt x="81" y="688" on="0"/>
        <pt x="44" y="688" on="1"/>
        <pt x="42" y="700" on="1"/>
        <pt x="311" y="700" on="1"/>
        <pt x="309" y="688" on="1"/>
        <pt x="276" y="688" on="0"/>
        <pt x="256" y="682" on="0"/>
        <pt x="256" y="663" on="0"/>
        <pt x="265" y="643" on="0"/>
        <pt x="288" y="608" on="0"/>
        <pt x="312" y="574" on="0"/>
        <pt x="359" y="508" on="0"/>
        <pt x="379" y="479" on="1"/>
        <pt x="432" y="400" on="1"/>
        <pt x="488" y="479" on="1"/>
      </contour>
    </TTGlyph>
    <TTGlyph name="Y" xMin="24" yMin="0" xMax="696" yMax="700">
      <contour>
        <pt x="410" y="226" on="1"/>
        <pt x="410" y="78" on="0"/>
        <pt x="427" y="46" on="1"/>
        <pt x="433" y="34" on="0"/>
        <pt x="463" y="16" on="0"/>
        <pt x="497" y="12" on="0"/>
        <pt x="527" y="12" on="1"/>
        <pt x="529" y="0" on="1"/>
        <pt x="221" y="0" on="1"/>
        <pt x="223" y="12" on="1"/>
        <pt x="253" y="12" on="0"/>
        <pt x="288" y="15" on="0"/>
        <pt x="317" y="35" on="0"/>
        <pt x="330" y="57" on="0"/>
        <pt x="334" y="85" on="1"/>
        <pt x="340" y="119" on="0"/>
        <pt x="340" y="226" on="1"/>
        <pt x="340" y="289" on="1"/>
        <pt x="228" y="478" on="1"/>
        <pt x="181" y="558" on="0"/>
        <pt x="135" y="631" on="0"/>
        <pt x="87" y="679" on="0"/>
        <pt x="56" y="688" on="0"/>
        <pt x="26" y="688" on="1"/>
        <pt x="24" y="700" on="1"/>
        <pt x="273" y="700" on="1"/>
        <pt x="271" y="688" on="1"/>
        <pt x="238" y="688" on="0"/>
        <pt x="211" y="679" on="0"/>
        <pt x="211" y="663" on="1"/>
        <pt x="211" y="645" on="0"/>
        <pt x="236" y="599" on="0"/>
        <pt x="244" y="583" on="0"/>
        <pt x="262" y="552" on="0"/>
        <pt x="268" y="542" on="1"/>
        <pt x="295" y="494" on="0"/>
        <pt x="305" y="478" on="1"/>
        <pt x="395" y="323" on="1"/>
        <pt x="472" y="478" on="1"/>
        <pt x="541" y="620" on="0"/>
        <pt x="541" y="654" on="1"/>
        <pt x="541" y="676" on="0"/>
        <pt x="512" y="688" on="0"/>
        <pt x="474" y="688" on="1"/>
        <pt x="472" y="700" on="1"/>
        <pt x="696" y="700" on="1"/>
        <pt x="694" y="688" on="1"/>
        <pt x="647" y="688" on="0"/>
        <pt x="615" y="672" on="1"/>
        <pt x="591" y="660" on="0"/>
        <pt x="547" y="577" on="1"/>
        <pt x="530" y="545" on="0"/>
        <pt x="497" y="478" on="1"/>
        <pt x="410" y="300" on="1"/>
      </contour>
    </TTGlyph>
    <TTGlyph name="Yacute" xMin="-3" yMin="0" xMax="669" yMax="869">
      <contour>
        <pt x="383" y="226" on="1"/>
        <pt x="383" y="78" on="0"/>
        <pt x="400" y="46" on="1"/>
        <pt x="406" y="34" on="0"/>
        <pt x="436" y="16" on="0"/>
        <pt x="470" y="12" on="0"/>
        <pt x="500" y="12" on="1"/>
        <pt x="502" y="0" on="1"/>
        <pt x="194" y="0" on="1"/>
        <pt x="196" y="12" on="1"/>
        <pt x="226" y="12" on="0"/>
        <pt x="261" y="15" on="0"/>
        <pt x="290" y="35" on="0"/>
        <pt x="303" y="57" on="0"/>
        <pt x="308" y="85" on="1"/>
        <pt x="313" y="119" on="0"/>
        <pt x="313" y="226" on="1"/>
        <pt x="313" y="289" on="1"/>
        <pt x="201" y="478" on="1"/>
        <pt x="154" y="558" on="0"/>
        <pt x="108" y="631" on="0"/>
        <pt x="60" y="679" on="0"/>
        <pt x="29" y="688" on="0"/>
        <pt x="-1" y="688" on="1"/>
        <pt x="-3" y="700" on="1"/>
        <pt x="246" y="700" on="1"/>
        <pt x="244" y="688" on="1"/>
        <pt x="211" y="688" on="0"/>
        <pt x="184" y="679" on="0"/>
        <pt x="184" y="663" on="1"/>
        <pt x="184" y="645" on="0"/>
        <pt x="209" y="599" on="0"/>
        <pt x="217" y="583" on="0"/>
        <pt x="235" y="552" on="0"/>
        <pt x="241" y="542" on="1"/>
        <pt x="268" y="494" on="0"/>
        <pt x="278" y="478" on="1"/>
        <pt x="368" y="323" on="1"/>
        <pt x="445" y="478" on="1"/>
        <pt x="514" y="620" on="0"/>
        <pt x="514" y="654" on="1"/>
        <pt x="514" y="676" on="0"/>
        <pt x="485" y="688" on="0"/>
        <pt x="447" y="688" on="1"/>
        <pt x="445" y="700" on="1"/>
        <pt x="669" y="700" on="1"/>
        <pt x="667" y="688" on="1"/>
        <pt x="620" y="688" on="0"/>
        <pt x="588" y="672" on="1"/>
        <pt x="564" y="660" on="0"/>
        <pt x="520" y="577" on="1"/>
        <pt x="503" y="545" on="0"/>
        <pt x="470" y="478" on="1"/>
        <pt x="383" y="300" on="1"/>
      </contour>
      <contour>
        <pt x="439" y="856" on="1"/>
        <pt x="459" y="869" on="0"/>
        <pt x="490" y="869" on="0"/>
        <pt x="513" y="850" on="0"/>
        <pt x="513" y="834" on="1"/>
        <pt x="513" y="801" on="0"/>
        <pt x="470" y="788" on="1"/>
        <pt x="287" y="732" on="1"/>
        <pt x="276" y="757" on="1"/>
      </contour>
    </TTGlyph>
    <TTGlyph name="Ydieresis" xMin="-3" yMin="0" xMax="669" yMax="847">
      <contour>
        <pt x="383" y="226" on="1"/>
        <pt x="383" y="78" on="0"/>
        <pt x="400" y="46" on="1"/>
        <pt x="406" y="34" on="0"/>
        <pt x="436" y="16" on="0"/>
        <pt x="470" y="12" on="0"/>
        <pt x="500" y="12" on="1"/>
        <pt x="502" y="0" on="1"/>
        <pt x="194" y="0" on="1"/>
        <pt x="196" y="12" on="1"/>
        <pt x="226" y="12" on="0"/>
        <pt x="261" y="15" on="0"/>
        <pt x="290" y="35" on="0"/>
        <pt x="303" y="57" on="0"/>
        <pt x="308" y="85" on="1"/>
        <pt x="313" y="119" on="0"/>
        <pt x="313" y="226" on="1"/>
        <pt x="313" y="289" on="1"/>
        <pt x="201" y="478" on="1"/>
        <pt x="154" y="558" on="0"/>
        <pt x="108" y="631" on="0"/>
        <pt x="60" y="679" on="0"/>
        <pt x="29" y="688" on="0"/>
        <pt x="-1" y="688" on="1"/>
        <pt x="-3" y="700" on="1"/>
        <pt x="246" y="700" on="1"/>
        <pt x="244" y="688" on="1"/>
        <pt x="211" y="688" on="0"/>
        <pt x="184" y="679" on="0"/>
        <pt x="184" y="663" on="1"/>
        <pt x="184" y="645" on="0"/>
        <pt x="209" y="599" on="0"/>
        <pt x="217" y="583" on="0"/>
        <pt x="235" y="552" on="0"/>
        <pt x="241" y="542" on="1"/>
        <pt x="268" y="494" on="0"/>
        <pt x="278" y="478" on="1"/>
        <pt x="368" y="323" on="1"/>
        <pt x="445" y="478" on="1"/>
        <pt x="514" y="620" on="0"/>
        <pt x="514" y="654" on="1"/>
        <pt x="514" y="676" on="0"/>
        <pt x="485" y="688" on="0"/>
        <pt x="447" y="688" on="1"/>
        <pt x="445" y="700" on="1"/>
        <pt x="669" y="700" on="1"/>
        <pt x="667" y="688" on="1"/>
        <pt x="620" y="688" on="0"/>
        <pt x="588" y="672" on="1"/>
        <pt x="564" y="660" on="0"/>
        <pt x="520" y="577" on="1"/>
        <pt x="503" y="545" on="0"/>
        <pt x="470" y="478" on="1"/>
        <pt x="383" y="300" on="1"/>
      </contour>
      <contour>
        <pt x="203" y="771" on="0"/>
        <pt x="203" y="815" on="0"/>
        <pt x="235" y="847" on="0"/>
        <pt x="279" y="847" on="0"/>
        <pt x="311" y="815" on="0"/>
        <pt x="311" y="771" on="0"/>
        <pt x="279" y="739" on="0"/>
        <pt x="235" y="739" on="0"/>
      </contour>
      <contour>
        <pt x="410" y="771" on="0"/>
        <pt x="410" y="815" on="0"/>
        <pt x="442" y="847" on="0"/>
        <pt x="486" y="847" on="0"/>
        <pt x="518" y="815" on="0"/>
        <pt x="518" y="771" on="0"/>
        <pt x="486" y="739" on="0"/>
        <pt x="442" y="739" on="0"/>
      </contour>
    </TTGlyph>
    <TTGlyph name="Z" xMin="56" yMin="0" xMax="610" yMax="700">
      <contour>
        <pt x="93" y="700" on="1"/>
        <pt x="610" y="700" on="1"/>
        <pt x="610" y="672" on="1"/>
        <pt x="136" y="23" on="1"/>
        <pt x="296" y="23" on="1"/>
        <pt x="447" y="23" on="0"/>
        <pt x="516" y="46" on="1"/>
        <pt x="556" y="59" on="0"/>
        <pt x="592" y="106" on="0"/>
        <pt x="592" y="143" on="1"/>
        <pt x="603" y="145" on="1"/>
        <pt x="603" y="0" on="1"/>
        <pt x="56" y="0" on="1"/>
        <pt x="56" y="32" on="1"/>
        <pt x="520" y="677" on="1"/>
        <pt x="299" y="677" on="0"/>
        <pt x="224" y="659" on="1"/>
        <pt x="142" y="639" on="0"/>
        <pt x="118" y="605" on="1"/>
        <pt x="105" y="585" on="0"/>
        <pt x="105" y="558" on="1"/>
        <pt x="93" y="556" on="1"/>
      </contour>
    </TTGlyph>
    <TTGlyph name="Zcaron" xMin="56" yMin="0" xMax="610" yMax="883">
      <contour>
        <pt x="93" y="700" on="1"/>
        <pt x="610" y="700" on="1"/>
        <pt x="610" y="672" on="1"/>
        <pt x="136" y="23" on="1"/>
        <pt x="296" y="23" on="1"/>
        <pt x="447" y="23" on="0"/>
        <pt x="516" y="46" on="1"/>
        <pt x="556" y="59" on="0"/>
        <pt x="592" y="106" on="0"/>
        <pt x="592" y="143" on="1"/>
        <pt x="603" y="145" on="1"/>
        <pt x="603" y="0" on="1"/>
        <pt x="56" y="0" on="1"/>
        <pt x="56" y="32" on="1"/>
        <pt x="520" y="677" on="1"/>
        <pt x="299" y="677" on="0"/>
        <pt x="224" y="659" on="1"/>
        <pt x="142" y="639" on="0"/>
        <pt x="118" y="605" on="1"/>
        <pt x="105" y="585" on="0"/>
        <pt x="105" y="558" on="1"/>
        <pt x="93" y="556" on="1"/>
      </contour>
      <contour>
        <pt x="351" y="732" on="0"/>
        <pt x="321" y="732" on="0"/>
        <pt x="299" y="747" on="0"/>
        <pt x="278" y="770" on="1"/>
        <pt x="198" y="861" on="1"/>
        <pt x="218" y="883" on="1"/>
        <pt x="336" y="806" on="1"/>
        <pt x="454" y="883" on="1"/>
        <pt x="474" y="861" on="1"/>
        <pt x="394" y="770" on="1"/>
        <pt x="373" y="747" on="0"/>
      </contour>
    </TTGlyph>
    <TTGlyph name="a" xMin="50" yMin="-10" xMax="503" yMax="483">
      <contour>
        <pt x="412" y="323" on="1"/>
        <pt x="412" y="222" on="1"/>
        <pt x="412" y="111" on="0"/>
        <pt x="426" y="42" on="0"/>
        <pt x="453" y="42" on="1"/>
        <pt x="470" y="42" on="0"/>
        <pt x="498" y="56" on="1"/>
        <pt x="503" y="46" on="1"/>
        <pt x="495" y="40" on="0"/>
        <pt x="469" y="23" on="0"/>
        <pt x="389" y="-5" on="0"/>
        <pt x="352" y="-5" on="1"/>
        <pt x="342" y="37" on="0"/>
        <pt x="342" y="129" on="1"/>
        <pt x="320" y="67" on="0"/>
        <pt x="249" y="-10" on="0"/>
        <pt x="123" y="-10" on="0"/>
        <pt x="50" y="57" on="0"/>
        <pt x="50" y="115" on="1"/>
        <pt x="50" y="276" on="0"/>
        <pt x="342" y="277" on="1"/>
        <pt x="342" y="313" on="1"/>
        <pt x="342" y="385" on="0"/>
        <pt x="300" y="461" on="0"/>
        <pt x="243" y="461" on="1"/>
        <pt x="211" y="461" on="0"/>
        <pt x="171" y="429" on="0"/>
        <pt x="164" y="410" on="1"/>
        <pt x="147" y="358" on="0"/>
        <pt x="80" y="358" on="0"/>
        <pt x="80" y="433" on="0"/>
        <pt x="180" y="483" on="0"/>
        <pt x="322" y="483" on="0"/>
        <pt x="412" y="402" on="0"/>
      </contour>
      <contour>
        <pt x="126" y="72" on="0"/>
        <pt x="164" y="21" on="0"/>
        <pt x="247" y="21" on="0"/>
        <pt x="315" y="102" on="0"/>
        <pt x="340" y="201" on="0"/>
        <pt x="342" y="254" on="1"/>
        <pt x="231" y="253" on="0"/>
        <pt x="126" y="173" on="0"/>
        <pt x="126" y="111" on="1"/>
      </contour>
    </TTGlyph>
    <TTGlyph name="aacute" xMin="50" yMin="-10" xMax="503" yMax="729">
      <contour>
        <pt x="412" y="323" on="1"/>
        <pt x="412" y="222" on="1"/>
        <pt x="412" y="111" on="0"/>
        <pt x="426" y="42" on="0"/>
        <pt x="453" y="42" on="1"/>
        <pt x="470" y="42" on="0"/>
        <pt x="498" y="56" on="1"/>
        <pt x="503" y="46" on="1"/>
        <pt x="495" y="40" on="0"/>
        <pt x="469" y="23" on="0"/>
        <pt x="389" y="-5" on="0"/>
        <pt x="352" y="-5" on="1"/>
        <pt x="342" y="37" on="0"/>
        <pt x="342" y="129" on="1"/>
        <pt x="320" y="67" on="0"/>
        <pt x="249" y="-10" on="0"/>
        <pt x="123" y="-10" on="0"/>
        <pt x="50" y="57" on="0"/>
        <pt x="50" y="115" on="1"/>
        <pt x="50" y="276" on="0"/>
        <pt x="342" y="277" on="1"/>
        <pt x="342" y="313" on="1"/>
        <pt x="342" y="385" on="0"/>
        <pt x="300" y="461" on="0"/>
        <pt x="243" y="461" on="1"/>
        <pt x="211" y="461" on="0"/>
        <pt x="171" y="429" on="0"/>
        <pt x="164" y="410" on="1"/>
        <pt x="147" y="358" on="0"/>
        <pt x="80" y="358" on="0"/>
        <pt x="80" y="433" on="0"/>
        <pt x="180" y="483" on="0"/>
        <pt x="322" y="483" on="0"/>
        <pt x="412" y="402" on="0"/>
      </contour>
      <contour>
        <pt x="126" y="72" on="0"/>
        <pt x="164" y="21" on="0"/>
        <pt x="247" y="21" on="0"/>
        <pt x="315" y="102" on="0"/>
        <pt x="340" y="201" on="0"/>
        <pt x="342" y="254" on="1"/>
        <pt x="231" y="253" on="0"/>
        <pt x="126" y="173" on="0"/>
        <pt x="126" y="111" on="1"/>
      </contour>
      <contour>
        <pt x="292" y="709" on="1"/>
        <pt x="315" y="729" on="0"/>
        <pt x="350" y="729" on="0"/>
        <pt x="370" y="709" on="0"/>
        <pt x="370" y="694" on="1"/>
        <pt x="370" y="666" on="0"/>
        <pt x="335" y="647" on="1"/>
        <pt x="173" y="564" on="1"/>
        <pt x="158" y="587" on="1"/>
      </contour>
    </TTGlyph>
    <TTGlyph name="acircumflex" xMin="50" yMin="-10" xMax="503" yMax="723">
      <contour>
        <pt x="412" y="323" on="1"/>
        <pt x="412" y="222" on="1"/>
        <pt x="412" y="111" on="0"/>
        <pt x="426" y="42" on="0"/>
        <pt x="453" y="42" on="1"/>
        <pt x="470" y="42" on="0"/>
        <pt x="498" y="56" on="1"/>
        <pt x="503" y="46" on="1"/>
        <pt x="495" y="40" on="0"/>
        <pt x="469" y="23" on="0"/>
        <pt x="389" y="-5" on="0"/>
        <pt x="352" y="-5" on="1"/>
        <pt x="342" y="37" on="0"/>
        <pt x="342" y="129" on="1"/>
        <pt x="320" y="67" on="0"/>
        <pt x="249" y="-10" on="0"/>
        <pt x="123" y="-10" on="0"/>
        <pt x="50" y="57" on="0"/>
        <pt x="50" y="115" on="1"/>
        <pt x="50" y="276" on="0"/>
        <pt x="342" y="277" on="1"/>
        <pt x="342" y="313" on="1"/>
        <pt x="342" y="385" on="0"/>
        <pt x="300" y="461" on="0"/>
        <pt x="243" y="461" on="1"/>
        <pt x="211" y="461" on="0"/>
        <pt x="171" y="429" on="0"/>
        <pt x="164" y="410" on="1"/>
        <pt x="147" y="358" on="0"/>
        <pt x="80" y="358" on="0"/>
        <pt x="80" y="433" on="0"/>
        <pt x="180" y="483" on="0"/>
        <pt x="322" y="483" on="0"/>
        <pt x="412" y="402" on="0"/>
      </contour>
      <contour>
        <pt x="126" y="72" on="0"/>
        <pt x="164" y="21" on="0"/>
        <pt x="247" y="21" on="0"/>
        <pt x="315" y="102" on="0"/>
        <pt x="340" y="201" on="0"/>
        <pt x="342" y="254" on="1"/>
        <pt x="231" y="253" on="0"/>
        <pt x="126" y="173" on="0"/>
        <pt x="126" y="111" on="1"/>
      </contour>
      <contour>
        <pt x="234" y="723" on="0"/>
        <pt x="264" y="723" on="0"/>
        <pt x="286" y="708" on="0"/>
        <pt x="307" y="685" on="1"/>
        <pt x="387" y="594" on="1"/>
        <pt x="367" y="572" on="1"/>
        <pt x="249" y="649" on="1"/>
        <pt x="131" y="572" on="1"/>
        <pt x="111" y="594" on="1"/>
        <pt x="191" y="685" on="1"/>
        <pt x="212" y="708" on="0"/>
      </contour>
    </TTGlyph>
    <TTGlyph name="acute" xMin="50" yMin="564" xMax="262" yMax="729">
      <contour>
        <pt x="184" y="709" on="1"/>
        <pt x="207" y="729" on="0"/>
        <pt x="242" y="729" on="0"/>
        <pt x="262" y="709" on="0"/>
        <pt x="262" y="694" on="1"/>
        <pt x="262" y="666" on="0"/>
        <pt x="227" y="647" on="1"/>
        <pt x="65" y="564" on="1"/>
        <pt x="50" y="587" on="1"/>
      </contour>
    </TTGlyph>
    <TTGlyph name="acute.case" xMin="41" yMin="732" xMax="278" yMax="869">
      <contour>
        <pt x="204" y="856" on="1"/>
        <pt x="224" y="869" on="0"/>
        <pt x="255" y="869" on="0"/>
        <pt x="278" y="850" on="0"/>
        <pt x="278" y="834" on="1"/>
        <pt x="278" y="801" on="0"/>
        <pt x="235" y="788" on="1"/>
        <pt x="52" y="732" on="1"/>
        <pt x="41" y="757" on="1"/>
      </contour>
    </TTGlyph>
    <TTGlyph name="adieresis" xMin="50" yMin="-10" xMax="503" yMax="697">
      <contour>
        <pt x="412" y="323" on="1"/>
        <pt x="412" y="222" on="1"/>
        <pt x="412" y="111" on="0"/>
        <pt x="426" y="42" on="0"/>
        <pt x="453" y="42" on="1"/>
        <pt x="470" y="42" on="0"/>
        <pt x="498" y="56" on="1"/>
        <pt x="503" y="46" on="1"/>
        <pt x="495" y="40" on="0"/>
        <pt x="469" y="23" on="0"/>
        <pt x="389" y="-5" on="0"/>
        <pt x="352" y="-5" on="1"/>
        <pt x="342" y="37" on="0"/>
        <pt x="342" y="129" on="1"/>
        <pt x="320" y="67" on="0"/>
        <pt x="249" y="-10" on="0"/>
        <pt x="123" y="-10" on="0"/>
        <pt x="50" y="57" on="0"/>
        <pt x="50" y="115" on="1"/>
        <pt x="50" y="276" on="0"/>
        <pt x="342" y="277" on="1"/>
        <pt x="342" y="313" on="1"/>
        <pt x="342" y="385" on="0"/>
        <pt x="300" y="461" on="0"/>
        <pt x="243" y="461" on="1"/>
        <pt x="211" y="461" on="0"/>
        <pt x="171" y="429" on="0"/>
        <pt x="164" y="410" on="1"/>
        <pt x="147" y="358" on="0"/>
        <pt x="80" y="358" on="0"/>
        <pt x="80" y="433" on="0"/>
        <pt x="180" y="483" on="0"/>
        <pt x="322" y="483" on="0"/>
        <pt x="412" y="402" on="0"/>
      </contour>
      <contour>
        <pt x="126" y="72" on="0"/>
        <pt x="164" y="21" on="0"/>
        <pt x="247" y="21" on="0"/>
        <pt x="315" y="102" on="0"/>
        <pt x="340" y="201" on="0"/>
        <pt x="342" y="254" on="1"/>
        <pt x="231" y="253" on="0"/>
        <pt x="126" y="173" on="0"/>
        <pt x="126" y="111" on="1"/>
      </contour>
      <contour>
        <pt x="101" y="621" on="0"/>
        <pt x="101" y="665" on="0"/>
        <pt x="133" y="697" on="0"/>
        <pt x="177" y="697" on="0"/>
        <pt x="209" y="665" on="0"/>
        <pt x="209" y="621" on="0"/>
        <pt x="177" y="589" on="0"/>
        <pt x="133" y="589" on="0"/>
      </contour>
      <contour>
        <pt x="308" y="621" on="0"/>
        <pt x="308" y="665" on="0"/>
        <pt x="340" y="697" on="0"/>
        <pt x="384" y="697" on="0"/>
        <pt x="416" y="665" on="0"/>
        <pt x="416" y="621" on="0"/>
        <pt x="384" y="589" on="0"/>
        <pt x="340" y="589" on="0"/>
      </contour>
    </TTGlyph>
    <TTGlyph name="ae" xMin="50" yMin="-10" xMax="745" yMax="483">
      <contour>
        <pt x="745" y="253" on="1"/>
        <pt x="417" y="253" on="1"/>
        <pt x="417" y="236" on="1"/>
        <pt x="417" y="130" on="0"/>
        <pt x="507" y="19" on="0"/>
        <pt x="574" y="19" on="1"/>
        <pt x="674" y="19" on="0"/>
        <pt x="718" y="99" on="1"/>
        <pt x="733" y="91" on="1"/>
        <pt x="681" y="-10" on="0"/>
        <pt x="559" y="-10" on="1"/>
        <pt x="486" y="-10" on="0"/>
        <pt x="373" y="79" on="0"/>
        <pt x="354" y="161" on="1"/>
        <pt x="317" y="-10" on="0"/>
        <pt x="183" y="-10" on="1"/>
        <pt x="123" y="-10" on="0"/>
        <pt x="50" y="57" on="0"/>
        <pt x="50" y="115" on="1"/>
        <pt x="50" y="279" on="0"/>
        <pt x="342" y="282" on="1"/>
        <pt x="342" y="313" on="1"/>
        <pt x="342" y="385" on="0"/>
        <pt x="300" y="461" on="0"/>
        <pt x="243" y="461" on="1"/>
        <pt x="211" y="461" on="0"/>
        <pt x="171" y="429" on="0"/>
        <pt x="164" y="410" on="1"/>
        <pt x="147" y="358" on="0"/>
        <pt x="80" y="358" on="0"/>
        <pt x="80" y="433" on="0"/>
        <pt x="180" y="483" on="0"/>
        <pt x="247" y="483" on="1"/>
        <pt x="355" y="483" on="0"/>
        <pt x="395" y="405" on="1"/>
        <pt x="450" y="483" on="0"/>
        <pt x="643" y="483" on="0"/>
        <pt x="745" y="354" on="0"/>
      </contour>
      <contour>
        <pt x="126" y="72" on="0"/>
        <pt x="164" y="21" on="0"/>
        <pt x="236" y="21" on="0"/>
        <pt x="292" y="67" on="0"/>
        <pt x="308" y="103" on="1"/>
        <pt x="340" y="175" on="0"/>
        <pt x="342" y="253" on="1"/>
        <pt x="231" y="252" on="0"/>
        <pt x="126" y="173" on="0"/>
        <pt x="126" y="111" on="1"/>
      </contour>
      <contour>
        <pt x="551" y="463" on="1"/>
        <pt x="493" y="463" on="0"/>
        <pt x="426" y="364" on="0"/>
        <pt x="419" y="282" on="1"/>
        <pt x="668" y="282" on="1"/>
        <pt x="661" y="463" on="0"/>
      </contour>
    </TTGlyph>
    <TTGlyph name="agrave" xMin="50" yMin="-10" xMax="503" yMax="729">
      <contour>
        <pt x="412" y="323" on="1"/>
        <pt x="412" y="222" on="1"/>
        <pt x="412" y="111" on="0"/>
        <pt x="426" y="42" on="0"/>
        <pt x="453" y="42" on="1"/>
        <pt x="470" y="42" on="0"/>
        <pt x="498" y="56" on="1"/>
        <pt x="503" y="46" on="1"/>
        <pt x="495" y="40" on="0"/>
        <pt x="469" y="23" on="0"/>
        <pt x="389" y="-5" on="0"/>
        <pt x="352" y="-5" on="1"/>
        <pt x="342" y="37" on="0"/>
        <pt x="342" y="129" on="1"/>
        <pt x="320" y="67" on="0"/>
        <pt x="249" y="-10" on="0"/>
        <pt x="123" y="-10" on="0"/>
        <pt x="50" y="57" on="0"/>
        <pt x="50" y="115" on="1"/>
        <pt x="50" y="276" on="0"/>
        <pt x="342" y="277" on="1"/>
        <pt x="342" y="313" on="1"/>
        <pt x="342" y="385" on="0"/>
        <pt x="300" y="461" on="0"/>
        <pt x="243" y="461" on="1"/>
        <pt x="211" y="461" on="0"/>
        <pt x="171" y="429" on="0"/>
        <pt x="164" y="410" on="1"/>
        <pt x="147" y="358" on="0"/>
        <pt x="80" y="358" on="0"/>
        <pt x="80" y="433" on="0"/>
        <pt x="180" y="483" on="0"/>
        <pt x="322" y="483" on="0"/>
        <pt x="412" y="402" on="0"/>
      </contour>
      <contour>
        <pt x="126" y="72" on="0"/>
        <pt x="164" y="21" on="0"/>
        <pt x="247" y="21" on="0"/>
        <pt x="315" y="102" on="0"/>
        <pt x="340" y="201" on="0"/>
        <pt x="342" y="254" on="1"/>
        <pt x="231" y="253" on="0"/>
        <pt x="126" y="173" on="0"/>
        <pt x="126" y="111" on="1"/>
      </contour>
      <contour>
        <pt x="147" y="709" on="0"/>
        <pt x="167" y="729" on="0"/>
        <pt x="202" y="729" on="0"/>
        <pt x="225" y="709" on="1"/>
        <pt x="359" y="587" on="1"/>
        <pt x="344" y="564" on="1"/>
        <pt x="182" y="647" on="1"/>
        <pt x="147" y="666" on="0"/>
        <pt x="147" y="694" on="1"/>
      </contour>
    </TTGlyph>
    <TTGlyph name="ampersand" xMin="30" yMin="-10" xMax="776" yMax="699">
      <contour>
        <pt x="252" y="-10" on="1"/>
        <pt x="146" y="-10" on="0"/>
        <pt x="30" y="99" on="0"/>
        <pt x="30" y="194" on="1"/>
        <pt x="30" y="269" on="0"/>
        <pt x="149" y="396" on="0"/>
        <pt x="236" y="430" on="1"/>
        <pt x="229" y="470" on="0"/>
        <pt x="229" y="502" on="1"/>
        <pt x="229" y="586" on="0"/>
        <pt x="326" y="699" on="0"/>
        <pt x="403" y="699" on="1"/>
        <pt x="457" y="699" on="0"/>
        <pt x="526" y="633" on="0"/>
        <pt x="526" y="529" on="0"/>
        <pt x="448" y="446" on="0"/>
        <pt x="360" y="443" on="1"/>
        <pt x="436" y="403" on="0"/>
        <pt x="537" y="403" on="1"/>
        <pt x="599" y="403" on="0"/>
        <pt x="663" y="449" on="1"/>
        <pt x="692" y="470" on="0"/>
        <pt x="709" y="470" on="1"/>
        <pt x="732" y="470" on="0"/>
        <pt x="732" y="445" on="1"/>
        <pt x="732" y="429" on="0"/>
        <pt x="693" y="402" on="0"/>
        <pt x="663" y="394" on="1"/>
        <pt x="605" y="380" on="0"/>
        <pt x="561" y="378" on="1"/>
        <pt x="558" y="235" on="0"/>
        <pt x="507" y="139" on="1"/>
        <pt x="564" y="92" on="0"/>
        <pt x="715" y="13" on="0"/>
        <pt x="774" y="12" on="1"/>
        <pt x="776" y="0" on="1"/>
        <pt x="625" y="0" on="1"/>
        <pt x="561" y="14" on="0"/>
        <pt x="471" y="85" on="1"/>
        <pt x="390" y="-10" on="0"/>
      </contour>
      <contour>
        <pt x="267" y="20" on="1"/>
        <pt x="389" y="20" on="0"/>
        <pt x="446" y="105" on="1"/>
        <pt x="372" y="167" on="0"/>
        <pt x="260" y="327" on="0"/>
        <pt x="239" y="415" on="1"/>
        <pt x="110" y="342" on="0"/>
        <pt x="110" y="193" on="1"/>
        <pt x="110" y="111" on="0"/>
        <pt x="201" y="20" on="0"/>
      </contour>
      <contour>
        <pt x="356" y="681" on="0"/>
        <pt x="301" y="584" on="0"/>
        <pt x="301" y="434" on="0"/>
        <pt x="387" y="248" on="0"/>
        <pt x="477" y="165" on="1"/>
        <pt x="515" y="257" on="0"/>
        <pt x="517" y="379" on="1"/>
        <pt x="418" y="388" on="0"/>
        <pt x="347" y="443" on="1"/>
        <pt x="347" y="452" on="1"/>
        <pt x="396" y="452" on="0"/>
        <pt x="463" y="525" on="0"/>
        <pt x="463" y="621" on="0"/>
        <pt x="428" y="681" on="0"/>
        <pt x="397" y="681" on="1"/>
      </contour>
    </TTGlyph>
    <TTGlyph name="apple" xMin="120" yMin="-114" xMax="843" yMax="608">
      <contour>
        <pt x="609" y="-89" on="1"/>
        <pt x="586" y="-88" on="1"/>
        <pt x="572" y="-88" on="0"/>
        <pt x="537" y="-112" on="0"/>
        <pt x="528" y="-112" on="1"/>
        <pt x="482" y="-102" on="1"/>
        <pt x="474" y="-102" on="0"/>
        <pt x="443" y="-114" on="0"/>
        <pt x="426" y="-114" on="0"/>
        <pt x="394" y="-89" on="0"/>
        <pt x="381" y="-89" on="1"/>
        <pt x="357" y="-91" on="1"/>
        <pt x="342" y="-91" on="0"/>
        <pt x="324" y="-74" on="1"/>
        <pt x="306" y="-55" on="1"/>
        <pt x="294" y="-49" on="0"/>
        <pt x="268" y="-47" on="0"/>
        <pt x="250" y="-36" on="0"/>
        <pt x="236" y="-1" on="0"/>
        <pt x="225" y="8" on="0"/>
        <pt x="197" y="19" on="0"/>
        <pt x="191" y="28" on="1"/>
        <pt x="186" y="37" on="0"/>
        <pt x="182" y="66" on="0"/>
        <pt x="174" y="79" on="0"/>
        <pt x="164" y="86" on="1"/>
        <pt x="142" y="104" on="0"/>
        <pt x="142" y="124" on="1"/>
        <pt x="145" y="149" on="1"/>
        <pt x="145" y="158" on="0"/>
        <pt x="120" y="193" on="0"/>
        <pt x="120" y="211" on="0"/>
        <pt x="132" y="240" on="0"/>
        <pt x="132" y="257" on="0"/>
        <pt x="120" y="283" on="0"/>
        <pt x="120" y="301" on="0"/>
        <pt x="145" y="342" on="0"/>
        <pt x="145" y="351" on="1"/>
        <pt x="144" y="376" on="1"/>
        <pt x="144" y="391" on="0"/>
        <pt x="177" y="420" on="0"/>
        <pt x="182" y="430" on="0"/>
        <pt x="186" y="462" on="0"/>
        <pt x="194" y="474" on="0"/>
        <pt x="225" y="486" on="0"/>
        <pt x="235" y="496" on="0"/>
        <pt x="249" y="527" on="0"/>
        <pt x="262" y="538" on="0"/>
        <pt x="300" y="546" on="0"/>
        <pt x="311" y="552" on="0"/>
        <pt x="341" y="586" on="0"/>
        <pt x="355" y="587" on="1"/>
        <pt x="381" y="585" on="1"/>
        <pt x="394" y="585" on="0"/>
        <pt x="425" y="608" on="0"/>
        <pt x="436" y="608" on="1"/>
        <pt x="480" y="596" on="1"/>
        <pt x="525" y="608" on="1"/>
        <pt x="538" y="608" on="0"/>
        <pt x="570" y="583" on="0"/>
        <pt x="582" y="583" on="1"/>
        <pt x="610" y="586" on="1"/>
        <pt x="626" y="586" on="0"/>
        <pt x="652" y="553" on="0"/>
        <pt x="665" y="546" on="0"/>
        <pt x="695" y="540" on="0"/>
        <pt x="710" y="530" on="0"/>
        <pt x="720" y="502" on="0"/>
        <pt x="731" y="492" on="0"/>
        <pt x="771" y="471" on="0"/>
        <pt x="780" y="455" on="0"/>
        <pt x="781" y="423" on="0"/>
        <pt x="786" y="414" on="0"/>
        <pt x="820" y="385" on="0"/>
        <pt x="820" y="369" on="1"/>
        <pt x="819" y="344" on="1"/>
        <pt x="819" y="331" on="0"/>
        <pt x="843" y="294" on="0"/>
        <pt x="843" y="276" on="0"/>
        <pt x="832" y="250" on="0"/>
        <pt x="832" y="236" on="0"/>
        <pt x="843" y="207" on="0"/>
        <pt x="842" y="191" on="0"/>
        <pt x="818" y="166" on="0"/>
        <pt x="818" y="152" on="1"/>
        <pt x="820" y="120" on="1"/>
        <pt x="820" y="104" on="0"/>
        <pt x="788" y="78" on="0"/>
        <pt x="783" y="68" on="0"/>
        <pt x="774" y="30" on="0"/>
        <pt x="763" y="17" on="0"/>
        <pt x="738" y="6" on="0"/>
        <pt x="728" y="-4" on="0"/>
        <pt x="710" y="-37" on="0"/>
        <pt x="696" y="-47" on="0"/>
        <pt x="661" y="-56" on="0"/>
        <pt x="651" y="-62" on="0"/>
        <pt x="624" y="-89" on="0"/>
      </contour>
      <contour>
        <pt x="482" y="-6" on="1"/>
        <pt x="515" y="-13" on="1"/>
        <pt x="521" y="-13" on="0"/>
        <pt x="532" y="-6" on="1"/>
        <pt x="547" y="4" on="0"/>
        <pt x="559" y="4" on="1"/>
        <pt x="574" y="3" on="1"/>
        <pt x="586" y="3" on="0"/>
        <pt x="604" y="23" on="0"/>
        <pt x="611" y="27" on="0"/>
        <pt x="637" y="34" on="0"/>
        <pt x="648" y="42" on="0"/>
        <pt x="661" y="65" on="0"/>
        <pt x="668" y="72" on="0"/>
        <pt x="686" y="80" on="0"/>
        <pt x="694" y="89" on="0"/>
        <pt x="700" y="117" on="0"/>
        <pt x="705" y="125" on="0"/>
        <pt x="727" y="143" on="0"/>
        <pt x="727" y="157" on="1"/>
        <pt x="726" y="177" on="1"/>
        <pt x="726" y="188" on="0"/>
        <pt x="743" y="207" on="0"/>
        <pt x="744" y="213" on="1"/>
        <pt x="736" y="245" on="1"/>
        <pt x="744" y="273" on="1"/>
        <pt x="744" y="281" on="0"/>
        <pt x="726" y="309" on="0"/>
        <pt x="726" y="318" on="1"/>
        <pt x="727" y="335" on="1"/>
        <pt x="727" y="347" on="0"/>
        <pt x="703" y="367" on="0"/>
        <pt x="699" y="375" on="0"/>
        <pt x="698" y="398" on="0"/>
        <pt x="692" y="409" on="0"/>
        <pt x="663" y="424" on="0"/>
        <pt x="655" y="432" on="0"/>
        <pt x="647" y="452" on="0"/>
        <pt x="637" y="460" on="0"/>
        <pt x="615" y="464" on="0"/>
        <pt x="605" y="469" on="0"/>
        <pt x="587" y="493" on="0"/>
        <pt x="575" y="493" on="1"/>
        <pt x="555" y="491" on="1"/>
        <pt x="546" y="491" on="0"/>
        <pt x="524" y="509" on="0"/>
        <pt x="514" y="509" on="1"/>
        <pt x="481" y="500" on="1"/>
        <pt x="449" y="509" on="1"/>
        <pt x="441" y="509" on="0"/>
        <pt x="417" y="492" on="0"/>
        <pt x="407" y="492" on="1"/>
        <pt x="390" y="493" on="1"/>
        <pt x="379" y="493" on="0"/>
        <pt x="358" y="468" on="0"/>
        <pt x="349" y="463" on="0"/>
        <pt x="323" y="458" on="0"/>
        <pt x="313" y="450" on="0"/>
        <pt x="303" y="428" on="0"/>
        <pt x="295" y="420" on="0"/>
        <pt x="274" y="412" on="0"/>
        <pt x="270" y="407" on="1"/>
        <pt x="268" y="403" on="0"/>
        <pt x="264" y="380" on="0"/>
        <pt x="260" y="372" on="0"/>
        <pt x="236" y="351" on="0"/>
        <pt x="236" y="340" on="1"/>
        <pt x="237" y="324" on="1"/>
        <pt x="237" y="316" on="0"/>
        <pt x="220" y="286" on="0"/>
        <pt x="220" y="278" on="1"/>
        <pt x="228" y="248" on="1"/>
        <pt x="220" y="215" on="1"/>
        <pt x="220" y="207" on="0"/>
        <pt x="237" y="182" on="0"/>
        <pt x="237" y="174" on="1"/>
        <pt x="235" y="158" on="1"/>
        <pt x="235" y="147" on="0"/>
        <pt x="260" y="124" on="0"/>
        <pt x="264" y="116" on="0"/>
        <pt x="267" y="95" on="0"/>
        <pt x="275" y="82" on="0"/>
        <pt x="295" y="74" on="0"/>
        <pt x="303" y="67" on="0"/>
        <pt x="314" y="41" on="0"/>
        <pt x="326" y="33" on="0"/>
        <pt x="345" y="33" on="0"/>
        <pt x="357" y="27" on="0"/>
        <pt x="380" y="2" on="0"/>
        <pt x="391" y="2" on="1"/>
        <pt x="406" y="3" on="1"/>
        <pt x="416" y="3" on="0"/>
        <pt x="440" y="-14" on="0"/>
        <pt x="446" y="-15" on="1"/>
      </contour>
      <contour>
        <pt x="412" y="417" on="0"/>
        <pt x="552" y="417" on="0"/>
        <pt x="652" y="318" on="0"/>
        <pt x="652" y="176" on="0"/>
        <pt x="552" y="77" on="0"/>
        <pt x="412" y="77" on="0"/>
        <pt x="312" y="176" on="0"/>
        <pt x="312" y="318" on="0"/>
      </contour>
      <contour>
        <pt x="524" y="292" on="1"/>
        <pt x="577" y="292" on="1"/>
        <pt x="577" y="360" on="1"/>
        <pt x="386" y="360" on="1"/>
        <pt x="386" y="292" on="1"/>
        <pt x="439" y="292" on="1"/>
        <pt x="439" y="117" on="1"/>
        <pt x="524" y="117" on="1"/>
      </contour>
    </TTGlyph>
    <TTGlyph name="approxequal" xMin="98" yMin="171" xMax="452" yMax="467">
      <contour>
        <pt x="363" y="239" on="1"/>
        <pt x="333" y="239" on="0"/>
        <pt x="213" y="171" on="0"/>
        <pt x="126" y="171" on="0"/>
        <pt x="98" y="205" on="1"/>
        <pt x="98" y="253" on="1"/>
        <pt x="127" y="219" on="0"/>
        <pt x="179" y="219" on="1"/>
        <pt x="208" y="219" on="0"/>
        <pt x="326" y="287" on="0"/>
        <pt x="413" y="287" on="0"/>
        <pt x="452" y="253" on="1"/>
        <pt x="452" y="205" on="1"/>
        <pt x="413" y="239" on="0"/>
      </contour>
      <contour>
        <pt x="363" y="419" on="1"/>
        <pt x="333" y="419" on="0"/>
        <pt x="213" y="351" on="0"/>
        <pt x="126" y="351" on="0"/>
        <pt x="98" y="385" on="1"/>
        <pt x="98" y="433" on="1"/>
        <pt x="127" y="399" on="0"/>
        <pt x="179" y="399" on="1"/>
        <pt x="208" y="399" on="0"/>
        <pt x="326" y="467" on="0"/>
        <pt x="413" y="467" on="0"/>
        <pt x="452" y="433" on="1"/>
        <pt x="452" y="385" on="1"/>
        <pt x="413" y="419" on="0"/>
      </contour>
    </TTGlyph>
    <TTGlyph name="aring" xMin="50" yMin="-10" xMax="503" yMax="742">
      <contour>
        <pt x="412" y="323" on="1"/>
        <pt x="412" y="222" on="1"/>
        <pt x="412" y="111" on="0"/>
        <pt x="426" y="42" on="0"/>
        <pt x="453" y="42" on="1"/>
        <pt x="470" y="42" on="0"/>
        <pt x="498" y="56" on="1"/>
        <pt x="503" y="46" on="1"/>
        <pt x="495" y="40" on="0"/>
        <pt x="469" y="23" on="0"/>
        <pt x="389" y="-5" on="0"/>
        <pt x="352" y="-5" on="1"/>
        <pt x="342" y="37" on="0"/>
        <pt x="342" y="129" on="1"/>
        <pt x="320" y="67" on="0"/>
        <pt x="249" y="-10" on="0"/>
        <pt x="123" y="-10" on="0"/>
        <pt x="50" y="57" on="0"/>
        <pt x="50" y="115" on="1"/>
        <pt x="50" y="276" on="0"/>
        <pt x="342" y="277" on="1"/>
        <pt x="342" y="313" on="1"/>
        <pt x="342" y="385" on="0"/>
        <pt x="300" y="461" on="0"/>
        <pt x="243" y="461" on="1"/>
        <pt x="211" y="461" on="0"/>
        <pt x="171" y="429" on="0"/>
        <pt x="164" y="410" on="1"/>
        <pt x="147" y="358" on="0"/>
        <pt x="80" y="358" on="0"/>
        <pt x="80" y="433" on="0"/>
        <pt x="180" y="483" on="0"/>
        <pt x="322" y="483" on="0"/>
        <pt x="412" y="402" on="0"/>
      </contour>
      <contour>
        <pt x="126" y="72" on="0"/>
        <pt x="164" y="21" on="0"/>
        <pt x="247" y="21" on="0"/>
        <pt x="315" y="102" on="0"/>
        <pt x="340" y="201" on="0"/>
        <pt x="342" y="254" on="1"/>
        <pt x="231" y="253" on="0"/>
        <pt x="126" y="173" on="0"/>
        <pt x="126" y="111" on="1"/>
      </contour>
      <contour>
        <pt x="150" y="685" on="0"/>
        <pt x="205" y="742" on="0"/>
        <pt x="294" y="742" on="0"/>
        <pt x="348" y="685" on="0"/>
        <pt x="348" y="601" on="0"/>
        <pt x="294" y="544" on="0"/>
        <pt x="205" y="544" on="0"/>
        <pt x="150" y="601" on="0"/>
      </contour>
      <contour>
        <pt x="228" y="582" on="0"/>
        <pt x="270" y="582" on="0"/>
        <pt x="293" y="616" on="0"/>
        <pt x="293" y="668" on="0"/>
        <pt x="269" y="703" on="0"/>
        <pt x="228" y="703" on="0"/>
        <pt x="204" y="668" on="0"/>
        <pt x="204" y="616" on="0"/>
      </contour>
    </TTGlyph>
    <TTGlyph name="asciicircum" xMin="131" yMin="496" xMax="419" yMax="700">
      <contour>
        <pt x="251" y="700" on="1"/>
        <pt x="299" y="700" on="1"/>
        <pt x="419" y="496" on="1"/>
        <pt x="371" y="496" on="1"/>
        <pt x="275" y="663" on="1"/>
        <pt x="179" y="496" on="1"/>
        <pt x="131" y="496" on="1"/>
      </contour>
    </TTGlyph>
    <TTGlyph name="asciitilde" xMin="98" yMin="261" xMax="452" yMax="377">
      <contour>
        <pt x="363" y="329" on="1"/>
        <pt x="333" y="329" on="0"/>
        <pt x="213" y="261" on="0"/>
        <pt x="126" y="261" on="0"/>
        <pt x="98" y="295" on="1"/>
        <pt x="98" y="343" on="1"/>
        <pt x="127" y="309" on="0"/>
        <pt x="179" y="309" on="1"/>
        <pt x="208" y="309" on="0"/>
        <pt x="326" y="377" on="0"/>
        <pt x="413" y="377" on="0"/>
        <pt x="452" y="343" on="1"/>
        <pt x="452" y="295" on="1"/>
        <pt x="413" y="329" on="0"/>
      </contour>
    </TTGlyph>
    <TTGlyph name="asterisk" xMin="50" yMin="332" xMax="409" yMax="735">
      <contour>
        <pt x="310" y="502" on="0"/>
        <pt x="380" y="489" on="0"/>
        <pt x="409" y="471" on="0"/>
        <pt x="409" y="438" on="0"/>
        <pt x="387" y="414" on="0"/>
        <pt x="366" y="414" on="0"/>
        <pt x="345" y="426" on="0"/>
        <pt x="297" y="480" on="0"/>
        <pt x="235" y="525" on="1"/>
        <pt x="243" y="449" on="0"/>
        <pt x="266" y="380" on="0"/>
        <pt x="266" y="351" on="0"/>
        <pt x="245" y="332" on="0"/>
        <pt x="213" y="332" on="0"/>
        <pt x="193" y="351" on="0"/>
        <pt x="193" y="380" on="0"/>
        <pt x="217" y="449" on="0"/>
        <pt x="225" y="525" on="1"/>
        <pt x="150" y="471" on="0"/>
        <pt x="135" y="450" on="1"/>
        <pt x="108" y="414" on="0"/>
        <pt x="85" y="414" on="1"/>
        <pt x="72" y="414" on="0"/>
        <pt x="50" y="437" on="0"/>
        <pt x="50" y="470" on="0"/>
        <pt x="79" y="489" on="0"/>
        <pt x="150" y="503" on="0"/>
        <pt x="220" y="533" on="1"/>
        <pt x="150" y="564" on="0"/>
        <pt x="79" y="579" on="0"/>
        <pt x="50" y="597" on="0"/>
        <pt x="50" y="630" on="0"/>
        <pt x="72" y="653" on="0"/>
        <pt x="95" y="653" on="0"/>
        <pt x="113" y="643" on="0"/>
        <pt x="129" y="627" on="0"/>
        <pt x="135" y="618" on="1"/>
        <pt x="151" y="596" on="0"/>
        <pt x="225" y="542" on="1"/>
        <pt x="217" y="619" on="0"/>
        <pt x="193" y="687" on="0"/>
        <pt x="193" y="715" on="0"/>
        <pt x="213" y="735" on="0"/>
        <pt x="245" y="735" on="0"/>
        <pt x="266" y="715" on="0"/>
        <pt x="266" y="687" on="0"/>
        <pt x="243" y="619" on="0"/>
        <pt x="235" y="542" on="1"/>
        <pt x="297" y="587" on="0"/>
        <pt x="345" y="642" on="0"/>
        <pt x="365" y="653" on="0"/>
        <pt x="387" y="653" on="0"/>
        <pt x="409" y="630" on="0"/>
        <pt x="409" y="597" on="0"/>
        <pt x="380" y="579" on="0"/>
        <pt x="310" y="564" on="0"/>
        <pt x="240" y="533" on="1"/>
      </contour>
    </TTGlyph>
    <TTGlyph name="at" xMin="80" yMin="-66" xMax="743" yMax="622">
      <contour>
        <pt x="559" y="108" on="1"/>
        <pt x="490" y="108" on="0"/>
        <pt x="490" y="179" on="1"/>
        <pt x="490" y="200" on="0"/>
        <pt x="501" y="233" on="1"/>
        <pt x="496" y="233" on="1"/>
        <pt x="479" y="183" on="0"/>
        <pt x="409" y="108" on="0"/>
        <pt x="299" y="108" on="0"/>
        <pt x="239" y="177" on="0"/>
        <pt x="239" y="236" on="1"/>
        <pt x="239" y="308" on="0"/>
        <pt x="308" y="388" on="1"/>
        <pt x="342" y="426" on="0"/>
        <pt x="460" y="476" on="0"/>
        <pt x="533" y="476" on="1"/>
        <pt x="612" y="471" on="1"/>
        <pt x="590" y="397" on="0"/>
        <pt x="560" y="236" on="0"/>
        <pt x="560" y="198" on="1"/>
        <pt x="560" y="137" on="0"/>
        <pt x="588" y="137" on="1"/>
        <pt x="633" y="137" on="0"/>
        <pt x="724" y="250" on="0"/>
        <pt x="724" y="327" on="1"/>
        <pt x="723" y="456" on="0"/>
        <pt x="560" y="596" on="0"/>
        <pt x="311" y="596" on="0"/>
        <pt x="155" y="412" on="0"/>
        <pt x="155" y="140" on="0"/>
        <pt x="310" y="-37" on="0"/>
        <pt x="433" y="-37" on="1"/>
        <pt x="536" y="-37" on="0"/>
        <pt x="622" y="7" on="1"/>
        <pt x="622" y="-19" on="1"/>
        <pt x="540" y="-66" on="0"/>
        <pt x="424" y="-66" on="1"/>
        <pt x="282" y="-66" on="0"/>
        <pt x="80" y="136" on="0"/>
        <pt x="80" y="420" on="0"/>
        <pt x="282" y="622" on="0"/>
        <pt x="569" y="622" on="0"/>
        <pt x="743" y="467" on="0"/>
        <pt x="743" y="327" on="1"/>
        <pt x="743" y="229" on="0"/>
        <pt x="624" y="108" on="0"/>
      </contour>
      <contour>
        <pt x="317" y="187" on="0"/>
        <pt x="350" y="137" on="0"/>
        <pt x="414" y="137" on="0"/>
        <pt x="472" y="212" on="0"/>
        <pt x="490" y="270" on="1"/>
        <pt x="520" y="372" on="0"/>
        <pt x="529" y="451" on="1"/>
        <pt x="474" y="451" on="0"/>
        <pt x="388" y="402" on="0"/>
        <pt x="364" y="366" on="1"/>
        <pt x="317" y="292" on="0"/>
        <pt x="317" y="225" on="1"/>
      </contour>
    </TTGlyph>
    <TTGlyph name="atilde" xMin="50" yMin="-10" xMax="503" yMax="698">
      <contour>
        <pt x="412" y="323" on="1"/>
        <pt x="412" y="222" on="1"/>
        <pt x="412" y="111" on="0"/>
        <pt x="426" y="42" on="0"/>
        <pt x="453" y="42" on="1"/>
        <pt x="470" y="42" on="0"/>
        <pt x="498" y="56" on="1"/>
        <pt x="503" y="46" on="1"/>
        <pt x="495" y="40" on="0"/>
        <pt x="469" y="23" on="0"/>
        <pt x="389" y="-5" on="0"/>
        <pt x="352" y="-5" on="1"/>
        <pt x="342" y="37" on="0"/>
        <pt x="342" y="129" on="1"/>
        <pt x="320" y="67" on="0"/>
        <pt x="249" y="-10" on="0"/>
        <pt x="123" y="-10" on="0"/>
        <pt x="50" y="57" on="0"/>
        <pt x="50" y="115" on="1"/>
        <pt x="50" y="276" on="0"/>
        <pt x="342" y="277" on="1"/>
        <pt x="342" y="313" on="1"/>
        <pt x="342" y="385" on="0"/>
        <pt x="300" y="461" on="0"/>
        <pt x="243" y="461" on="1"/>
        <pt x="211" y="461" on="0"/>
        <pt x="171" y="429" on="0"/>
        <pt x="164" y="410" on="1"/>
        <pt x="147" y="358" on="0"/>
        <pt x="80" y="358" on="0"/>
        <pt x="80" y="433" on="0"/>
        <pt x="180" y="483" on="0"/>
        <pt x="322" y="483" on="0"/>
        <pt x="412" y="402" on="0"/>
      </contour>
      <contour>
        <pt x="126" y="72" on="0"/>
        <pt x="164" y="21" on="0"/>
        <pt x="247" y="21" on="0"/>
        <pt x="315" y="102" on="0"/>
        <pt x="340" y="201" on="0"/>
        <pt x="342" y="254" on="1"/>
        <pt x="231" y="253" on="0"/>
        <pt x="126" y="173" on="0"/>
        <pt x="126" y="111" on="1"/>
      </contour>
      <contour>
        <pt x="317" y="586" on="1"/>
        <pt x="289" y="586" on="0"/>
        <pt x="202" y="628" on="0"/>
        <pt x="179" y="628" on="1"/>
        <pt x="140" y="628" on="0"/>
        <pt x="122" y="583" on="1"/>
        <pt x="98" y="592" on="1"/>
        <pt x="120" y="695" on="0"/>
        <pt x="180" y="695" on="1"/>
        <pt x="208" y="695" on="0"/>
        <pt x="295" y="653" on="0"/>
        <pt x="318" y="653" on="1"/>
        <pt x="357" y="653" on="0"/>
        <pt x="375" y="698" on="1"/>
        <pt x="399" y="689" on="1"/>
        <pt x="377" y="586" on="0"/>
      </contour>
    </TTGlyph>
    <TTGlyph name="b" xMin="20" yMin="-10" xMax="516" yMax="735">
      <contour>
        <pt x="329" y="483" on="1"/>
        <pt x="394" y="483" on="0"/>
        <pt x="438" y="444" on="1"/>
        <pt x="516" y="375" on="0"/>
        <pt x="516" y="235" on="1"/>
        <pt x="516" y="128" on="0"/>
        <pt x="381" y="-10" on="0"/>
        <pt x="266" y="-10" on="1"/>
        <pt x="219" y="-10" on="0"/>
        <pt x="139" y="4" on="0"/>
        <pt x="122" y="10" on="1"/>
        <pt x="106" y="17" on="1"/>
        <pt x="106" y="558" on="1"/>
        <pt x="106" y="667" on="0"/>
        <pt x="94" y="690" on="1"/>
        <pt x="90" y="697" on="0"/>
        <pt x="68" y="710" on="0"/>
        <pt x="44" y="712" on="0"/>
        <pt x="22" y="712" on="1"/>
        <pt x="20" y="723" on="1"/>
        <pt x="92" y="735" on="0"/>
        <pt x="176" y="735" on="1"/>
        <pt x="176" y="352" on="1"/>
        <pt x="218" y="483" on="0"/>
      </contour>
      <contour>
        <pt x="176" y="49" on="1"/>
        <pt x="214" y="19" on="0"/>
        <pt x="321" y="19" on="0"/>
        <pt x="389" y="61" on="0"/>
        <pt x="424" y="128" on="0"/>
        <pt x="440" y="199" on="0"/>
        <pt x="440" y="271" on="0"/>
        <pt x="429" y="339" on="0"/>
        <pt x="404" y="409" on="0"/>
        <pt x="350" y="452" on="0"/>
        <pt x="266" y="452" on="0"/>
        <pt x="200" y="364" on="0"/>
        <pt x="176" y="269" on="0"/>
        <pt x="176" y="233" on="1"/>
      </contour>
    </TTGlyph>
    <TTGlyph name="backslash" xMin="15" yMin="-85" xMax="288" yMax="670">
      <contour>
        <pt x="76" y="670" on="1"/>
        <pt x="288" y="-85" on="1"/>
        <pt x="227" y="-85" on="1"/>
        <pt x="15" y="670" on="1"/>
      </contour>
    </TTGlyph>
    <TTGlyph name="bar" xMin="75" yMin="-194" xMax="136" yMax="720">
      <contour>
        <pt x="136" y="720" on="1"/>
        <pt x="136" y="-194" on="1"/>
        <pt x="75" y="-194" on="1"/>
        <pt x="75" y="720" on="1"/>
      </contour>
    </TTGlyph>
    <TTGlyph name="barra" xMin="65" yMin="326" xMax="405" yMax="376">
      <contour>
        <pt x="65" y="326" on="1"/>
        <pt x="65" y="376" on="1"/>
        <pt x="405" y="376" on="1"/>
        <pt x="405" y="326" on="1"/>
      </contour>
    </TTGlyph>
    <TTGlyph name="braceleft" xMin="55" yMin="-102" xMax="295" yMax="740">
      <contour>
        <pt x="93" y="334" on="0"/>
        <pt x="117" y="407" on="0"/>
        <pt x="117" y="572" on="0"/>
        <pt x="131" y="642" on="0"/>
        <pt x="149" y="674" on="1"/>
        <pt x="186" y="740" on="0"/>
        <pt x="295" y="740" on="1"/>
        <pt x="295" y="713" on="1"/>
        <pt x="243" y="713" on="0"/>
        <pt x="192" y="619" on="0"/>
        <pt x="192" y="544" on="1"/>
        <pt x="192" y="426" on="0"/>
        <pt x="158" y="326" on="0"/>
        <pt x="109" y="319" on="1"/>
        <pt x="158" y="312" on="0"/>
        <pt x="192" y="212" on="0"/>
        <pt x="192" y="94" on="1"/>
        <pt x="192" y="19" on="0"/>
        <pt x="243" y="-75" on="0"/>
        <pt x="295" y="-75" on="1"/>
        <pt x="295" y="-102" on="1"/>
        <pt x="186" y="-102" on="0"/>
        <pt x="149" y="-36" on="1"/>
        <pt x="117" y="21" on="0"/>
        <pt x="117" y="231" on="0"/>
        <pt x="93" y="304" on="0"/>
        <pt x="55" y="306" on="1"/>
        <pt x="55" y="332" on="1"/>
      </contour>
    </TTGlyph>
    <TTGlyph name="braceright" xMin="35" yMin="-102" xMax="275" yMax="740">
      <contour>
        <pt x="237" y="304" on="0"/>
        <pt x="213" y="231" on="0"/>
        <pt x="213" y="66" on="0"/>
        <pt x="199" y="-4" on="0"/>
        <pt x="181" y="-36" on="1"/>
        <pt x="144" y="-102" on="0"/>
        <pt x="35" y="-102" on="1"/>
        <pt x="35" y="-75" on="1"/>
        <pt x="87" y="-75" on="0"/>
        <pt x="138" y="19" on="0"/>
        <pt x="138" y="94" on="1"/>
        <pt x="138" y="212" on="0"/>
        <pt x="172" y="312" on="0"/>
        <pt x="221" y="319" on="1"/>
        <pt x="172" y="326" on="0"/>
        <pt x="138" y="426" on="0"/>
        <pt x="138" y="544" on="1"/>
        <pt x="138" y="619" on="0"/>
        <pt x="87" y="713" on="0"/>
        <pt x="35" y="713" on="1"/>
        <pt x="35" y="740" on="1"/>
        <pt x="144" y="740" on="0"/>
        <pt x="181" y="674" on="1"/>
        <pt x="213" y="617" on="0"/>
        <pt x="213" y="407" on="0"/>
        <pt x="237" y="334" on="0"/>
        <pt x="275" y="332" on="1"/>
        <pt x="275" y="306" on="1"/>
      </contour>
    </TTGlyph>
    <TTGlyph name="bracketleft" xMin="75" yMin="-93" xMax="222" yMax="732">
      <contour>
        <pt x="75" y="-93" on="1"/>
        <pt x="75" y="732" on="1"/>
        <pt x="222" y="732" on="1"/>
        <pt x="222" y="710" on="1"/>
        <pt x="149" y="710" on="1"/>
        <pt x="149" y="-71" on="1"/>
        <pt x="222" y="-71" on="1"/>
        <pt x="222" y="-93" on="1"/>
      </contour>
    </TTGlyph>
    <TTGlyph name="bracketright" xMin="25" yMin="-93" xMax="172" yMax="732">
      <contour>
        <pt x="172" y="732" on="1"/>
        <pt x="172" y="-93" on="1"/>
        <pt x="25" y="-93" on="1"/>
        <pt x="25" y="-71" on="1"/>
        <pt x="98" y="-71" on="1"/>
        <pt x="98" y="710" on="1"/>
        <pt x="25" y="710" on="1"/>
        <pt x="25" y="732" on="1"/>
      </contour>
    </TTGlyph>
    <TTGlyph name="breve" xMin="50" yMin="574" xMax="326" yMax="719">
      <contour>
        <pt x="276" y="574" on="0"/>
        <pt x="100" y="574" on="0"/>
        <pt x="50" y="703" on="1"/>
        <pt x="78" y="719" on="1"/>
        <pt x="125" y="641" on="0"/>
        <pt x="248" y="641" on="0"/>
        <pt x="298" y="719" on="1"/>
        <pt x="326" y="703" on="1"/>
      </contour>
    </TTGlyph>
    <TTGlyph name="breve.case" xMin="50" yMin="724" xMax="326" yMax="869">
      <contour>
        <pt x="276" y="724" on="0"/>
        <pt x="100" y="724" on="0"/>
        <pt x="50" y="853" on="1"/>
        <pt x="78" y="869" on="1"/>
        <pt x="125" y="791" on="0"/>
        <pt x="248" y="791" on="0"/>
        <pt x="298" y="869" on="1"/>
        <pt x="326" y="853" on="1"/>
      </contour>
    </TTGlyph>
    <TTGlyph name="brokenbar" xMin="75" yMin="-194" xMax="136" yMax="720">
      <contour>
        <pt x="136" y="147" on="1"/>
        <pt x="136" y="-194" on="1"/>
        <pt x="75" y="-194" on="1"/>
        <pt x="75" y="147" on="1"/>
      </contour>
      <contour>
        <pt x="136" y="720" on="1"/>
        <pt x="136" y="379" on="1"/>
        <pt x="75" y="379" on="1"/>
        <pt x="75" y="720" on="1"/>
      </contour>
    </TTGlyph>
    <TTGlyph name="bullet" xMin="100" yMin="267" xMax="252" yMax="421">
      <contour>
        <pt x="100" y="376" on="0"/>
        <pt x="145" y="421" on="0"/>
        <pt x="208" y="421" on="0"/>
        <pt x="252" y="376" on="0"/>
        <pt x="252" y="311" on="0"/>
        <pt x="208" y="267" on="0"/>
        <pt x="145" y="267" on="0"/>
        <pt x="100" y="312" on="0"/>
      </contour>
    </TTGlyph>
    <TTGlyph name="c" xMin="40" yMin="-10" xMax="425" yMax="483">
      <contour>
        <pt x="254" y="-10" on="1"/>
        <pt x="166" y="-10" on="0"/>
        <pt x="40" y="120" on="0"/>
        <pt x="40" y="343" on="0"/>
        <pt x="155" y="483" on="0"/>
        <pt x="261" y="483" on="1"/>
        <pt x="327" y="483" on="0"/>
        <pt x="425" y="440" on="0"/>
        <pt x="425" y="402" on="1"/>
        <pt x="425" y="368" on="0"/>
        <pt x="388" y="368" on="1"/>
        <pt x="369" y="368" on="0"/>
        <pt x="344" y="398" on="0"/>
        <pt x="331" y="433" on="0"/>
        <pt x="293" y="463" on="0"/>
        <pt x="262" y="463" on="1"/>
        <pt x="190" y="463" on="0"/>
        <pt x="116" y="343" on="0"/>
        <pt x="116" y="134" on="0"/>
        <pt x="204" y="19" on="0"/>
        <pt x="269" y="19" on="1"/>
        <pt x="368" y="19" on="0"/>
        <pt x="410" y="99" on="1"/>
        <pt x="425" y="91" on="1"/>
        <pt x="374" y="-10" on="0"/>
      </contour>
    </TTGlyph>
    <TTGlyph name="caron" xMin="50" yMin="574" xMax="326" yMax="725">
      <contour>
        <pt x="203" y="574" on="0"/>
        <pt x="173" y="574" on="0"/>
        <pt x="151" y="589" on="0"/>
        <pt x="130" y="612" on="1"/>
        <pt x="50" y="703" on="1"/>
        <pt x="70" y="725" on="1"/>
        <pt x="188" y="648" on="1"/>
        <pt x="306" y="725" on="1"/>
        <pt x="326" y="703" on="1"/>
        <pt x="246" y="612" on="1"/>
        <pt x="225" y="589" on="0"/>
      </contour>
    </TTGlyph>
    <TTGlyph name="caron.case" xMin="50" yMin="732" xMax="326" yMax="883">
      <contour>
        <pt x="203" y="732" on="0"/>
        <pt x="173" y="732" on="0"/>
        <pt x="151" y="747" on="0"/>
        <pt x="130" y="770" on="1"/>
        <pt x="50" y="861" on="1"/>
        <pt x="70" y="883" on="1"/>
        <pt x="188" y="806" on="1"/>
        <pt x="306" y="883" on="1"/>
        <pt x="326" y="861" on="1"/>
        <pt x="246" y="770" on="1"/>
        <pt x="225" y="747" on="0"/>
      </contour>
    </TTGlyph>
    <TTGlyph name="ccedilla" xMin="40" yMin="-258" xMax="425" yMax="483">
      <contour>
        <pt x="254" y="-10" on="1"/>
        <pt x="241" y="-9" on="1"/>
        <pt x="222" y="-65" on="1"/>
        <pt x="273" y="-65" on="0"/>
        <pt x="338" y="-112" on="0"/>
        <pt x="338" y="-205" on="0"/>
        <pt x="268" y="-258" on="0"/>
        <pt x="165" y="-258" on="0"/>
        <pt x="132" y="-219" on="1"/>
        <pt x="150" y="-199" on="1"/>
        <pt x="175" y="-224" on="0"/>
        <pt x="242" y="-224" on="0"/>
        <pt x="278" y="-187" on="0"/>
        <pt x="278" y="-161" on="1"/>
        <pt x="278" y="-94" on="0"/>
        <pt x="183" y="-83" on="1"/>
        <pt x="211" y="-5" on="1"/>
        <pt x="137" y="9" on="0"/>
        <pt x="40" y="134" on="0"/>
        <pt x="40" y="343" on="0"/>
        <pt x="155" y="483" on="0"/>
        <pt x="261" y="483" on="1"/>
        <pt x="327" y="483" on="0"/>
        <pt x="425" y="440" on="0"/>
        <pt x="425" y="402" on="1"/>
        <pt x="425" y="368" on="0"/>
        <pt x="388" y="368" on="1"/>
        <pt x="369" y="368" on="0"/>
        <pt x="344" y="398" on="0"/>
        <pt x="331" y="433" on="0"/>
        <pt x="293" y="463" on="0"/>
        <pt x="262" y="463" on="1"/>
        <pt x="190" y="463" on="0"/>
        <pt x="116" y="343" on="0"/>
        <pt x="116" y="134" on="0"/>
        <pt x="204" y="19" on="0"/>
        <pt x="269" y="19" on="1"/>
        <pt x="368" y="19" on="0"/>
        <pt x="410" y="99" on="1"/>
        <pt x="425" y="91" on="1"/>
        <pt x="374" y="-10" on="0"/>
      </contour>
    </TTGlyph>
    <TTGlyph name="cedilla" xMin="139" yMin="-258" xMax="345" yMax="0">
      <contour>
        <pt x="280" y="-65" on="0"/>
        <pt x="345" y="-112" on="0"/>
        <pt x="345" y="-205" on="0"/>
        <pt x="275" y="-258" on="0"/>
        <pt x="172" y="-258" on="0"/>
        <pt x="139" y="-219" on="1"/>
        <pt x="157" y="-199" on="1"/>
        <pt x="182" y="-224" on="0"/>
        <pt x="249" y="-224" on="0"/>
        <pt x="285" y="-187" on="0"/>
        <pt x="285" y="-161" on="1"/>
        <pt x="285" y="-94" on="0"/>
        <pt x="190" y="-83" on="1"/>
        <pt x="220" y="0" on="1"/>
        <pt x="252" y="0" on="1"/>
        <pt x="229" y="-65" on="1"/>
      </contour>
    </TTGlyph>
    <TTGlyph name="cent" xMin="90" yMin="-70" xMax="475" yMax="713">
      <contour>
        <pt x="187" y="94" on="0"/>
        <pt x="90" y="220" on="0"/>
        <pt x="90" y="426" on="0"/>
        <pt x="200" y="565" on="0"/>
        <pt x="302" y="568" on="1"/>
        <pt x="315" y="713" on="1"/>
        <pt x="351" y="713" on="1"/>
        <pt x="338" y="567" on="1"/>
        <pt x="396" y="562" on="0"/>
        <pt x="475" y="520" on="0"/>
        <pt x="475" y="453" on="0"/>
        <pt x="438" y="453" on="1"/>
        <pt x="407" y="453" on="0"/>
        <pt x="391" y="494" on="1"/>
        <pt x="385" y="509" on="0"/>
        <pt x="357" y="540" on="0"/>
        <pt x="336" y="545" on="1"/>
        <pt x="299" y="105" on="1"/>
        <pt x="305" y="104" on="0"/>
        <pt x="319" y="104" on="1"/>
        <pt x="418" y="104" on="0"/>
        <pt x="460" y="184" on="1"/>
        <pt x="475" y="176" on="1"/>
        <pt x="424" y="75" on="0"/>
        <pt x="296" y="75" on="1"/>
        <pt x="284" y="-70" on="1"/>
        <pt x="248" y="-70" on="1"/>
        <pt x="261" y="79" on="1"/>
      </contour>
      <contour>
        <pt x="166" y="333" on="1"/>
        <pt x="166" y="160" on="0"/>
        <pt x="264" y="116" on="1"/>
        <pt x="301" y="547" on="1"/>
        <pt x="234" y="542" on="0"/>
        <pt x="166" y="424" on="0"/>
      </contour>
    </TTGlyph>
    <TTGlyph name="circumflex" xMin="50" yMin="572" xMax="326" yMax="723">
      <contour>
        <pt x="173" y="723" on="0"/>
        <pt x="203" y="723" on="0"/>
        <pt x="225" y="708" on="0"/>
        <pt x="246" y="685" on="1"/>
        <pt x="326" y="594" on="1"/>
        <pt x="306" y="572" on="1"/>
        <pt x="188" y="649" on="1"/>
        <pt x="70" y="572" on="1"/>
        <pt x="50" y="594" on="1"/>
        <pt x="130" y="685" on="1"/>
        <pt x="151" y="708" on="0"/>
      </contour>
    </TTGlyph>
    <TTGlyph name="circumflex.case" xMin="50" yMin="732" xMax="326" yMax="883">
      <contour>
        <pt x="173" y="883" on="0"/>
        <pt x="203" y="883" on="0"/>
        <pt x="225" y="868" on="0"/>
        <pt x="246" y="845" on="1"/>
        <pt x="326" y="754" on="1"/>
        <pt x="306" y="732" on="1"/>
        <pt x="188" y="809" on="1"/>
        <pt x="70" y="732" on="1"/>
        <pt x="50" y="754" on="1"/>
        <pt x="130" y="845" on="1"/>
        <pt x="151" y="868" on="0"/>
      </contour>
    </TTGlyph>
    <TTGlyph name="colon" xMin="34" yMin="-10" xMax="139" yMax="463">
      <contour>
        <pt x="34" y="65" on="0"/>
        <pt x="65" y="96" on="0"/>
        <pt x="109" y="96" on="0"/>
        <pt x="139" y="65" on="0"/>
        <pt x="139" y="20" on="0"/>
        <pt x="108" y="-10" on="0"/>
        <pt x="65" y="-10" on="0"/>
        <pt x="34" y="20" on="0"/>
      </contour>
      <contour>
        <pt x="34" y="432" on="0"/>
        <pt x="65" y="463" on="0"/>
        <pt x="109" y="463" on="0"/>
        <pt x="139" y="432" on="0"/>
        <pt x="139" y="387" on="0"/>
        <pt x="108" y="357" on="0"/>
        <pt x="65" y="357" on="0"/>
        <pt x="34" y="387" on="0"/>
      </contour>
    </TTGlyph>
    <TTGlyph name="comma" xMin="34" yMin="-144" xMax="151" yMax="96">
      <contour>
        <pt x="105" y="-36" on="1"/>
        <pt x="105" y="-17" on="0"/>
        <pt x="82" y="-11" on="1"/>
        <pt x="34" y="0" on="0"/>
        <pt x="34" y="43" on="1"/>
        <pt x="34" y="66" on="0"/>
        <pt x="65" y="96" on="0"/>
        <pt x="114" y="96" on="0"/>
        <pt x="151" y="55" on="0"/>
        <pt x="151" y="-30" on="0"/>
        <pt x="102" y="-114" on="0"/>
        <pt x="56" y="-144" on="1"/>
        <pt x="41" y="-125" on="1"/>
        <pt x="105" y="-83" on="0"/>
      </contour>
    </TTGlyph>
    <TTGlyph name="copyright" xMin="50" yMin="-10" xMax="765" yMax="705">
      <contour>
        <pt x="50" y="495" on="0"/>
        <pt x="259" y="705" on="0"/>
        <pt x="556" y="705" on="0"/>
        <pt x="765" y="496" on="0"/>
        <pt x="765" y="199" on="0"/>
        <pt x="556" y="-10" on="0"/>
        <pt x="259" y="-10" on="0"/>
        <pt x="50" y="199" on="0"/>
      </contour>
      <contour>
        <pt x="87" y="216" on="0"/>
        <pt x="275" y="27" on="0"/>
        <pt x="540" y="27" on="0"/>
        <pt x="728" y="216" on="0"/>
        <pt x="728" y="480" on="0"/>
        <pt x="540" y="668" on="0"/>
        <pt x="275" y="668" on="0"/>
        <pt x="87" y="480" on="0"/>
      </contour>
      <contour>
        <pt x="578" y="183" on="1"/>
        <pt x="509" y="127" on="0"/>
        <pt x="328" y="127" on="0"/>
        <pt x="201" y="244" on="0"/>
        <pt x="201" y="440" on="0"/>
        <pt x="316" y="565" on="0"/>
        <pt x="414" y="565" on="1"/>
        <pt x="460" y="565" on="0"/>
        <pt x="544" y="542" on="0"/>
        <pt x="565" y="526" on="1"/>
        <pt x="565" y="427" on="1"/>
        <pt x="557" y="428" on="1"/>
        <pt x="547" y="488" on="0"/>
        <pt x="470" y="545" on="0"/>
        <pt x="414" y="545" on="1"/>
        <pt x="344" y="545" on="0"/>
        <pt x="269" y="433" on="0"/>
        <pt x="269" y="255" on="0"/>
        <pt x="358" y="151" on="0"/>
        <pt x="501" y="151" on="0"/>
        <pt x="568" y="201" on="1"/>
      </contour>
    </TTGlyph>
    <TTGlyph name="currency" xMin="90" yMin="134" xMax="460" yMax="504">
      <contour>
        <pt x="157" y="235" on="1"/>
        <pt x="131" y="272" on="0"/>
        <pt x="131" y="366" on="0"/>
        <pt x="156" y="404" on="1"/>
        <pt x="90" y="470" on="1"/>
        <pt x="124" y="504" on="1"/>
        <pt x="189" y="438" on="1"/>
        <pt x="226" y="464" on="0"/>
        <pt x="323" y="464" on="0"/>
        <pt x="360" y="438" on="1"/>
        <pt x="426" y="504" on="1"/>
        <pt x="460" y="470" on="1"/>
        <pt x="394" y="404" on="1"/>
        <pt x="418" y="368" on="0"/>
        <pt x="418" y="272" on="0"/>
        <pt x="392" y="235" on="1"/>
        <pt x="460" y="168" on="1"/>
        <pt x="426" y="134" on="1"/>
        <pt x="358" y="201" on="1"/>
        <pt x="323" y="177" on="0"/>
        <pt x="224" y="177" on="0"/>
        <pt x="191" y="201" on="1"/>
        <pt x="124" y="134" on="1"/>
        <pt x="90" y="168" on="1"/>
      </contour>
      <contour>
        <pt x="374" y="362" on="0"/>
        <pt x="319" y="420" on="0"/>
        <pt x="230" y="420" on="0"/>
        <pt x="175" y="362" on="0"/>
        <pt x="175" y="278" on="0"/>
        <pt x="230" y="221" on="0"/>
        <pt x="319" y="221" on="0"/>
        <pt x="374" y="278" on="0"/>
      </contour>
    </TTGlyph>
    <TTGlyph name="d" xMin="40" yMin="-10" xMax="542" yMax="735">
      <contour>
        <pt x="362" y="59" on="0"/>
        <pt x="285" y="-10" on="0"/>
        <pt x="174" y="-10" on="0"/>
        <pt x="100" y="34" on="0"/>
        <pt x="80" y="70" on="1"/>
        <pt x="40" y="139" on="0"/>
        <pt x="40" y="337" on="0"/>
        <pt x="176" y="483" on="0"/>
        <pt x="290" y="483" on="1"/>
        <pt x="340" y="483" on="0"/>
        <pt x="381" y="471" on="1"/>
        <pt x="381" y="566" on="1"/>
        <pt x="381" y="641" on="0"/>
        <pt x="371" y="694" on="0"/>
        <pt x="360" y="700" on="1"/>
        <pt x="340" y="712" on="0"/>
        <pt x="297" y="712" on="1"/>
        <pt x="295" y="723" on="1"/>
        <pt x="367" y="735" on="0"/>
        <pt x="451" y="735" on="1"/>
        <pt x="451" y="222" on="1"/>
        <pt x="451" y="111" on="0"/>
        <pt x="465" y="42" on="0"/>
        <pt x="492" y="42" on="1"/>
        <pt x="509" y="42" on="0"/>
        <pt x="537" y="56" on="1"/>
        <pt x="542" y="46" on="1"/>
        <pt x="534" y="40" on="0"/>
        <pt x="508" y="23" on="0"/>
        <pt x="428" y="-5" on="0"/>
        <pt x="391" y="-5" on="1"/>
        <pt x="378" y="49" on="0"/>
        <pt x="378" y="111" on="1"/>
      </contour>
      <contour>
        <pt x="152" y="61" on="0"/>
        <pt x="203" y="21" on="0"/>
        <pt x="276" y="21" on="0"/>
        <pt x="335" y="71" on="0"/>
        <pt x="350" y="110" on="1"/>
        <pt x="381" y="185" on="0"/>
        <pt x="381" y="265" on="1"/>
        <pt x="381" y="418" on="1"/>
        <pt x="338" y="452" on="0"/>
        <pt x="236" y="452" on="0"/>
        <pt x="168" y="408" on="0"/>
        <pt x="150" y="372" on="1"/>
        <pt x="116" y="305" on="0"/>
        <pt x="116" y="229" on="1"/>
        <pt x="116" y="156" on="0"/>
        <pt x="140" y="94" on="1"/>
      </contour>
    </TTGlyph>
    <TTGlyph name="dagger" xMin="40" yMin="-164" xMax="518" yMax="735">
      <contour>
        <pt x="40" y="490" on="0"/>
        <pt x="66" y="514" on="0"/>
        <pt x="105" y="514" on="0"/>
        <pt x="270" y="481" on="1"/>
        <pt x="260" y="521" on="0"/>
        <pt x="234" y="661" on="0"/>
        <pt x="234" y="689" on="1"/>
        <pt x="234" y="735" on="0"/>
        <pt x="279" y="735" on="1"/>
        <pt x="299" y="735" on="0"/>
        <pt x="323" y="709" on="0"/>
        <pt x="323" y="689" on="1"/>
        <pt x="323" y="636" on="0"/>
        <pt x="287" y="481" on="1"/>
        <pt x="452" y="514" on="0"/>
        <pt x="492" y="514" on="0"/>
        <pt x="518" y="490" on="0"/>
        <pt x="518" y="470" on="1"/>
        <pt x="518" y="425" on="0"/>
        <pt x="472" y="425" on="1"/>
        <pt x="452" y="425" on="0"/>
        <pt x="287" y="458" on="1"/>
        <pt x="323" y="281" on="1"/>
        <pt x="323" y="238" on="0"/>
        <pt x="291" y="-164" on="0"/>
        <pt x="279" y="-164" on="1"/>
        <pt x="265" y="-164" on="0"/>
        <pt x="234" y="230" on="0"/>
        <pt x="234" y="281" on="1"/>
        <pt x="270" y="458" on="1"/>
        <pt x="108" y="425" on="0"/>
        <pt x="86" y="425" on="1"/>
        <pt x="40" y="425" on="0"/>
        <pt x="40" y="470" on="1"/>
      </contour>
    </TTGlyph>
    <TTGlyph name="daggerdbl" xMin="40" yMin="-164" xMax="518" yMax="735">
      <contour>
        <pt x="472" y="146" on="1"/>
        <pt x="518" y="146" on="0"/>
        <pt x="518" y="101" on="1"/>
        <pt x="518" y="81" on="0"/>
        <pt x="492" y="57" on="0"/>
        <pt x="452" y="57" on="0"/>
        <pt x="287" y="90" on="1"/>
        <pt x="323" y="-65" on="0"/>
        <pt x="323" y="-118" on="1"/>
        <pt x="323" y="-138" on="0"/>
        <pt x="299" y="-164" on="0"/>
        <pt x="279" y="-164" on="1"/>
        <pt x="234" y="-164" on="0"/>
        <pt x="234" y="-118" on="1"/>
        <pt x="234" y="-90" on="0"/>
        <pt x="260" y="50" on="0"/>
        <pt x="270" y="90" on="1"/>
        <pt x="105" y="57" on="0"/>
        <pt x="66" y="57" on="0"/>
        <pt x="40" y="81" on="0"/>
        <pt x="40" y="101" on="1"/>
        <pt x="40" y="146" on="0"/>
        <pt x="131" y="146" on="0"/>
        <pt x="270" y="112" on="1"/>
        <pt x="234" y="285" on="1"/>
        <pt x="270" y="458" on="1"/>
        <pt x="108" y="425" on="0"/>
        <pt x="86" y="425" on="1"/>
        <pt x="40" y="425" on="0"/>
        <pt x="40" y="470" on="1"/>
        <pt x="40" y="490" on="0"/>
        <pt x="66" y="514" on="0"/>
        <pt x="105" y="514" on="0"/>
        <pt x="270" y="481" on="1"/>
        <pt x="260" y="521" on="0"/>
        <pt x="234" y="661" on="0"/>
        <pt x="234" y="689" on="1"/>
        <pt x="234" y="735" on="0"/>
        <pt x="279" y="735" on="1"/>
        <pt x="299" y="735" on="0"/>
        <pt x="323" y="709" on="0"/>
        <pt x="323" y="689" on="1"/>
        <pt x="323" y="636" on="0"/>
        <pt x="287" y="481" on="1"/>
        <pt x="452" y="514" on="0"/>
        <pt x="492" y="514" on="0"/>
        <pt x="518" y="490" on="0"/>
        <pt x="518" y="470" on="1"/>
        <pt x="518" y="425" on="0"/>
        <pt x="472" y="425" on="1"/>
        <pt x="452" y="425" on="0"/>
        <pt x="287" y="458" on="1"/>
        <pt x="323" y="285" on="1"/>
        <pt x="287" y="112" on="1"/>
        <pt x="442" y="146" on="0"/>
      </contour>
    </TTGlyph>
    <TTGlyph name="degree" xMin="60" yMin="463" xMax="339" yMax="742">
      <contour>
        <pt x="60" y="661" on="0"/>
        <pt x="137" y="742" on="0"/>
        <pt x="262" y="742" on="0"/>
        <pt x="339" y="661" on="0"/>
        <pt x="339" y="543" on="0"/>
        <pt x="262" y="463" on="0"/>
        <pt x="137" y="463" on="0"/>
        <pt x="60" y="544" on="0"/>
      </contour>
      <contour>
        <pt x="299" y="644" on="0"/>
        <pt x="244" y="702" on="0"/>
        <pt x="155" y="702" on="0"/>
        <pt x="100" y="644" on="0"/>
        <pt x="100" y="560" on="0"/>
        <pt x="155" y="503" on="0"/>
        <pt x="244" y="503" on="0"/>
        <pt x="299" y="560" on="0"/>
      </contour>
    </TTGlyph>
    <TTGlyph name="dieresis" xMin="49" yMin="589" xMax="364" yMax="697">
      <contour>
        <pt x="49" y="621" on="0"/>
        <pt x="49" y="665" on="0"/>
        <pt x="81" y="697" on="0"/>
        <pt x="125" y="697" on="0"/>
        <pt x="157" y="665" on="0"/>
        <pt x="157" y="621" on="0"/>
        <pt x="125" y="589" on="0"/>
        <pt x="81" y="589" on="0"/>
      </contour>
      <contour>
        <pt x="256" y="621" on="0"/>
        <pt x="256" y="665" on="0"/>
        <pt x="288" y="697" on="0"/>
        <pt x="332" y="697" on="0"/>
        <pt x="364" y="665" on="0"/>
        <pt x="364" y="621" on="0"/>
        <pt x="332" y="589" on="0"/>
        <pt x="288" y="589" on="0"/>
      </contour>
    </TTGlyph>
    <TTGlyph name="dieresis.case" xMin="49" yMin="739" xMax="364" yMax="847">
      <contour>
        <pt x="49" y="771" on="0"/>
        <pt x="49" y="815" on="0"/>
        <pt x="81" y="847" on="0"/>
        <pt x="125" y="847" on="0"/>
        <pt x="157" y="815" on="0"/>
        <pt x="157" y="771" on="0"/>
        <pt x="125" y="739" on="0"/>
        <pt x="81" y="739" on="0"/>
      </contour>
      <contour>
        <pt x="256" y="771" on="0"/>
        <pt x="256" y="815" on="0"/>
        <pt x="288" y="847" on="0"/>
        <pt x="332" y="847" on="0"/>
        <pt x="364" y="815" on="0"/>
        <pt x="364" y="771" on="0"/>
        <pt x="332" y="739" on="0"/>
        <pt x="288" y="739" on="0"/>
      </contour>
    </TTGlyph>
    <TTGlyph name="divide" xMin="98" yMin="89" xMax="452" yMax="549">
      <contour>
        <pt x="98" y="295" on="1"/>
        <pt x="98" y="343" on="1"/>
        <pt x="452" y="343" on="1"/>
        <pt x="452" y="295" on="1"/>
      </contour>
      <contour>
        <pt x="223" y="164" on="0"/>
        <pt x="254" y="195" on="0"/>
        <pt x="298" y="195" on="0"/>
        <pt x="328" y="164" on="0"/>
        <pt x="328" y="119" on="0"/>
        <pt x="297" y="89" on="0"/>
        <pt x="254" y="89" on="0"/>
        <pt x="223" y="119" on="0"/>
      </contour>
      <contour>
        <pt x="223" y="518" on="0"/>
        <pt x="254" y="549" on="0"/>
        <pt x="298" y="549" on="0"/>
        <pt x="328" y="518" on="0"/>
        <pt x="328" y="473" on="0"/>
        <pt x="297" y="443" on="0"/>
        <pt x="254" y="443" on="0"/>
        <pt x="223" y="473" on="0"/>
      </contour>
    </TTGlyph>
    <TTGlyph name="dollar" xMin="85" yMin="-70" xMax="468" yMax="713">
      <contour>
        <pt x="167" y="349" on="0"/>
        <pt x="87" y="436" on="0"/>
        <pt x="87" y="568" on="0"/>
        <pt x="192" y="653" on="0"/>
        <pt x="270" y="653" on="1"/>
        <pt x="275" y="713" on="1"/>
        <pt x="311" y="713" on="1"/>
        <pt x="306" y="651" on="1"/>
        <pt x="378" y="644" on="0"/>
        <pt x="437" y="615" on="1"/>
        <pt x="437" y="547" on="0"/>
        <pt x="423" y="457" on="1"/>
        <pt x="410" y="460" on="1"/>
        <pt x="410" y="531" on="0"/>
        <pt x="349" y="611" on="0"/>
        <pt x="303" y="623" on="1"/>
        <pt x="282" y="374" on="1"/>
        <pt x="399" y="309" on="0"/>
        <pt x="429" y="270" on="1"/>
        <pt x="468" y="218" on="0"/>
        <pt x="468" y="162" on="1"/>
        <pt x="468" y="76" on="0"/>
        <pt x="343" y="-10" on="0"/>
        <pt x="249" y="-10" on="1"/>
        <pt x="244" y="-70" on="1"/>
        <pt x="208" y="-70" on="1"/>
        <pt x="213" y="-6" on="1"/>
        <pt x="131" y="5" on="0"/>
        <pt x="85" y="48" on="1"/>
        <pt x="85" y="98" on="0"/>
        <pt x="96" y="197" on="1"/>
        <pt x="110" y="195" on="1"/>
        <pt x="110" y="124" on="0"/>
        <pt x="168" y="37" on="0"/>
        <pt x="216" y="23" on="1"/>
        <pt x="240" y="306" on="1"/>
      </contour>
      <contour>
        <pt x="406" y="139" on="1"/>
        <pt x="406" y="184" on="0"/>
        <pt x="340" y="248" on="0"/>
        <pt x="274" y="286" on="1"/>
        <pt x="251" y="17" on="1"/>
        <pt x="406" y="17" on="0"/>
      </contour>
      <contour>
        <pt x="214" y="626" on="0"/>
        <pt x="149" y="568" on="0"/>
        <pt x="149" y="480" on="0"/>
        <pt x="200" y="421" on="0"/>
        <pt x="247" y="393" on="1"/>
        <pt x="267" y="627" on="1"/>
      </contour>
    </TTGlyph>
    <TTGlyph name="dotaccent" xMin="106" yMin="586" xMax="220" yMax="700">
      <contour>
        <pt x="106" y="620" on="0"/>
        <pt x="106" y="666" on="0"/>
        <pt x="140" y="700" on="0"/>
        <pt x="186" y="700" on="0"/>
        <pt x="220" y="666" on="0"/>
        <pt x="220" y="620" on="0"/>
        <pt x="186" y="586" on="0"/>
        <pt x="140" y="586" on="0"/>
      </contour>
    </TTGlyph>
    <TTGlyph name="dotaccent.case" xMin="106" yMin="736" xMax="220" yMax="850">
      <contour>
        <pt x="106" y="770" on="0"/>
        <pt x="106" y="816" on="0"/>
        <pt x="140" y="850" on="0"/>
        <pt x="186" y="850" on="0"/>
        <pt x="220" y="816" on="0"/>
        <pt x="220" y="770" on="0"/>
        <pt x="186" y="736" on="0"/>
        <pt x="140" y="736" on="0"/>
      </contour>
    </TTGlyph>
    <TTGlyph name="dotlessi" xMin="30" yMin="0" xMax="287" yMax="473">
      <contour>
        <pt x="201" y="473" on="1"/>
        <pt x="201" y="165" on="1"/>
        <pt x="201" y="60" on="0"/>
        <pt x="226" y="12" on="0"/>
        <pt x="285" y="12" on="1"/>
        <pt x="287" y="0" on="1"/>
        <pt x="43" y="0" on="1"/>
        <pt x="45" y="12" on="1"/>
        <pt x="105" y="12" on="0"/>
        <pt x="131" y="61" on="0"/>
        <pt x="131" y="167" on="1"/>
        <pt x="131" y="237" on="1"/>
        <pt x="131" y="387" on="0"/>
        <pt x="116" y="418" on="1"/>
        <pt x="111" y="429" on="0"/>
        <pt x="86" y="447" on="0"/>
        <pt x="57" y="451" on="0"/>
        <pt x="32" y="451" on="1"/>
        <pt x="30" y="462" on="1"/>
        <pt x="117" y="473" on="0"/>
      </contour>
    </TTGlyph>
    <TTGlyph name="e" xMin="40" yMin="-10" xMax="444" yMax="483">
      <contour>
        <pt x="444" y="253" on="1"/>
        <pt x="116" y="253" on="1"/>
        <pt x="116" y="236" on="1"/>
        <pt x="116" y="130" on="0"/>
        <pt x="206" y="19" on="0"/>
        <pt x="273" y="19" on="1"/>
        <pt x="373" y="19" on="0"/>
        <pt x="417" y="99" on="1"/>
        <pt x="432" y="91" on="1"/>
        <pt x="380" y="-10" on="0"/>
        <pt x="258" y="-10" on="1"/>
        <pt x="168" y="-10" on="0"/>
        <pt x="40" y="120" on="0"/>
        <pt x="40" y="341" on="0"/>
        <pt x="153" y="483" on="0"/>
        <pt x="342" y="483" on="0"/>
        <pt x="444" y="354" on="0"/>
      </contour>
      <contour>
        <pt x="250" y="463" on="1"/>
        <pt x="192" y="463" on="0"/>
        <pt x="125" y="364" on="0"/>
        <pt x="118" y="282" on="1"/>
        <pt x="367" y="282" on="1"/>
        <pt x="360" y="463" on="0"/>
      </contour>
    </TTGlyph>
    <TTGlyph name="eacute" xMin="40" yMin="-10" xMax="444" yMax="729">
      <contour>
        <pt x="444" y="253" on="1"/>
        <pt x="116" y="253" on="1"/>
        <pt x="116" y="236" on="1"/>
        <pt x="116" y="130" on="0"/>
        <pt x="206" y="19" on="0"/>
        <pt x="273" y="19" on="1"/>
        <pt x="373" y="19" on="0"/>
        <pt x="417" y="99" on="1"/>
        <pt x="432" y="91" on="1"/>
        <pt x="380" y="-10" on="0"/>
        <pt x="258" y="-10" on="1"/>
        <pt x="168" y="-10" on="0"/>
        <pt x="40" y="120" on="0"/>
        <pt x="40" y="341" on="0"/>
        <pt x="153" y="483" on="0"/>
        <pt x="342" y="483" on="0"/>
        <pt x="444" y="354" on="0"/>
      </contour>
      <contour>
        <pt x="250" y="463" on="1"/>
        <pt x="192" y="463" on="0"/>
        <pt x="125" y="364" on="0"/>
        <pt x="118" y="282" on="1"/>
        <pt x="367" y="282" on="1"/>
        <pt x="360" y="463" on="0"/>
      </contour>
      <contour>
        <pt x="280" y="709" on="1"/>
        <pt x="303" y="729" on="0"/>
        <pt x="338" y="729" on="0"/>
        <pt x="358" y="709" on="0"/>
        <pt x="358" y="694" on="1"/>
        <pt x="358" y="666" on="0"/>
        <pt x="323" y="647" on="1"/>
        <pt x="161" y="564" on="1"/>
        <pt x="146" y="587" on="1"/>
      </contour>
    </TTGlyph>
    <TTGlyph name="ecircumflex" xMin="40" yMin="-10" xMax="444" yMax="723">
      <contour>
        <pt x="444" y="253" on="1"/>
        <pt x="116" y="253" on="1"/>
        <pt x="116" y="236" on="1"/>
        <pt x="116" y="130" on="0"/>
        <pt x="206" y="19" on="0"/>
        <pt x="273" y="19" on="1"/>
        <pt x="373" y="19" on="0"/>
        <pt x="417" y="99" on="1"/>
        <pt x="432" y="91" on="1"/>
        <pt x="380" y="-10" on="0"/>
        <pt x="258" y="-10" on="1"/>
        <pt x="168" y="-10" on="0"/>
        <pt x="40" y="120" on="0"/>
        <pt x="40" y="341" on="0"/>
        <pt x="153" y="483" on="0"/>
        <pt x="342" y="483" on="0"/>
        <pt x="444" y="354" on="0"/>
      </contour>
      <contour>
        <pt x="250" y="463" on="1"/>
        <pt x="192" y="463" on="0"/>
        <pt x="125" y="364" on="0"/>
        <pt x="118" y="282" on="1"/>
        <pt x="367" y="282" on="1"/>
        <pt x="360" y="463" on="0"/>
      </contour>
      <contour>
        <pt x="232" y="723" on="0"/>
        <pt x="262" y="723" on="0"/>
        <pt x="284" y="708" on="0"/>
        <pt x="305" y="685" on="1"/>
        <pt x="385" y="594" on="1"/>
        <pt x="365" y="572" on="1"/>
        <pt x="247" y="649" on="1"/>
        <pt x="129" y="572" on="1"/>
        <pt x="109" y="594" on="1"/>
        <pt x="189" y="685" on="1"/>
        <pt x="210" y="708" on="0"/>
      </contour>
    </TTGlyph>
    <TTGlyph name="edieresis" xMin="40" yMin="-10" xMax="444" yMax="697">
      <contour>
        <pt x="444" y="253" on="1"/>
        <pt x="116" y="253" on="1"/>
        <pt x="116" y="236" on="1"/>
        <pt x="116" y="130" on="0"/>
        <pt x="206" y="19" on="0"/>
        <pt x="273" y="19" on="1"/>
        <pt x="373" y="19" on="0"/>
        <pt x="417" y="99" on="1"/>
        <pt x="432" y="91" on="1"/>
        <pt x="380" y="-10" on="0"/>
        <pt x="258" y="-10" on="1"/>
        <pt x="168" y="-10" on="0"/>
        <pt x="40" y="120" on="0"/>
        <pt x="40" y="341" on="0"/>
        <pt x="153" y="483" on="0"/>
        <pt x="342" y="483" on="0"/>
        <pt x="444" y="354" on="0"/>
      </contour>
      <contour>
        <pt x="250" y="463" on="1"/>
        <pt x="192" y="463" on="0"/>
        <pt x="125" y="364" on="0"/>
        <pt x="118" y="282" on="1"/>
        <pt x="367" y="282" on="1"/>
        <pt x="360" y="463" on="0"/>
      </contour>
      <contour>
        <pt x="89" y="621" on="0"/>
        <pt x="89" y="665" on="0"/>
        <pt x="121" y="697" on="0"/>
        <pt x="165" y="697" on="0"/>
        <pt x="197" y="665" on="0"/>
        <pt x="197" y="621" on="0"/>
        <pt x="165" y="589" on="0"/>
        <pt x="121" y="589" on="0"/>
      </contour>
      <contour>
        <pt x="296" y="621" on="0"/>
        <pt x="296" y="665" on="0"/>
        <pt x="328" y="697" on="0"/>
        <pt x="372" y="697" on="0"/>
        <pt x="404" y="665" on="0"/>
        <pt x="404" y="621" on="0"/>
        <pt x="372" y="589" on="0"/>
        <pt x="328" y="589" on="0"/>
      </contour>
    </TTGlyph>
    <TTGlyph name="egrave" xMin="40" yMin="-10" xMax="444" yMax="729">
      <contour>
        <pt x="444" y="253" on="1"/>
        <pt x="116" y="253" on="1"/>
        <pt x="116" y="236" on="1"/>
        <pt x="116" y="130" on="0"/>
        <pt x="206" y="19" on="0"/>
        <pt x="273" y="19" on="1"/>
        <pt x="373" y="19" on="0"/>
        <pt x="417" y="99" on="1"/>
        <pt x="432" y="91" on="1"/>
        <pt x="380" y="-10" on="0"/>
        <pt x="258" y="-10" on="1"/>
        <pt x="168" y="-10" on="0"/>
        <pt x="40" y="120" on="0"/>
        <pt x="40" y="341" on="0"/>
        <pt x="153" y="483" on="0"/>
        <pt x="342" y="483" on="0"/>
        <pt x="444" y="354" on="0"/>
      </contour>
      <contour>
        <pt x="250" y="463" on="1"/>
        <pt x="192" y="463" on="0"/>
        <pt x="125" y="364" on="0"/>
        <pt x="118" y="282" on="1"/>
        <pt x="367" y="282" on="1"/>
        <pt x="360" y="463" on="0"/>
      </contour>
      <contour>
        <pt x="145" y="709" on="0"/>
        <pt x="165" y="729" on="0"/>
        <pt x="200" y="729" on="0"/>
        <pt x="223" y="709" on="1"/>
        <pt x="357" y="587" on="1"/>
        <pt x="342" y="564" on="1"/>
        <pt x="180" y="647" on="1"/>
        <pt x="145" y="666" on="0"/>
        <pt x="145" y="694" on="1"/>
      </contour>
    </TTGlyph>
    <TTGlyph name="eight" xMin="66" yMin="-10" xMax="483" yMax="653">
      <contour>
        <pt x="483" y="165" on="1"/>
        <pt x="483" y="86" on="0"/>
        <pt x="367" y="-10" on="0"/>
        <pt x="182" y="-10" on="0"/>
        <pt x="66" y="86" on="0"/>
        <pt x="66" y="165" on="1"/>
        <pt x="66" y="235" on="0"/>
        <pt x="116" y="276" on="1"/>
        <pt x="160" y="311" on="0"/>
        <pt x="226" y="334" on="1"/>
        <pt x="226" y="338" on="1"/>
        <pt x="167" y="357" on="0"/>
        <pt x="87" y="442" on="0"/>
        <pt x="87" y="573" on="0"/>
        <pt x="193" y="653" on="0"/>
        <pt x="355" y="653" on="0"/>
        <pt x="463" y="573" on="0"/>
        <pt x="463" y="442" on="0"/>
        <pt x="390" y="367" on="0"/>
        <pt x="326" y="341" on="1"/>
        <pt x="326" y="337" on="1"/>
        <pt x="483" y="292" on="0"/>
      </contour>
      <contour>
        <pt x="223" y="627" on="0"/>
        <pt x="161" y="556" on="0"/>
        <pt x="161" y="439" on="0"/>
        <pt x="243" y="362" on="0"/>
        <pt x="296" y="354" on="1"/>
        <pt x="326" y="366" on="0"/>
        <pt x="389" y="442" on="0"/>
        <pt x="389" y="558" on="0"/>
        <pt x="325" y="627" on="0"/>
      </contour>
      <contour>
        <pt x="333" y="20" on="0"/>
        <pt x="409" y="99" on="0"/>
        <pt x="409" y="230" on="0"/>
        <pt x="312" y="314" on="0"/>
        <pt x="249" y="322" on="1"/>
        <pt x="219" y="310" on="0"/>
        <pt x="192" y="285" on="1"/>
        <pt x="140" y="234" on="0"/>
        <pt x="140" y="100" on="0"/>
        <pt x="220" y="20" on="0"/>
      </contour>
    </TTGlyph>
    <TTGlyph name="eightinferior" xMin="63" yMin="-206" xMax="326" yMax="195">
      <contour>
        <pt x="326" y="-98" on="1"/>
        <pt x="326" y="-147" on="0"/>
        <pt x="252" y="-206" on="0"/>
        <pt x="135" y="-206" on="0"/>
        <pt x="63" y="-147" on="0"/>
        <pt x="63" y="-60" on="0"/>
        <pt x="110" y="-12" on="0"/>
        <pt x="152" y="5" on="1"/>
        <pt x="74" y="35" on="0"/>
        <pt x="74" y="102" on="1"/>
        <pt x="74" y="146" on="0"/>
        <pt x="142" y="195" on="0"/>
        <pt x="244" y="195" on="0"/>
        <pt x="314" y="146" on="0"/>
        <pt x="314" y="102" on="1"/>
        <pt x="314" y="43" on="0"/>
        <pt x="238" y="5" on="1"/>
        <pt x="326" y="-29" on="0"/>
      </contour>
      <contour>
        <pt x="166" y="172" on="0"/>
        <pt x="135" y="133" on="0"/>
        <pt x="135" y="66" on="0"/>
        <pt x="176" y="22" on="0"/>
        <pt x="205" y="18" on="1"/>
        <pt x="221" y="25" on="0"/>
        <pt x="253" y="69" on="0"/>
        <pt x="253" y="134" on="0"/>
        <pt x="220" y="172" on="0"/>
      </contour>
      <contour>
        <pt x="225" y="-180" on="0"/>
        <pt x="265" y="-136" on="0"/>
        <pt x="265" y="-61" on="0"/>
        <pt x="215" y="-14" on="0"/>
        <pt x="180" y="-9" on="1"/>
        <pt x="161" y="-18" on="0"/>
        <pt x="122" y="-65" on="0"/>
        <pt x="122" y="-135" on="0"/>
        <pt x="164" y="-180" on="0"/>
      </contour>
    </TTGlyph>
    <TTGlyph name="ellipsis" xMin="36" yMin="-10" xMax="483" yMax="92">
      <contour>
        <pt x="36" y="62" on="0"/>
        <pt x="65" y="92" on="0"/>
        <pt x="108" y="92" on="0"/>
        <pt x="137" y="62" on="0"/>
        <pt x="137" y="19" on="0"/>
        <pt x="108" y="-10" on="0"/>
        <pt x="66" y="-10" on="0"/>
        <pt x="36" y="19" on="0"/>
      </contour>
      <contour>
        <pt x="209" y="62" on="0"/>
        <pt x="238" y="92" on="0"/>
        <pt x="281" y="92" on="0"/>
        <pt x="310" y="62" on="0"/>
        <pt x="310" y="19" on="0"/>
        <pt x="281" y="-10" on="0"/>
        <pt x="239" y="-10" on="0"/>
        <pt x="209" y="19" on="0"/>
      </contour>
      <contour>
        <pt x="382" y="62" on="0"/>
        <pt x="411" y="92" on="0"/>
        <pt x="454" y="92" on="0"/>
        <pt x="483" y="62" on="0"/>
        <pt x="483" y="19" on="0"/>
        <pt x="454" y="-10" on="0"/>
        <pt x="412" y="-10" on="0"/>
        <pt x="382" y="19" on="0"/>
      </contour>
    </TTGlyph>
    <TTGlyph name="emdash" xMin="0" yMin="277" xMax="973" yMax="327">
      <contour>
        <pt x="0" y="277" on="1"/>
        <pt x="0" y="327" on="1"/>
        <pt x="973" y="327" on="1"/>
        <pt x="973" y="277" on="1"/>
      </contour>
    </TTGlyph>
    <TTGlyph name="endash" xMin="0" yMin="277" xMax="827" yMax="327">
      <contour>
        <pt x="0" y="277" on="1"/>
        <pt x="0" y="327" on="1"/>
        <pt x="827" y="327" on="1"/>
        <pt x="827" y="277" on="1"/>
      </contour>
    </TTGlyph>
    <TTGlyph name="equal" xMin="98" yMin="205" xMax="452" yMax="433">
      <contour>
        <pt x="98" y="385" on="1"/>
        <pt x="98" y="433" on="1"/>
        <pt x="452" y="433" on="1"/>
        <pt x="452" y="385" on="1"/>
      </contour>
      <contour>
        <pt x="98" y="205" on="1"/>
        <pt x="98" y="253" on="1"/>
        <pt x="452" y="253" on="1"/>
        <pt x="452" y="205" on="1"/>
      </contour>
    </TTGlyph>
    <TTGlyph name="eslash" xMin="30" yMin="306" xMax="329" yMax="483">
      <contour>
        <pt x="47" y="306" on="1"/>
        <pt x="30" y="339" on="1"/>
        <pt x="312" y="483" on="1"/>
        <pt x="329" y="450" on="1"/>
      </contour>
    </TTGlyph>
    <TTGlyph name="eth" xMin="40" yMin="-10" xMax="531" yMax="745">
      <contour>
        <pt x="221" y="710" on="1"/>
        <pt x="180" y="710" on="0"/>
        <pt x="125" y="681" on="0"/>
        <pt x="94" y="648" on="1"/>
        <pt x="74" y="667" on="1"/>
        <pt x="108" y="710" on="0"/>
        <pt x="182" y="745" on="0"/>
        <pt x="230" y="745" on="1"/>
        <pt x="329" y="745" on="0"/>
        <pt x="397" y="649" on="1"/>
        <pt x="514" y="709" on="1"/>
        <pt x="531" y="676" on="1"/>
        <pt x="417" y="618" on="1"/>
        <pt x="492" y="487" on="0"/>
        <pt x="492" y="279" on="1"/>
        <pt x="492" y="145" on="0"/>
        <pt x="374" y="-10" on="0"/>
        <pt x="165" y="-10" on="0"/>
        <pt x="40" y="132" on="0"/>
        <pt x="40" y="340" on="0"/>
        <pt x="159" y="473" on="0"/>
        <pt x="351" y="473" on="0"/>
        <pt x="412" y="420" on="1"/>
        <pt x="400" y="527" on="0"/>
        <pt x="369" y="593" on="1"/>
        <pt x="249" y="532" on="1"/>
        <pt x="232" y="565" on="1"/>
        <pt x="351" y="626" on="1"/>
        <pt x="299" y="710" on="0"/>
      </contour>
      <contour>
        <pt x="195" y="10" on="0"/>
        <pt x="341" y="10" on="0"/>
        <pt x="418" y="149" on="0"/>
        <pt x="418" y="350" on="0"/>
        <pt x="323" y="453" on="0"/>
        <pt x="190" y="453" on="0"/>
        <pt x="116" y="335" on="0"/>
        <pt x="116" y="138" on="0"/>
      </contour>
    </TTGlyph>
    <TTGlyph name="exclam" xMin="70" yMin="-10" xMax="175" yMax="709">
      <contour>
        <pt x="78" y="681" on="0"/>
        <pt x="100" y="709" on="0"/>
        <pt x="145" y="709" on="0"/>
        <pt x="167" y="681" on="0"/>
        <pt x="167" y="661" on="1"/>
        <pt x="167" y="599" on="0"/>
        <pt x="135" y="250" on="0"/>
        <pt x="135" y="175" on="1"/>
        <pt x="110" y="175" on="1"/>
        <pt x="110" y="250" on="0"/>
        <pt x="78" y="599" on="0"/>
        <pt x="78" y="661" on="1"/>
      </contour>
      <contour>
        <pt x="70" y="65" on="0"/>
        <pt x="101" y="96" on="0"/>
        <pt x="145" y="96" on="0"/>
        <pt x="175" y="65" on="0"/>
        <pt x="175" y="20" on="0"/>
        <pt x="144" y="-10" on="0"/>
        <pt x="101" y="-10" on="0"/>
        <pt x="70" y="20" on="0"/>
      </contour>
    </TTGlyph>
    <TTGlyph name="exclamdown" xMin="70" yMin="-236" xMax="175" yMax="483">
      <contour>
        <pt x="167" y="-208" on="0"/>
        <pt x="145" y="-236" on="0"/>
        <pt x="100" y="-236" on="0"/>
        <pt x="78" y="-208" on="0"/>
        <pt x="78" y="-188" on="1"/>
        <pt x="78" y="-126" on="0"/>
        <pt x="110" y="223" on="0"/>
        <pt x="110" y="298" on="1"/>
        <pt x="135" y="298" on="1"/>
        <pt x="135" y="223" on="0"/>
        <pt x="167" y="-126" on="0"/>
        <pt x="167" y="-188" on="1"/>
      </contour>
      <contour>
        <pt x="175" y="408" on="0"/>
        <pt x="145" y="377" on="0"/>
        <pt x="101" y="377" on="0"/>
        <pt x="70" y="408" on="0"/>
        <pt x="70" y="453" on="0"/>
        <pt x="101" y="483" on="0"/>
        <pt x="144" y="483" on="0"/>
        <pt x="175" y="453" on="0"/>
      </contour>
    </TTGlyph>
    <TTGlyph name="f" xMin="35" yMin="0" xMax="446" yMax="745">
      <contour>
        <pt x="204" y="451" on="1"/>
        <pt x="204" y="226" on="1"/>
        <pt x="204" y="119" on="0"/>
        <pt x="217" y="41" on="0"/>
        <pt x="229" y="31" on="1"/>
        <pt x="252" y="12" on="0"/>
        <pt x="302" y="12" on="1"/>
        <pt x="304" y="0" on="1"/>
        <pt x="35" y="0" on="1"/>
        <pt x="37" y="12" on="1"/>
        <pt x="61" y="12" on="0"/>
        <pt x="90" y="16" on="0"/>
        <pt x="114" y="34" on="0"/>
        <pt x="125" y="57" on="0"/>
        <pt x="129" y="84" on="1"/>
        <pt x="134" y="119" on="0"/>
        <pt x="134" y="226" on="1"/>
        <pt x="134" y="451" on="1"/>
        <pt x="42" y="451" on="1"/>
        <pt x="42" y="473" on="1"/>
        <pt x="134" y="473" on="1"/>
        <pt x="134" y="662" on="0"/>
        <pt x="206" y="717" on="1"/>
        <pt x="244" y="745" on="0"/>
        <pt x="350" y="745" on="0"/>
        <pt x="446" y="689" on="0"/>
        <pt x="446" y="653" on="1"/>
        <pt x="446" y="638" on="0"/>
        <pt x="423" y="616" on="0"/>
        <pt x="385" y="616" on="0"/>
        <pt x="357" y="648" on="0"/>
        <pt x="344" y="685" on="0"/>
        <pt x="312" y="717" on="0"/>
        <pt x="288" y="717" on="1"/>
        <pt x="237" y="717" on="0"/>
        <pt x="204" y="622" on="0"/>
        <pt x="204" y="520" on="1"/>
        <pt x="204" y="473" on="1"/>
        <pt x="336" y="473" on="1"/>
        <pt x="336" y="451" on="1"/>
      </contour>
    </TTGlyph>
    <TTGlyph name="f_b" xMin="35" yMin="-10" xMax="856" yMax="745">
      <contour>
        <pt x="204" y="473" on="1"/>
        <pt x="336" y="473" on="1"/>
        <pt x="336" y="451" on="1"/>
        <pt x="204" y="451" on="1"/>
        <pt x="204" y="226" on="1"/>
        <pt x="204" y="119" on="0"/>
        <pt x="217" y="41" on="0"/>
        <pt x="229" y="31" on="1"/>
        <pt x="252" y="12" on="0"/>
        <pt x="302" y="12" on="1"/>
        <pt x="304" y="0" on="1"/>
        <pt x="35" y="0" on="1"/>
        <pt x="37" y="12" on="1"/>
        <pt x="61" y="12" on="0"/>
        <pt x="90" y="16" on="0"/>
        <pt x="114" y="34" on="0"/>
        <pt x="125" y="57" on="0"/>
        <pt x="129" y="84" on="1"/>
        <pt x="134" y="119" on="0"/>
        <pt x="134" y="226" on="1"/>
        <pt x="134" y="451" on="1"/>
        <pt x="42" y="451" on="1"/>
        <pt x="42" y="473" on="1"/>
        <pt x="134" y="473" on="1"/>
        <pt x="134" y="513" on="1"/>
        <pt x="134" y="629" on="0"/>
        <pt x="241" y="745" on="0"/>
        <pt x="315" y="745" on="1"/>
        <pt x="357" y="745" on="0"/>
        <pt x="432" y="707" on="0"/>
        <pt x="452" y="674" on="1"/>
        <pt x="477" y="699" on="0"/>
        <pt x="501" y="745" on="1"/>
        <pt x="516" y="745" on="1"/>
        <pt x="516" y="352" on="1"/>
        <pt x="558" y="483" on="0"/>
        <pt x="669" y="483" on="1"/>
        <pt x="734" y="483" on="0"/>
        <pt x="778" y="444" on="1"/>
        <pt x="856" y="375" on="0"/>
        <pt x="856" y="235" on="1"/>
        <pt x="856" y="128" on="0"/>
        <pt x="721" y="-10" on="0"/>
        <pt x="606" y="-10" on="1"/>
        <pt x="559" y="-10" on="0"/>
        <pt x="479" y="4" on="0"/>
        <pt x="462" y="10" on="1"/>
        <pt x="446" y="17" on="1"/>
        <pt x="446" y="587" on="1"/>
        <pt x="446" y="646" on="0"/>
        <pt x="370" y="717" on="0"/>
        <pt x="272" y="717" on="0"/>
        <pt x="204" y="645" on="0"/>
        <pt x="204" y="577" on="1"/>
      </contour>
      <contour>
        <pt x="516" y="49" on="1"/>
        <pt x="554" y="19" on="0"/>
        <pt x="661" y="19" on="0"/>
        <pt x="729" y="61" on="0"/>
        <pt x="764" y="128" on="0"/>
        <pt x="780" y="199" on="0"/>
        <pt x="780" y="271" on="0"/>
        <pt x="769" y="339" on="0"/>
        <pt x="744" y="409" on="0"/>
        <pt x="690" y="452" on="0"/>
        <pt x="606" y="452" on="0"/>
        <pt x="540" y="364" on="0"/>
        <pt x="516" y="269" on="0"/>
        <pt x="516" y="233" on="1"/>
      </contour>
    </TTGlyph>
    <TTGlyph name="f_k" xMin="35" yMin="0" xMax="885" yMax="745">
      <contour>
        <pt x="204" y="473" on="1"/>
        <pt x="336" y="473" on="1"/>
        <pt x="336" y="451" on="1"/>
        <pt x="204" y="451" on="1"/>
        <pt x="204" y="226" on="1"/>
        <pt x="204" y="119" on="0"/>
        <pt x="217" y="41" on="0"/>
        <pt x="229" y="31" on="1"/>
        <pt x="252" y="12" on="0"/>
        <pt x="302" y="12" on="1"/>
        <pt x="304" y="0" on="1"/>
        <pt x="35" y="0" on="1"/>
        <pt x="37" y="12" on="1"/>
        <pt x="61" y="12" on="0"/>
        <pt x="90" y="16" on="0"/>
        <pt x="114" y="34" on="0"/>
        <pt x="125" y="57" on="0"/>
        <pt x="129" y="84" on="1"/>
        <pt x="134" y="119" on="0"/>
        <pt x="134" y="226" on="1"/>
        <pt x="134" y="451" on="1"/>
        <pt x="42" y="451" on="1"/>
        <pt x="42" y="473" on="1"/>
        <pt x="134" y="473" on="1"/>
        <pt x="134" y="513" on="1"/>
        <pt x="134" y="629" on="0"/>
        <pt x="241" y="745" on="0"/>
        <pt x="315" y="745" on="1"/>
        <pt x="357" y="745" on="0"/>
        <pt x="432" y="707" on="0"/>
        <pt x="452" y="674" on="1"/>
        <pt x="477" y="699" on="0"/>
        <pt x="501" y="745" on="1"/>
        <pt x="516" y="745" on="1"/>
        <pt x="516" y="269" on="1"/>
        <pt x="575" y="273" on="0"/>
        <pt x="679" y="386" on="0"/>
        <pt x="679" y="431" on="1"/>
        <pt x="679" y="448" on="0"/>
        <pt x="661" y="462" on="0"/>
        <pt x="640" y="462" on="1"/>
        <pt x="638" y="473" on="1"/>
        <pt x="851" y="473" on="1"/>
        <pt x="849" y="462" on="1"/>
        <pt x="784" y="462" on="0"/>
        <pt x="724" y="402" on="0"/>
        <pt x="658" y="330" on="0"/>
        <pt x="642" y="314" on="1"/>
        <pt x="603" y="273" on="0"/>
        <pt x="560" y="262" on="1"/>
        <pt x="605" y="256" on="0"/>
        <pt x="679" y="200" on="0"/>
        <pt x="729" y="129" on="0"/>
        <pt x="754" y="94" on="1"/>
        <pt x="811" y="12" on="0"/>
        <pt x="883" y="12" on="1"/>
        <pt x="885" y="0" on="1"/>
        <pt x="785" y="0" on="1"/>
        <pt x="729" y="0" on="0"/>
        <pt x="672" y="85" on="1"/>
        <pt x="647" y="121" on="0"/>
        <pt x="623" y="157" on="1"/>
        <pt x="564" y="245" on="0"/>
        <pt x="516" y="252" on="1"/>
        <pt x="516" y="165" on="1"/>
        <pt x="516" y="61" on="0"/>
        <pt x="542" y="12" on="0"/>
        <pt x="600" y="12" on="1"/>
        <pt x="602" y="0" on="1"/>
        <pt x="358" y="0" on="1"/>
        <pt x="360" y="12" on="1"/>
        <pt x="420" y="12" on="0"/>
        <pt x="446" y="63" on="0"/>
        <pt x="446" y="174" on="1"/>
        <pt x="446" y="593" on="1"/>
        <pt x="446" y="648" on="0"/>
        <pt x="369" y="717" on="0"/>
        <pt x="272" y="717" on="0"/>
        <pt x="204" y="645" on="0"/>
        <pt x="204" y="577" on="1"/>
      </contour>
    </TTGlyph>
</ttFont>
